SplineFontDB: 3.0
FontName: Creepster-Regular
FullName: Creepster
FamilyName: Creepster
Weight: Regular
Copyright: Copyright (c) 2011, Font Diner, Inc (diner@fontdiner.com), with Reserved Font Names "Creepster"
Version: 1.002
ItalicAngle: 0
UnderlinePosition: -52
UnderlineWidth: 51
Ascent: 819
Descent: 205
sfntRevision: 0x00010000
LayerCount: 2
Layer: 0 1 "Back"  1
Layer: 1 1 "Fore"  0
NeedsXUIDChange: 1
XUID: [1021 288 713564382 3939677]
FSType: 0
OS2Version: 3
OS2_WeightWidthSlopeOnly: 0
OS2_UseTypoMetrics: 1
CreationTime: 1319137200
ModificationTime: 1319464871
PfmFamily: 81
TTFWeight: 400
TTFWidth: 5
LineGap: 0
VLineGap: 0
Panose: 2 0 0 0 0 0 0 0 0 0
OS2TypoAscent: 974
OS2TypoAOffset: 0
OS2TypoDescent: -223
OS2TypoDOffset: 0
OS2TypoLinegap: 0
OS2WinAscent: 974
OS2WinAOffset: 0
OS2WinDescent: 223
OS2WinDOffset: 0
HheadAscent: 974
HheadAOffset: 0
HheadDescent: -223
HheadDOffset: 0
OS2SubXSize: 717
OS2SubYSize: 666
OS2SubXOff: 0
OS2SubYOff: 143
OS2SupXSize: 717
OS2SupYSize: 666
OS2SupXOff: 0
OS2SupYOff: 488
OS2StrikeYSize: 51
OS2StrikeYPos: 256
OS2Vendor: 'DINR'
OS2CodePages: 00000001.00000000
OS2UnicodeRanges: 80000027.4800004a.14000000.00000000
Lookup: 258 0 0 "'kern' Horizontal Kerning in Latin lookup 0"  {"'kern' Horizontal Kerning in Latin lookup 0 subtable"  } ['kern' ('DFLT' <'dflt' > 'latn' <'dflt' > ) ]
MarkAttachClasses: 1
DEI: 91125
TtTable: prep
PUSHW_1
 511
SCANCTRL
PUSHB_1
 4
SCANTYPE
EndTTInstrs
LangName: 1033 "" "" "" "" "" "Version 1.002" "" "Creepster is a trademark of Font Diner, Inc." "Font Diner, Inc" "Font Diner, Inc" "Copyright (c) 2011, Font Diner, Inc (diner@fontdiner.com), with Reserved Font Names Creepster" "http://www.fontdiner.com" "http://www.fontdiner.com" "This Font Software is licensed under the SIL Open Font License, Version 1.1. This license is available with a FAQ at: http://scripts.sil.org/OFL" "http://scripts.sil.org/OFL" 
GaspTable: 1 65535 15
Encoding: UnicodeBmp
UnicodeInterp: none
NameList: Adobe Glyph List

StartChar: Lslash
Encoding: 321 321 2
Width: 366
Flags: HW
LayerCount: 2
Fore
SplineSet
204 143 m 1,0,1
 216.5 148 216.5 148 230.25 148 c 128,-1,2
 244 148 244 148 252 144 c 128,-1,3
 260 140 260 140 267.5 135 c 0,4,5
 287 122 287 122 309 122.5 c 128,-1,6
 331 123 331 123 346 124.5 c 128,-1,7
 361 126 361 126 375 116 c 1,8,9
 392.350180505 100.577617329 392.350180505 100.577617329 390 66.5 c 0,10,11
 387.704663212 33.2176165803 387.704663212 33.2176165803 374.852331606 23.6088082902 c 128,-1,12
 362 14 362 14 351 14 c 128,-1,13
 340 14 340 14 329 15.5 c 128,-1,14
 318 17 318 17 308 18 c 128,-1,15
 298 19 298 19 291 13 c 0,16,17
 255.416666667 -12.4166666667 255.416666667 -12.4166666667 234.5 8.5 c 0,18,19
 224.166666667 18.8333333333 224.166666667 18.8333333333 208.083333333 17.9166666667 c 128,-1,20
 192 17 192 17 179.5 11.5 c 128,-1,21
 167 6 167 6 154.5 1.5 c 0,22,23
 94.7638190955 -20.0050251256 94.7638190955 -20.0050251256 74 34.5 c 0,24,25
 70 45 70 45 67.5 54.5 c 128,-1,26
 65 64 65 64 62 70 c 256,27,28
 55.2121212121 83.5757575758 55.2121212121 83.5757575758 57.6060606061 118.287878788 c 128,-1,29
 60 153 60 153 58.5 172.5 c 128,-1,30
 57 192 57 192 51 216.5 c 128,-1,31
 45 241 45 241 44 262 c 1,32,33
 30 253 30 253 19 246.5 c 128,-1,34
 8 240 8 240 -2 242 c 0,35,36
 -28.0162601626 247.203252033 -28.0162601626 247.203252033 -31 284.5 c 0,37,38
 -33.037037037 309.962962963 -33.037037037 309.962962963 -13.5 329.5 c 0,39,40
 -4 339 -4 339 8.5 342.5 c 0,41,42
 25.5454545455 347.272727273 25.5454545455 347.272727273 41 355 c 1,43,44
 42 363 42 363 46 371.5 c 128,-1,45
 50 380 50 380 54 389 c 0,46,47
 63.7049180328 410.836065574 63.7049180328 410.836065574 61.8524590164 429.418032787 c 128,-1,48
 60 448 60 448 56 455.5 c 128,-1,49
 52 463 52 463 47.5 468.5 c 128,-1,50
 43 474 43 474 39 479 c 128,-1,51
 35 484 35 484 35 493 c 0,52,53
 26 574 26 574 26 701 c 0,54,55
 26 712 26 712 36.5 722.5 c 0,56,57
 55.1666666667 741.166666667 55.1666666667 741.166666667 65.5833333333 738.583333333 c 0,58,59
 102.606425703 729.401606426 102.606425703 729.401606426 132.303212851 736.700803213 c 128,-1,60
 162 744 162 744 184 744.5 c 128,-1,61
 206 745 206 745 221.5 724 c 0,62,63
 258.222778473 674.246558198 258.222778473 674.246558198 240 605 c 0,64,65
 235 589 235 589 236 574.5 c 128,-1,66
 237 560 237 560 230.5 543.5 c 128,-1,67
 224 527 224 527 225 513 c 128,-1,68
 226 499 226 499 228 479 c 1,69,70
 253.193548387 492.741935484 253.193548387 492.741935484 262.596774194 493.370967742 c 128,-1,71
 272 494 272 494 282.5 489 c 128,-1,72
 293 484 293 484 300.5 474.5 c 0,73,74
 317.74801061 452.652519894 317.74801061 452.652519894 305.874005305 430.826259947 c 128,-1,75
 294 409 294 409 282.5 402.5 c 128,-1,76
 271 396 271 396 259.5 394.5 c 128,-1,77
 248 393 248 393 237.5 394 c 128,-1,78
 227 395 227 395 220 395 c 1,79,80
 217 386 217 386 210 374 c 128,-1,81
 203 362 203 362 201 347.5 c 128,-1,82
 199 333 199 333 200 316.5 c 128,-1,83
 201 300 201 300 202.5 282.5 c 128,-1,84
 204 265 204 265 202.5 244.5 c 128,-1,85
 201 224 201 224 201 196.5 c 128,-1,86
 201 169 201 169 204 143 c 1,0,1
EndSplineSet
EndChar

StartChar: lslash
Encoding: 322 322 3
Width: 325
Flags: HW
LayerCount: 2
Fore
SplineSet
201 469 m 1,0,1
 233.720930233 492.372093023 233.720930233 492.372093023 246.360465116 493.186046512 c 128,-1,2
 259 494 259 494 269.5 489 c 128,-1,3
 280 484 280 484 287.5 474.5 c 0,4,5
 305.344827586 451.896551724 305.344827586 451.896551724 292.672413793 429.448275862 c 128,-1,6
 280 407 280 407 267 401 c 128,-1,7
 254 395 254 395 241 394 c 128,-1,8
 228 393 228 393 217.5 395 c 0,9,10
 200.867256637 398.168141593 200.867256637 398.168141593 196 386 c 1,11,12
 193 356 193 356 188 338 c 1,13,14
 171.503496503 328.573426573 171.503496503 328.573426573 183 296 c 2,15,-1
 190 275 l 2,16,17
 200 245 200 245 200 216 c 128,-1,18
 200 187 200 187 195 160 c 1,19,20
 223.80952381 144.285714286 223.80952381 144.285714286 236.404761905 142.642857143 c 0,21,22
 264.600775194 138.965116279 264.600775194 138.965116279 288.300387597 150.98255814 c 128,-1,23
 312 163 312 163 322.5 161 c 128,-1,24
 333 159 333 159 337.5 151.5 c 0,25,26
 343.125 142.125 343.125 142.125 340.5625 121.5625 c 128,-1,27
 338 101 338 101 340 87.5 c 128,-1,28
 342 74 342 74 343.5 61.5 c 128,-1,29
 345 49 345 49 345 38 c 128,-1,30
 345 27 345 27 338.5 19.5 c 128,-1,31
 332 12 332 12 319 7 c 128,-1,32
 306 2 306 2 290.5 0.5 c 0,33,34
 252.56996587 -3.17064846416 252.56996587 -3.17064846416 226 11 c 256,35,36
 201.441176471 24.0980392157 201.441176471 24.0980392157 178.720588235 19.0490196078 c 128,-1,37
 156 14 156 14 143.5 9.5 c 128,-1,38
 131 5 131 5 114.5 1 c 128,-1,39
 98 -3 98 -3 82 -2.5 c 128,-1,40
 66 -2 66 -2 55 15.5 c 128,-1,41
 44 33 44 33 43 56 c 128,-1,42
 42 79 42 79 50 103 c 128,-1,43
 58 127 58 127 56 157.5 c 128,-1,44
 54 188 54 188 52 209.5 c 128,-1,45
 50 231 50 231 52 246.5 c 128,-1,46
 54 262 54 262 52 274 c 1,47,-1
 51 273 l 1,48,49
 26 260 26 260 12.5 250 c 128,-1,50
 -1 240 -1 240 -13 242 c 0,51,52
 -39.9594594595 246.493243243 -39.9594594595 246.493243243 -43 284.5 c 0,53,54
 -45.037037037 309.962962963 -45.037037037 309.962962963 -25.5 329.5 c 0,55,56
 -16 339 -16 339 -3 342.5 c 0,57,58
 17.0909090909 347.909090909 17.0909090909 347.909090909 33 357 c 1,59,60
 35 370 35 370 40.5 378 c 128,-1,61
 46 386 46 386 47.5 391.5 c 128,-1,62
 49 397 49 397 47 411 c 256,63,64
 38.9090909091 467.636363636 38.9090909091 467.636363636 41.4545454545 498.818181818 c 128,-1,65
 44 530 44 530 40.5 552.5 c 128,-1,66
 37 575 37 575 39 589.5 c 128,-1,67
 41 604 41 604 37 614 c 128,-1,68
 33 624 33 624 34.5 628.5 c 128,-1,69
 36 633 36 633 34 641.5 c 128,-1,70
 32 650 32 650 30 660.5 c 0,71,72
 24.4324324324 689.72972973 24.4324324324 689.72972973 26.7162162162 700.864864865 c 128,-1,73
 29 712 29 712 36.5 726.5 c 128,-1,74
 44 741 44 741 55 744 c 128,-1,75
 66 747 66 747 68 749 c 128,-1,76
 70 751 70 751 78.5 753.5 c 0,77,78
 99.3857142857 759.642857143 99.3857142857 759.642857143 109.192857143 754.821428571 c 128,-1,79
 119 750 119 750 127 749.5 c 128,-1,80
 135 749 135 749 143.5 749.5 c 128,-1,81
 152 750 152 750 159.5 751.5 c 2,82,-1
 172 754 l 1,83,84
 192.952380952 760.285714286 192.952380952 760.285714286 204 752 c 1,85,86
 211 745 211 745 214 741 c 128,-1,87
 217 737 217 737 215 729 c 256,88,89
 213 721 213 721 217 716 c 128,-1,90
 221 711 221 711 220 701.5 c 128,-1,91
 219 692 219 692 219.5 687.5 c 128,-1,92
 220 683 220 683 221 678.5 c 0,93,94
 223.234042553 668.446808511 223.234042553 668.446808511 219.117021277 654.223404255 c 128,-1,95
 215 640 215 640 214 635.5 c 128,-1,96
 213 631 213 631 213 627 c 0,97,98
 213 614 213 614 209.5 602.5 c 128,-1,99
 206 591 206 591 205.5 583.5 c 128,-1,100
 205 576 205 576 205 566.5 c 2,101,-1
 205 544.5 l 2,102,103
 205 532 205 532 203.5 518.5 c 0,104,105
 201 496 201 496 201 469 c 1,0,1
EndSplineSet
EndChar

StartChar: Thorn
Encoding: 222 222 8
Width: 457
Flags: HW
LayerCount: 2
Fore
SplineSet
183 86 m 1,0,1
 188 76 188 76 188 58.5 c 0,2,3
 188 25 188 25 175 12 c 256,4,5
 153.846153846 -9.15384615385 153.846153846 -9.15384615385 119.5 -20 c 0,6,7
 104.866666667 -24.6210526316 104.866666667 -24.6210526316 89.4333333333 -17.3105263158 c 128,-1,8
 74 -10 74 -10 55.5 -8.5 c 128,-1,9
 37 -7 37 -7 31.5 2 c 128,-1,10
 26 11 26 11 26 22.5 c 0,11,12
 26 44.6 26 44.6 38.5 63.8 c 128,-1,13
 51 83 51 83 55 105.5 c 0,14,15
 65.6966292135 165.668539326 65.6966292135 165.668539326 57.8483146067 208.834269663 c 128,-1,16
 50 252 50 252 47 271.5 c 128,-1,17
 44 291 44 291 41.5 308.5 c 128,-1,18
 39 326 39 326 45.5 329.5 c 128,-1,19
 52 333 52 333 53 339 c 128,-1,20
 54 345 54 345 53.5 352 c 128,-1,21
 53 359 53 359 51 366 c 128,-1,22
 49 373 49 373 48 377.5 c 128,-1,23
 47 382 47 382 44.5 396.5 c 128,-1,24
 42 411 42 411 40.5 430.5 c 0,25,26
 36.1428571429 487.142857143 36.1428571429 487.142857143 39.0714285714 521.071428571 c 128,-1,27
 42 555 42 555 36 588.5 c 128,-1,28
 30 622 30 622 23.5 650.5 c 128,-1,29
 17 679 17 679 15.5 701 c 128,-1,30
 14 723 14 723 24 733.5 c 128,-1,31
 34 744 34 744 45 743 c 128,-1,32
 56 742 56 742 69 739 c 128,-1,33
 82 736 82 736 94.5 733.5 c 128,-1,34
 107 731 107 731 116 737 c 0,35,36
 154 760 154 760 163 738 c 0,37,38
 166 732 166 732 170 729 c 128,-1,39
 174 726 174 726 177 722.5 c 0,40,41
 184.125 714.1875 184.125 714.1875 181.5625 698.59375 c 128,-1,42
 179 683 179 683 179 674.5 c 128,-1,43
 179 666 179 666 180 659.5 c 0,44,45
 184.304347826 631.52173913 184.304347826 631.52173913 180 610 c 1,46,47
 186 610 186 610 192 609 c 128,-1,48
 198 608 198 608 205 610 c 128,-1,49
 212 612 212 612 222 609 c 128,-1,50
 232 606 232 606 240 607 c 256,51,52
 248 608 248 608 255 606 c 128,-1,53
 262 604 262 604 270 604 c 258,54,-1
 287.5 604 l 2,55,56
 297 604 297 604 302 601 c 128,-1,57
 307 598 307 598 313 596.5 c 128,-1,58
 319 595 319 595 326 593 c 0,59,60
 343.684210526 587.947368421 343.684210526 587.947368421 347 578 c 0,61,62
 351.47826087 563.072463768 351.47826087 563.072463768 359.239130435 557.036231884 c 128,-1,63
 367 551 367 551 371 548 c 128,-1,64
 375 545 375 545 378 541 c 0,65,66
 383 531 383 531 395.5 523.5 c 128,-1,67
 408 516 408 516 413 507 c 256,68,69
 418 498 418 498 426.5 488.5 c 128,-1,70
 435 479 435 479 435 467.5 c 128,-1,71
 435 456 435 456 438 449 c 128,-1,72
 441 442 441 442 443.5 433 c 0,73,74
 452.229508197 401.573770492 452.229508197 401.573770492 429 343.5 c 0,75,76
 422.4 327 422.4 327 423.7 309 c 128,-1,77
 425 291 425 291 418 279 c 128,-1,78
 411 267 411 267 408 259.5 c 128,-1,79
 405 252 405 252 401 249 c 128,-1,80
 397 246 397 246 393.5 241.5 c 0,81,82
 384.505376344 229.935483871 384.505376344 229.935483871 385.752688172 209.467741935 c 0,83,84
 388.346907867 166.897938578 388.346907867 166.897938578 354 144 c 0,85,86
 331.571428571 129.047619048 331.571428571 129.047619048 309.285714286 131.523809524 c 128,-1,87
 287 134 287 134 271 136.5 c 128,-1,88
 255 139 255 139 237.5 136.5 c 0,89,90
 210.2 132.6 210.2 132.6 189 122 c 1,91,92
 191 94 191 94 183 86 c 1,0,1
188 429.5 m 128,-1,94
 188 422 188 422 191.5 415.5 c 128,-1,95
 195 409 195 409 192 399 c 0,96,97
 186.325301205 380.084337349 186.325301205 380.084337349 187.662650602 366.042168675 c 128,-1,98
 189 352 189 352 189 334.5 c 128,-1,99
 189 317 189 317 184 296.5 c 128,-1,100
 179 276 179 276 186 256 c 0,101,102
 188.375 248.875 188.375 248.875 201.1875 251.4375 c 0,103,104
 226.142857143 256.428571429 226.142857143 256.428571429 230.571428571 268.714285714 c 128,-1,105
 235 281 235 281 245.5 286.5 c 128,-1,106
 256 292 256 292 258.5 303.5 c 128,-1,107
 261 315 261 315 268 325.5 c 128,-1,108
 275 336 275 336 275 350.5 c 128,-1,109
 275 365 275 365 280.5 376.5 c 128,-1,110
 286 388 286 388 281 397 c 128,-1,111
 276 406 276 406 273.5 408 c 128,-1,112
 271 410 271 410 267 411 c 128,-1,113
 263 412 263 412 256.5 413.5 c 0,114,115
 234.888888889 418.487179487 234.888888889 418.487179487 225.944444444 426.743589744 c 128,-1,116
 217 435 217 435 212 439.5 c 0,117,118
 201.210526316 449.210526316 201.210526316 449.210526316 194.605263158 443.105263158 c 128,-1,93
 188 437 188 437 188 429.5 c 128,-1,94
EndSplineSet
EndChar

StartChar: onehalf
Encoding: 189 189 12
Width: 500
Flags: HW
LayerCount: 2
Fore
SplineSet
133 698 m 1,0,-1
 135 666 l 2,1,2
 135 661 135 661 136.5 658.5 c 128,-1,3
 138 656 138 656 139 653 c 0,4,5
 142.166666667 643.5 142.166666667 643.5 139.083333333 634.25 c 128,-1,6
 136 625 136 625 136.5 612 c 128,-1,7
 137 599 137 599 135 583.5 c 128,-1,8
 133 568 133 568 140 550 c 128,-1,9
 147 532 147 532 149 505 c 0,10,11
 152.681818182 455.295454545 152.681818182 455.295454545 155.340909091 449.647727273 c 0,12,13
 168.272643253 422.181608133 168.272643253 422.181608133 158.636321627 398.590804067 c 0,14,15
 143.669952726 361.951442078 143.669952726 361.951442078 119 369 c 256,16,17
 112 371 112 371 99.5 368.5 c 128,-1,18
 87 366 87 366 76 374 c 1,19,20
 53 388 53 388 58 419 c 0,21,22
 60 432 60 432 65 453 c 128,-1,23
 70 474 70 474 69.5 488.5 c 128,-1,24
 69 503 69 503 69.5 524.5 c 128,-1,25
 70 546 70 546 69.5 569.5 c 0,26,27
 68.2417582418 628.637362637 68.2417582418 628.637362637 63.1208791209 635.818681319 c 128,-1,28
 58 643 58 643 53 643 c 128,-1,29
 48 643 48 643 42.5 641.5 c 128,-1,30
 37 640 37 640 32.5 647.5 c 128,-1,31
 28 655 28 655 33 666.5 c 128,-1,32
 38 678 38 678 36.5 684.5 c 128,-1,33
 35 691 35 691 41 693 c 128,-1,34
 47 695 47 695 48.5 701.5 c 128,-1,35
 50 708 50 708 51.5 715 c 0,36,37
 55.3773584906 733.094339623 55.3773584906 733.094339623 67 736 c 1,38,39
 82 738 82 738 98 741 c 128,-1,40
 114 744 114 744 123.5 738 c 0,41,42
 136.198019802 729.98019802 136.198019802 729.98019802 133 698 c 1,0,-1
68 0.5 m 128,-1,44
 62 -5 62 -5 53 -6.5 c 128,-1,45
 44 -8 44 -8 31 -2 c 128,-1,46
 18 4 18 4 16 23.5 c 0,47,48
 12.4130434783 58.472826087 12.4130434783 58.472826087 27 84 c 256,49,50
 35 98 35 98 41 110.5 c 128,-1,51
 47 123 47 123 57.5 135.5 c 128,-1,52
 68 148 68 148 78 161.5 c 128,-1,53
 88 175 88 175 98 189.5 c 0,54,55
 120.857142857 222.642857143 120.857142857 222.642857143 126.928571429 237.321428571 c 128,-1,56
 133 252 133 252 142.5 266.5 c 128,-1,57
 152 281 152 281 162 297 c 0,58,59
 187.909090909 338.454545455 187.909090909 338.454545455 191.954545455 360.727272727 c 0,60,61
 198.859204768 398.74168917 198.859204768 398.74168917 263 485 c 0,62,63
 292 525 292 525 306.5 559 c 128,-1,64
 321 593 321 593 329 604.5 c 128,-1,65
 337 616 337 616 344.5 623 c 128,-1,66
 352 630 352 630 358 636 c 0,67,68
 371.5 649.5 371.5 649.5 372.75 662.75 c 128,-1,69
 374 676 374 676 380.5 687 c 128,-1,70
 387 698 387 698 395 707 c 0,71,72
 414.555555556 729 414.555555556 729 428.777777778 730 c 128,-1,73
 443 731 443 731 455.5 719.5 c 128,-1,74
 468 708 468 708 465.5 690 c 0,75,76
 461.174603175 658.857142857 461.174603175 658.857142857 428 629 c 1,77,78
 398 599 398 599 375 562 c 128,-1,79
 352 525 352 525 347 512 c 256,80,81
 341.523809524 497.761904762 341.523809524 497.761904762 330.261904762 481.380952381 c 0,82,83
 309.113924051 450.620253165 309.113924051 450.620253165 304.556962025 434.810126582 c 128,-1,84
 300 419 300 419 293.5 407.5 c 128,-1,85
 287 396 287 396 280.5 386 c 0,86,87
 264.25 361 264.25 361 262.625 348.5 c 128,-1,88
 261 336 261 336 256 322 c 128,-1,89
 251 308 251 308 248.5 298.5 c 0,90,91
 240.324324324 267.432432432 240.324324324 267.432432432 225.162162162 246.716216216 c 128,-1,92
 210 226 210 226 201 209 c 128,-1,93
 192 192 192 192 186 183.5 c 0,94,95
 166.285714286 155.571428571 166.285714286 155.571428571 161.642857143 145.285714286 c 128,-1,96
 157 135 157 135 147 122.5 c 128,-1,97
 137 110 137 110 132 102 c 256,98,99
 127 94 127 94 115 77.5 c 128,-1,100
 103 61 103 61 97 49.5 c 128,-1,101
 91 38 91 38 87 29.5 c 128,-1,102
 83 21 83 21 78.5 13.5 c 128,-1,43
 74 6 74 6 68 0.5 c 128,-1,44
374.5 86 m 128,-1,104
 368 81 368 81 367 81 c 1,105,106
 379 84 379 84 392 88 c 128,-1,107
 405 92 405 92 422 91.5 c 0,108,109
 458.865168539 90.4157303371 458.865168539 90.4157303371 466 79 c 0,110,111
 476.866666667 60.8888888889 476.866666667 60.8888888889 464 18 c 0,112,113
 458.6 7.54951656745e-14 458.6 7.54951656745e-14 444 0 c 0,114,115
 437 0 437 0 428.5 1.5 c 0,116,117
 391.089171975 8.10191082803 391.089171975 8.10191082803 351.5 -8.5 c 0,118,119
 336 -15 336 -15 320.5 -10.5 c 128,-1,120
 305 -6 305 -6 301.5 -4 c 128,-1,121
 298 -2 298 -2 296.5 0 c 0,122,123
 291.368421053 6.84210526316 291.368421053 6.84210526316 283.684210526 10.4210526316 c 128,-1,124
 276 14 276 14 277.5 26.5 c 128,-1,125
 279 39 279 39 276.5 54.5 c 128,-1,126
 274 70 274 70 278.5 76 c 128,-1,127
 283 82 283 82 291 87 c 256,128,129
 299 92 299 92 300.5 96 c 128,-1,130
 302 100 302 100 311 101.5 c 128,-1,131
 320 103 320 103 323.5 108.5 c 128,-1,132
 327 114 327 114 329.5 120.5 c 0,133,134
 335.909090909 137.163636364 335.909090909 137.163636364 343 140 c 256,135,136
 348.540540541 142.216216216 348.540540541 142.216216216 352.27027027 150.608108108 c 128,-1,137
 356 159 356 159 358.5 162.5 c 128,-1,138
 361 166 361 166 365.5 166.5 c 128,-1,139
 370 167 370 167 375.5 175.5 c 128,-1,140
 381 184 381 184 385.5 195 c 0,141,142
 396.71641791 222.417910448 396.71641791 222.417910448 394.858208955 231.208955224 c 0,143,144
 390.44216891 252.100903712 390.44216891 252.100903712 371 244 c 0,145,146
 364.210526316 241.736842105 364.210526316 241.736842105 362.105263158 234.368421053 c 128,-1,147
 360 227 360 227 358.5 223.5 c 128,-1,148
 357 220 357 220 348 216.5 c 128,-1,149
 339 213 339 213 333.5 210.5 c 128,-1,150
 328 208 328 208 320 212.5 c 128,-1,151
 312 217 312 217 305 217 c 2,152,-1
 291.5 217 l 2,153,154
 263.933333333 217 263.933333333 217 273.5 237.5 c 0,155,156
 277 245 277 245 274 253 c 0,157,158
 272 261 272 261 280.5 273 c 128,-1,159
 289 285 289 285 291 295 c 256,160,161
 293 305 293 305 302 319 c 128,-1,162
 311 333 311 333 322 337 c 128,-1,163
 333 341 333 341 342.5 345.5 c 128,-1,164
 352 350 352 350 362 353.5 c 0,165,166
 384.131147541 361.245901639 384.131147541 361.245901639 395 354 c 256,167,168
 403.823529412 348.117647059 403.823529412 348.117647059 410.411764706 349.058823529 c 0,169,170
 420.92 350.56 420.92 350.56 427.96 345.28 c 128,-1,171
 435 340 435 340 441.5 338 c 128,-1,172
 448 336 448 336 450 328.5 c 128,-1,173
 452 321 452 321 455 321 c 128,-1,174
 458 321 458 321 461 314 c 128,-1,175
 464 307 464 307 469.5 304.5 c 128,-1,176
 475 302 475 302 475.5 294 c 128,-1,177
 476 286 476 286 481 273.5 c 128,-1,178
 486 261 486 261 483.5 249.5 c 128,-1,179
 481 238 481 238 478.5 219 c 128,-1,180
 476 200 476 200 459 180 c 1,181,182
 442 163 442 163 434 151 c 128,-1,183
 426 139 426 139 412 137 c 1,184,185
 389.12 108.4 389.12 108.4 385.06 99.7 c 128,-1,103
 381 91 381 91 374.5 86 c 128,-1,104
EndSplineSet
EndChar

StartChar: onequarter
Encoding: 188 188 13
Width: 486
Flags: HW
LayerCount: 2
Fore
SplineSet
155 543.5 m 2,0,-1
 159 520 l 1,1,2
 157 512 157 512 160.5 504 c 128,-1,3
 164 496 164 496 163 482 c 128,-1,4
 162 468 162 468 163.5 462 c 128,-1,5
 165 456 165 456 166 451 c 128,-1,6
 167 446 167 446 167 440 c 128,-1,7
 167 434 167 434 162.5 423 c 128,-1,8
 158 412 158 412 153.5 402.5 c 128,-1,9
 149 393 149 393 140.5 391 c 128,-1,10
 132 389 132 389 123 388 c 128,-1,11
 114 387 114 387 107 384 c 128,-1,12
 100 381 100 381 85 385.5 c 128,-1,13
 70 390 70 390 65 407.5 c 128,-1,14
 60 425 60 425 64.5 434 c 128,-1,15
 69 443 69 443 67.5 451 c 128,-1,16
 66 459 66 459 68 465.5 c 128,-1,17
 70 472 70 472 72 479 c 0,18,19
 77.3684210526 497.789473684 77.3684210526 497.789473684 76.1842105263 504.394736842 c 128,-1,20
 75 511 75 511 76.5 526.5 c 128,-1,21
 78 542 78 542 79 561.5 c 128,-1,22
 80 581 80 581 80 601.5 c 128,-1,23
 80 622 80 622 77 638 c 1,24,25
 45.8510638298 643.191489362 45.8510638298 643.191489362 44.9255319149 655.595744681 c 128,-1,26
 44 668 44 668 48 674.5 c 128,-1,27
 52 681 52 681 59 687 c 128,-1,28
 66 693 66 693 68 699 c 128,-1,29
 70 705 70 705 71.5 711 c 0,30,31
 75 725 75 725 84 728 c 256,32,33
 90 730 90 730 92 734 c 128,-1,34
 94 738 94 738 96 741 c 0,35,36
 100.888888889 748.333333333 100.888888889 748.333333333 114.444444444 740.666666667 c 128,-1,37
 128 733 128 733 134.5 731 c 128,-1,38
 141 729 141 729 145 726.5 c 0,39,40
 157 719 157 719 157 685 c 2,41,-1
 157 656 l 2,42,43
 157 649 157 649 159 641 c 256,44,45
 161 633 161 633 158.5 623.5 c 128,-1,46
 156 614 156 614 156 603 c 256,47,48
 156 592 156 592 159 583.5 c 128,-1,49
 162 575 162 575 158.5 562 c 128,-1,50
 155 549 155 549 155 543.5 c 2,0,-1
90.5 10.5 m 128,-1,52
 85 -2 85 -2 72.5 -6 c 0,53,54
 43.0357142857 -15.4285714286 43.0357142857 -15.4285714286 25 -1 c 0,55,56
 14 7 14 7 8.5 11.5 c 128,-1,57
 3 16 3 16 5 28.5 c 128,-1,58
 7 41 7 41 8.5 50.5 c 128,-1,59
 10 60 10 60 18 67.5 c 0,60,61
 30.4307692308 79.1538461538 30.4307692308 79.1538461538 35 102 c 0,62,63
 36 105 36 105 41 111 c 128,-1,64
 46 117 46 117 52 124.5 c 0,65,66
 68 144.5 68 144.5 70.5 159.75 c 128,-1,67
 73 175 73 175 79 185.5 c 128,-1,68
 85 196 85 196 86.5 202 c 128,-1,69
 88 208 88 208 93.5 214 c 128,-1,70
 99 220 99 220 106 227 c 0,71,72
 124.2 245.2 124.2 245.2 129.1 260.1 c 128,-1,73
 134 275 134 275 144.5 284.5 c 128,-1,74
 155 294 155 294 158.5 304.5 c 128,-1,75
 162 315 162 315 170 324.5 c 128,-1,76
 178 334 178 334 183.5 343 c 128,-1,77
 189 352 189 352 199.5 362.5 c 128,-1,78
 210 373 210 373 221 385.5 c 0,79,80
 250.507936508 419.031746032 250.507936508 419.031746032 253.753968254 432.015873016 c 128,-1,81
 257 445 257 445 263 452 c 128,-1,82
 269 459 269 459 272 472 c 1,83,84
 277 484 277 484 283.5 492 c 128,-1,85
 290 500 290 500 292 511 c 256,86,87
 294 522 294 522 297.5 528 c 128,-1,88
 301 534 301 534 306 544.5 c 128,-1,89
 311 555 311 555 319 567.5 c 128,-1,90
 327 580 327 580 331 588.5 c 128,-1,91
 335 597 335 597 344 611 c 128,-1,92
 353 625 353 625 354.5 631 c 128,-1,93
 356 637 356 637 360 644 c 128,-1,94
 364 651 364 651 369 658 c 0,95,96
 382 676.2 382 676.2 382.5 687.6 c 128,-1,97
 383 699 383 699 390 703.5 c 128,-1,98
 397 708 397 708 399 717.5 c 128,-1,99
 401 727 401 727 408 730.5 c 128,-1,100
 415 734 415 734 425.5 742.5 c 128,-1,101
 436 751 436 751 446 747.5 c 128,-1,102
 456 744 456 744 457.5 738 c 128,-1,103
 459 732 459 732 462.5 727.5 c 128,-1,104
 466 723 466 723 468.5 717.5 c 0,105,106
 474.464566929 704.377952756 474.464566929 704.377952756 463.732283465 689.188976378 c 128,-1,107
 453 674 453 674 447.5 662.5 c 128,-1,108
 442 651 442 651 439 641 c 0,109,110
 428.476190476 605.920634921 428.476190476 605.920634921 415.238095238 584.96031746 c 128,-1,111
 402 564 402 564 396 553 c 256,112,113
 390 542 390 542 383.5 534 c 128,-1,114
 377 526 377 526 373.5 521 c 128,-1,115
 370 516 370 516 365.5 510 c 128,-1,116
 361 504 361 504 356.5 497 c 0,117,118
 345.769230769 480.307692308 345.769230769 480.307692308 343.884615385 473.653846154 c 0,119,120
 340.144378698 460.44852071 340.144378698 460.44852071 327.072189349 442.724260355 c 128,-1,121
 314 425 314 425 308.5 415.5 c 128,-1,122
 303 406 303 406 297.5 396 c 0,123,124
 284.142857143 371.714285714 284.142857143 371.714285714 280.071428571 365.857142857 c 128,-1,125
 276 360 276 360 266 344 c 128,-1,126
 256 328 256 328 245 311 c 128,-1,127
 234 294 234 294 224 279 c 2,128,-1
 210 258 l 2,129,130
 172.4 201.6 172.4 201.6 147.7 150.3 c 128,-1,131
 123 99 123 99 122 88 c 128,-1,132
 121 77 121 77 114 68 c 128,-1,133
 107 59 107 59 101.5 41 c 128,-1,51
 96 23 96 23 90.5 10.5 c 128,-1,52
421 286 m 1,134,-1
 416 213 l 1,135,136
 416 193 416 193 419 183 c 1,137,138
 432 185 432 185 440 186 c 128,-1,139
 448 187 448 187 453 180 c 1,140,141
 457 172 457 172 460.5 169.5 c 128,-1,142
 464 167 464 167 463 156 c 256,143,144
 462 145 462 145 461.5 133 c 128,-1,145
 461 121 461 121 456 119 c 256,146,147
 451 117 451 117 446 111 c 128,-1,148
 441 105 441 105 432 105.5 c 128,-1,149
 423 106 423 106 420 95.5 c 128,-1,150
 417 85 417 85 418 75 c 128,-1,151
 419 65 419 65 415.5 55 c 128,-1,152
 412 45 412 45 410.5 34 c 128,-1,153
 409 23 409 23 407.5 7.5 c 128,-1,154
 406 -8 406 -8 399 -9 c 0,155,156
 391 -11 391 -11 381 -16.5 c 128,-1,157
 371 -22 371 -22 363.5 -14 c 128,-1,158
 356 -6 356 -6 348 -0.5 c 128,-1,159
 340 5 340 5 338 18.5 c 128,-1,160
 336 32 336 32 338 38.5 c 128,-1,161
 340 45 340 45 338 58.5 c 128,-1,162
 336 72 336 72 338 87 c 128,-1,163
 340 102 340 102 332 103 c 1,164,-1
 279 100 l 1,165,166
 246.333333333 100 246.333333333 100 239.666666667 106 c 128,-1,167
 233 112 233 112 231 123.5 c 128,-1,168
 229 135 229 135 231.5 156.5 c 128,-1,169
 234 178 234 178 241 190 c 1,170,171
 248 207 248 207 257.5 217.5 c 128,-1,172
 267 228 267 228 273.5 235 c 128,-1,173
 280 242 280 242 286.5 250.5 c 128,-1,174
 293 259 293 259 299 268.5 c 0,175,176
 312.034482759 289.137931034 312.034482759 289.137931034 316 305 c 256,177,178
 324.475409836 338.901639344 324.475409836 338.901639344 350 354.5 c 0,179,180
 359 360 359 360 374.5 359.5 c 128,-1,181
 390 359 390 359 400 361 c 128,-1,182
 410 363 410 363 414.5 357 c 0,183,184
 422 347 422 347 422 320.5 c 2,185,-1
 421 286 l 1,134,-1
319.5 185.5 m 128,-1,187
 316 179 316 179 316 174.041666667 c 128,-1,188
 316 169.083333333 316 169.083333333 327.5 170.041666667 c 0,189,190
 348.6 171.8 348.6 171.8 353 174 c 0,191,192
 356 176 356 176 355.5 182 c 128,-1,193
 355 188 355 188 355.5 195.5 c 128,-1,194
 356 203 356 203 355.5 209 c 128,-1,195
 355 215 355 215 348 214 c 0,196,197
 341.615384615 214 341.615384615 214 332.307692308 203 c 128,-1,186
 323 192 323 192 319.5 185.5 c 128,-1,187
EndSplineSet
EndChar

StartChar: onesuperior
Encoding: 185 185 14
Width: 168
Flags: HW
LayerCount: 2
Fore
SplineSet
131 504 m 128,-1,1
 134 496 134 496 133 478 c 128,-1,2
 132 460 132 460 136 451 c 128,-1,3
 140 442 140 442 134.5 427 c 128,-1,4
 129 412 129 412 124.5 402.5 c 128,-1,5
 120 393 120 393 111.5 391 c 128,-1,6
 103 389 103 389 94 388 c 128,-1,7
 85 387 85 387 80 384.5 c 128,-1,8
 75 382 75 382 69 382.5 c 128,-1,9
 63 383 63 383 56 385.5 c 0,10,11
 39.7068965517 391.318965517 39.7068965517 391.318965517 35.8534482759 408.159482759 c 128,-1,12
 32 425 32 425 35.5 434 c 128,-1,13
 39 443 39 443 37.5 451 c 128,-1,14
 36 459 36 459 38 465.5 c 128,-1,15
 40 472 40 472 42.5 479 c 0,16,17
 48.6363636364 496.181818182 48.6363636364 496.181818182 47.3181818182 503.590909091 c 128,-1,18
 46 511 46 511 47 526.5 c 128,-1,19
 48 542 48 542 49.5 561.5 c 128,-1,20
 51 581 51 581 51 601.5 c 128,-1,21
 51 622 51 622 48 638 c 1,22,23
 16.7906976744 643.674418605 16.7906976744 643.674418605 15.3953488372 655.837209302 c 128,-1,24
 14 668 14 668 18.5 674.5 c 128,-1,25
 23 681 23 681 30 687 c 128,-1,26
 37 693 37 693 39 699 c 128,-1,27
 41 705 41 705 42.5 711 c 0,28,29
 46 725 46 725 55 728 c 256,30,31
 61 730 61 730 63 734 c 128,-1,32
 65 738 65 738 67 741 c 0,33,34
 72.0476190476 748.571428571 72.0476190476 748.571428571 88 739 c 256,35,36
 98 733 98 733 105 731 c 128,-1,37
 112 729 112 729 116 726.5 c 0,38,39
 128 719 128 719 128 685 c 2,40,-1
 128 671 l 258,41,42
 128 663 128 663 127.5 656 c 128,-1,43
 127 649 127 649 129 641 c 256,44,45
 131 633 131 633 128.5 623.5 c 128,-1,46
 126 614 126 614 126 603 c 256,47,48
 126 592 126 592 129 583.5 c 128,-1,49
 132 575 132 575 128.5 562 c 128,-1,50
 125 549 125 549 125.5 543.5 c 128,-1,51
 126 538 126 538 127 534 c 128,-1,52
 128 530 128 530 129 527 c 128,-1,53
 130 524 130 524 129 518 c 128,-1,0
 128 512 128 512 131 504 c 128,-1,1
EndSplineSet
EndChar

StartChar: threequarters
Encoding: 190 190 15
Width: 511
Flags: HW
LayerCount: 2
Fore
SplineSet
207 588 m 1,0,1
 200 581 200 581 184 561 c 1,2,-1
 198.5 546.5 l 2,3,4
 205 540 205 540 206.5 532.5 c 128,-1,5
 208 525 208 525 213.5 522 c 128,-1,6
 219 519 219 519 219 506 c 128,-1,7
 219 493 219 493 215.5 488 c 128,-1,8
 212 483 212 483 213.5 472 c 128,-1,9
 215 461 215 461 211 453.5 c 128,-1,10
 207 446 207 446 201 436.5 c 128,-1,11
 195 427 195 427 187.5 421.5 c 128,-1,12
 180 416 180 416 170 406.5 c 128,-1,13
 160 397 160 397 146 384.5 c 128,-1,14
 132 372 132 372 121 374 c 128,-1,15
 110 376 110 376 106.5 378 c 128,-1,16
 103 380 103 380 100 382 c 0,17,18
 91 388 91 388 78.5 388 c 0,19,20
 52.4285714286 388 52.4285714286 388 39.7142857143 406 c 0,21,22
 14.5185350603 441.670388566 14.5185350603 441.670388566 33 462 c 256,23,24
 51.0891719745 481.898089172 51.0891719745 481.898089172 65 466 c 0,25,26
 67 463 67 463 73.5 458 c 128,-1,27
 80 453 80 453 86.5 455 c 128,-1,28
 93 457 93 457 99.5 455 c 128,-1,29
 106 453 106 453 112 457 c 1,30,31
 133.8 478.8 133.8 478.8 124 490 c 1,32,33
 121 495 121 495 120 498.5 c 128,-1,34
 119 502 119 502 111 504 c 128,-1,35
 103 506 103 506 100.5 504.5 c 128,-1,36
 98 503 98 503 96 505 c 256,37,38
 94 507 94 507 94.5 511.5 c 128,-1,39
 95 516 95 516 93 522.5 c 128,-1,40
 91 529 91 529 88.5 533.5 c 128,-1,41
 86 538 86 538 88 542.5 c 0,42,43
 92.8148148148 553.333333333 92.8148148148 553.333333333 127 577 c 0,44,45
 132 581 132 581 141 590 c 128,-1,46
 150 599 150 599 147 615 c 0,47,48
 145 631 145 631 136.5 634.5 c 128,-1,49
 128 638 128 638 119.5 633.5 c 128,-1,50
 111 629 111 629 107.5 620 c 128,-1,51
 104 611 104 611 99 609 c 0,52,53
 95 608 95 608 84.5 608 c 2,54,-1
 62.5 608 l 2,55,56
 19.6666666667 608 19.6666666667 608 17 616 c 0,57,58
 16 619 16 619 17 626 c 128,-1,59
 18 633 18 633 15.5 636.5 c 128,-1,60
 13 640 13 640 16.5 644.5 c 128,-1,61
 20 649 20 649 23 659 c 128,-1,62
 26 669 26 669 33.5 675.5 c 128,-1,63
 41 682 41 682 45 695 c 256,64,65
 49 708 49 708 53 713.5 c 128,-1,66
 57 719 57 719 65.5 722.5 c 128,-1,67
 74 726 74 726 82.5 730 c 128,-1,68
 91 734 91 734 100 737.5 c 0,69,70
 121.375 745.8125 121.375 745.8125 129.6875 741.40625 c 128,-1,71
 138 737 138 737 148 740.5 c 128,-1,72
 158 744 158 744 164 739 c 128,-1,73
 170 734 170 734 177 729.5 c 128,-1,74
 184 725 184 725 191 719.5 c 0,75,76
 208.469565217 705.773913043 208.469565217 705.773913043 209.734782609 694.886956522 c 128,-1,77
 211 684 211 684 214 677 c 128,-1,78
 217 670 217 670 219.5 663.5 c 0,79,80
 225.939393939 646.757575758 225.939393939 646.757575758 221.96969697 632.378787879 c 128,-1,81
 218 618 218 618 216 604 c 128,-1,82
 214 590 214 590 207 588 c 1,0,1
483 716 m 1,83,84
 489.411764706 690.352941176 489.411764706 690.352941176 464 657 c 1,85,86
 443 632 443 632 435 622 c 128,-1,87
 427 612 427 612 424 602.5 c 128,-1,88
 421 593 421 593 412.5 585 c 128,-1,89
 404 577 404 577 399 566 c 128,-1,90
 394 555 394 555 389 545 c 128,-1,91
 384 535 384 535 379.5 525.5 c 0,92,93
 369.705882353 504.823529412 369.705882353 504.823529412 367.352941176 494.911764706 c 128,-1,94
 365 485 365 485 355.5 466.5 c 128,-1,95
 346 448 346 448 342.5 439 c 128,-1,96
 339 430 339 430 333.5 414.5 c 128,-1,97
 328 399 328 399 320.5 381 c 0,98,99
 301.738317757 335.971962617 301.738317757 335.971962617 282 327 c 256,100,101
 262.888268156 318.312849162 262.888268156 318.312849162 257.944134078 302.656424581 c 128,-1,102
 253 287 253 287 252 277.5 c 128,-1,103
 251 268 251 268 248.5 257.5 c 128,-1,104
 246 247 246 247 231.5 231.5 c 128,-1,105
 217 216 217 216 206 194 c 256,106,107
 195 172 195 172 182.5 156 c 128,-1,108
 170 140 170 140 164 122.5 c 128,-1,109
 158 105 158 105 153 89.5 c 128,-1,110
 148 74 148 74 143 59 c 0,111,112
 131.545454545 24.6363636364 131.545454545 24.6363636364 122 17 c 1,113,114
 112 11 112 11 100.5 6 c 128,-1,115
 89 1 89 1 81 9 c 1,116,117
 54.3333333333 2.33333333333 54.3333333333 2.33333333333 46.6666666667 13.1666666667 c 128,-1,118
 39 24 39 24 42.5 27.5 c 128,-1,119
 46 31 46 31 44 41 c 128,-1,120
 42 51 42 51 50 58.5 c 0,121,122
 66.7407407407 74.1944444444 66.7407407407 74.1944444444 73.3703703704 91.5972222222 c 128,-1,123
 80 109 80 109 87 118 c 128,-1,124
 94 127 94 127 100 136.5 c 128,-1,125
 106 146 106 146 111.5 156.5 c 0,126,127
 122.789473684 178.052631579 122.789473684 178.052631579 130.394736842 188.026315789 c 0,128,129
 155.109395109 220.437580438 155.109395109 220.437580438 157.054697555 228.218790219 c 128,-1,130
 159 236 159 236 162.5 243 c 2,131,-1
 170 258 l 2,132,133
 180.666666667 279.333333333 180.666666667 279.333333333 182 286 c 256,134,135
 184.139534884 296.697674419 184.139534884 296.697674419 194.569767442 314.348837209 c 2,136,-1
 211.5 343 l 2,137,138
 218 354 218 354 224.5 365 c 128,-1,139
 231 376 231 376 240 397.5 c 128,-1,140
 249 419 249 419 263 436 c 0,141,142
 278 453 278 453 282.5 473 c 128,-1,143
 287 493 287 493 295 504 c 256,144,145
 312.846153846 528.538461538 312.846153846 528.538461538 315.923076923 537.769230769 c 128,-1,146
 319 547 319 547 324 556.5 c 128,-1,147
 329 566 329 566 335.5 578 c 0,148,149
 350.210526316 605.157894737 350.210526316 605.157894737 357 621 c 1,150,151
 365 635 365 635 370.5 643 c 128,-1,152
 376 651 376 651 385.5 657 c 128,-1,153
 395 663 395 663 399.5 670 c 128,-1,154
 404 677 404 677 407.5 684 c 128,-1,155
 411 691 411 691 414 698 c 128,-1,156
 417 705 417 705 424.5 711 c 128,-1,157
 432 717 432 717 438.5 727.5 c 128,-1,158
 445 738 445 738 451 736.5 c 128,-1,159
 457 735 457 735 458 735 c 0,160,161
 465 745 465 745 477.476190476 737.452380952 c 128,-1,162
 489.952380952 729.904761905 489.952380952 729.904761905 483 716 c 1,83,84
449 309 m 1,163,164
 456.804878049 283.634146341 456.804878049 283.634146341 452 250 c 1,165,166
 463 239 463 239 457.5 222 c 0,167,168
 451.01980198 201.97029703 451.01980198 201.97029703 461 187 c 256,169,170
 463 184 463 184 470.5 188.5 c 128,-1,171
 478 193 478 193 486 191 c 1,172,-1
 500.5 191 l 2,173,174
 506 191 506 191 506.5 183.5 c 128,-1,175
 507 176 507 176 505 165 c 128,-1,176
 503 154 503 154 502.5 145.5 c 0,177,178
 501.8125 133.8125 501.8125 133.8125 493.90625 125.40625 c 128,-1,179
 486 117 486 117 481 109.5 c 128,-1,180
 476 102 476 102 469.5 101 c 0,181,182
 449.161290323 97.8709677419 449.161290323 97.8709677419 439 99 c 1,183,184
 436.161290323 86.2258064516 436.161290323 86.2258064516 434.080645161 53.1129032258 c 128,-1,185
 432 20 432 20 434.5 10 c 128,-1,186
 437 0 437 0 432.5 -5 c 128,-1,187
 428 -10 428 -10 423.5 -9 c 128,-1,188
 419 -8 419 -8 414.5 -10 c 128,-1,189
 410 -12 410 -12 401.5 -12 c 0,190,191
 386 -12 386 -12 381.5 3 c 0,192,193
 380 8 380 8 375 10 c 256,194,195
 370 12 370 12 369.5 28 c 128,-1,196
 369 44 369 44 364 59.5 c 128,-1,197
 359 75 359 75 361.5 80 c 128,-1,198
 364 85 364 85 359.5 90 c 128,-1,199
 355 95 355 95 350.5 101.5 c 128,-1,200
 346 108 346 108 341 103.5 c 128,-1,201
 336 99 336 99 328.5 99 c 128,-1,202
 321 99 321 99 317 100.5 c 128,-1,203
 313 102 313 102 308 101 c 128,-1,204
 303 100 303 100 297 100 c 0,205,206
 258.615384615 100 258.615384615 100 275 171 c 0,207,208
 278 184 278 184 284.5 201 c 128,-1,209
 291 218 291 218 307 238.5 c 128,-1,210
 323 259 323 259 333.5 279.5 c 128,-1,211
 344 300 344 300 353 320.5 c 128,-1,212
 362 341 362 341 372 346 c 256,213,214
 382 351 382 351 399.5 357.5 c 128,-1,215
 417 364 417 364 434 356 c 1,216,217
 455.457831325 347.746987952 455.457831325 347.746987952 449 309 c 1,163,164
338 166 m 1,218,219
 343.513513514 156.810810811 343.513513514 156.810810811 361.756756757 163.905405405 c 128,-1,220
 380 171 380 171 380 176 c 128,-1,221
 380 181 380 181 378 190 c 128,-1,222
 376 199 376 199 378.5 209.5 c 128,-1,223
 381 220 381 220 377.5 221.5 c 128,-1,224
 374 223 374 223 371.5 220 c 128,-1,225
 369 217 369 217 364.5 215 c 128,-1,226
 360 213 360 213 360 210 c 0,227,228
 360 206.166666667 360 206.166666667 349 196.083333333 c 0,229,230
 327.565217391 176.434782609 327.565217391 176.434782609 338 166 c 1,218,219
EndSplineSet
EndChar

StartChar: threesuperior
Encoding: 179 179 16
Width: 229
Flags: HW
LayerCount: 2
Fore
SplineSet
197 588 m 1,0,1
 183.333333333 574.333333333 183.333333333 574.333333333 174 561 c 1,2,-1
 188.5 546.5 l 2,3,4
 195 540 195 540 196.5 532.5 c 128,-1,5
 198 525 198 525 203.5 522 c 128,-1,6
 209 519 209 519 209 506 c 128,-1,7
 209 493 209 493 205.5 488 c 128,-1,8
 202 483 202 483 203.5 472 c 128,-1,9
 205 461 205 461 201 453.5 c 128,-1,10
 197 446 197 446 190.5 436.5 c 128,-1,11
 184 427 184 427 177 421.5 c 128,-1,12
 170 416 170 416 159.5 406.5 c 128,-1,13
 149 397 149 397 135 384.5 c 128,-1,14
 121 372 121 372 107.5 374.5 c 128,-1,15
 94 377 94 377 89.5 382.5 c 128,-1,16
 85 388 85 388 70.5 388 c 0,17,18
 42.4285714286 388 42.4285714286 388 26 411 c 1,19,20
 3.375 440.4125 3.375 440.4125 22.1875 461.70625 c 128,-1,21
 41 483 41 483 54 466 c 0,22,23
 56 463 56 463 63 458 c 128,-1,24
 70 453 70 453 76.5 455 c 128,-1,25
 83 457 83 457 89.5 455 c 128,-1,26
 96 453 96 453 101.5 457.5 c 128,-1,27
 107 462 107 462 114 472 c 128,-1,28
 121 482 121 482 116 488.5 c 128,-1,29
 111 495 111 495 110 498.5 c 128,-1,30
 109 502 109 502 101 504 c 256,31,32
 93 506 93 506 90.5 504.5 c 128,-1,33
 88 503 88 503 86 505 c 256,34,35
 84 507 84 507 84.5 511.5 c 128,-1,36
 85 516 85 516 83 522.5 c 128,-1,37
 81 529 81 529 78.5 533.5 c 128,-1,38
 76 538 76 538 78 542.5 c 128,-1,39
 80 547 80 547 91.5 557.5 c 128,-1,40
 103 568 103 568 112.5 574.5 c 128,-1,41
 122 581 122 581 130.5 590 c 128,-1,42
 139 599 139 599 137 615 c 256,43,44
 135 631 135 631 126.5 634.5 c 128,-1,45
 118 638 118 638 109 633.5 c 128,-1,46
 100 629 100 629 97 620 c 128,-1,47
 94 611 94 611 89 609 c 0,48,49
 85 608 85 608 74.5 608 c 2,50,-1
 52.5 608 l 2,51,52
 8.66666666667 608 8.66666666667 608 6 616 c 0,53,54
 4.46153846154 620.615384615 4.46153846154 620.615384615 6.23076923077 626.807692308 c 128,-1,55
 8 633 8 633 5.5 636.5 c 128,-1,56
 3 640 3 640 6 644.5 c 128,-1,57
 9 649 9 649 12 659 c 128,-1,58
 15 669 15 669 23 675.5 c 128,-1,59
 31 682 31 682 35 695 c 256,60,61
 39 708 39 708 42.5 713.5 c 128,-1,62
 46 719 46 719 54.5 722.5 c 128,-1,63
 63 726 63 726 72 730 c 128,-1,64
 81 734 81 734 90 737.5 c 0,65,66
 111.375 745.8125 111.375 745.8125 119.6875 741.40625 c 128,-1,67
 128 737 128 737 137.5 740.5 c 128,-1,68
 147 744 147 744 153.5 739 c 128,-1,69
 160 734 160 734 167 729.5 c 128,-1,70
 174 725 174 725 181 719.5 c 0,71,72
 198.469565217 705.773913043 198.469565217 705.773913043 199.734782609 694.886956522 c 128,-1,73
 201 684 201 684 204 677 c 128,-1,74
 207 670 207 670 209.5 663.5 c 0,75,76
 215.939393939 646.757575758 215.939393939 646.757575758 211.96969697 632.378787879 c 128,-1,77
 208 618 208 618 206 604 c 128,-1,78
 204 590 204 590 197 588 c 1,0,1
EndSplineSet
EndChar

StartChar: twosuperior
Encoding: 178 178 17
Width: 238
Flags: HW
LayerCount: 2
Fore
SplineSet
104 460 m 1,0,1
 117 463 117 463 130 467 c 128,-1,2
 143 471 143 471 160 470.5 c 0,3,4
 196.865168539 469.415730337 196.865168539 469.415730337 201.93258427 460.707865169 c 128,-1,5
 207 452 207 452 207.5 441 c 128,-1,6
 208 430 208 430 207 418.5 c 0,7,8
 203.565217391 379 203.565217391 379 183 379 c 0,9,10
 176 379 176 379 167.5 380.5 c 0,11,12
 128.132930514 387.447129909 128.132930514 387.447129909 89.5 370 c 0,13,14
 67.018018018 359.846846847 67.018018018 359.846846847 40.5 375 c 0,15,16
 35.5263157895 377.842105263 35.5263157895 377.842105263 32.2631578947 381.921052632 c 128,-1,17
 29 386 29 386 21.5 389.5 c 128,-1,18
 14 393 14 393 15 405.5 c 128,-1,19
 16 418 16 418 14 433.5 c 128,-1,20
 12 449 12 449 16 455 c 128,-1,21
 20 461 20 461 28.5 466 c 128,-1,22
 37 471 37 471 39 475 c 128,-1,23
 41 479 41 479 49.5 480.5 c 128,-1,24
 58 482 58 482 61.5 487.5 c 128,-1,25
 65 493 65 493 68 499.5 c 128,-1,26
 71 506 71 506 73.5 511.5 c 128,-1,27
 76 517 76 517 81 519 c 256,28,29
 86.5405405405 521.216216216 86.5405405405 521.216216216 90.2702702703 529.608108108 c 128,-1,30
 94 538 94 538 96 541.5 c 128,-1,31
 98 545 98 545 103 545.5 c 128,-1,32
 108 546 108 546 113.5 554.5 c 128,-1,33
 119 563 119 563 123.5 574 c 0,34,35
 134.71641791 601.417910448 134.71641791 601.417910448 132.858208955 610.208955224 c 0,36,37
 128.44216891 631.100903712 128.44216891 631.100903712 109 623 c 0,38,39
 101.571428571 619.285714286 101.571428571 619.285714286 99.7857142857 612.142857143 c 128,-1,40
 98 605 98 605 96.5 602 c 128,-1,41
 95 599 95 599 86 595.5 c 128,-1,42
 77 592 77 592 71.5 589.5 c 128,-1,43
 66 587 66 587 58 591.5 c 128,-1,44
 50 596 50 596 43 596 c 2,45,-1
 29.5 596 l 2,46,47
 4.66666666667 596 4.66666666667 596 11.5 616.5 c 0,48,49
 14 624 14 624 12 632 c 256,50,51
 10 640 10 640 18.5 651.5 c 128,-1,52
 27 663 27 663 29 673.5 c 128,-1,53
 31 684 31 684 40 698 c 128,-1,54
 49 712 49 712 60.5 716 c 128,-1,55
 72 720 72 720 81.5 724 c 128,-1,56
 91 728 91 728 100.5 731.5 c 0,57,58
 122.881355932 739.745762712 122.881355932 739.745762712 133 733 c 256,59,60
 141.823529412 727.117647059 141.823529412 727.117647059 148.411764706 728.058823529 c 0,61,62
 158.92 729.56 158.92 729.56 165.96 724.28 c 128,-1,63
 173 719 173 719 179.5 717 c 128,-1,64
 186 715 186 715 187.5 707.5 c 128,-1,65
 189 700 189 700 192.5 699.5 c 128,-1,66
 196 699 196 699 199 692.5 c 128,-1,67
 202 686 202 686 207.5 683.5 c 128,-1,68
 213 681 213 681 213.5 673 c 128,-1,69
 214 665 214 665 219 652.5 c 128,-1,70
 224 640 224 640 221.5 628.5 c 128,-1,71
 219 617 219 617 216.5 598 c 128,-1,72
 214 579 214 579 197 559 c 1,73,74
 180 542 180 542 172 530 c 128,-1,75
 164 518 164 518 151 516 c 1,76,77
 131.25 496.25 131.25 496.25 125.125 483.125 c 0,78,79
 117.47826087 466.739130435 117.47826087 466.739130435 104 460 c 1,0,1
EndSplineSet
EndChar

StartChar: brokenbar
Encoding: 166 166 18
Width: 160
Flags: HW
LayerCount: 2
Fore
SplineSet
43 736 m 0,0,1
 44 741 44 741 53.5 748.5 c 128,-1,2
 63 756 63 756 83.5 755 c 128,-1,3
 104 754 104 754 111 745 c 128,-1,4
 118 736 118 736 122 733 c 128,-1,5
 126 730 126 730 128 727 c 0,6,7
 132.965517241 719.551724138 132.965517241 719.551724138 128 703 c 256,8,9
 124.25 690.5 124.25 690.5 127.625 683.75 c 0,10,11
 133.6 671.8 133.6 671.8 131.8 647.4 c 128,-1,12
 130 623 130 623 130 607 c 128,-1,13
 130 591 130 591 132 574.5 c 128,-1,14
 134 558 134 558 133 546 c 128,-1,15
 132 534 132 534 122 516 c 128,-1,16
 112 498 112 498 112 488.5 c 128,-1,17
 112 479 112 479 114.5 471 c 128,-1,18
 117 463 117 463 120.5 454.5 c 0,19,20
 132.132686084 426.249190939 132.132686084 426.249190939 106.5 415.5 c 0,21,22
 71.0066100094 400.615675165 71.0066100094 400.615675165 41.5 423 c 0,23,24
 27 434 27 434 27 456 c 256,25,26
 27 478 27 478 31 502.5 c 128,-1,27
 35 527 35 527 39 552 c 0,28,29
 51.2204724409 628.377952756 51.2204724409 628.377952756 38.5 683.5 c 0,30,31
 35.2857142857 697.428571429 35.2857142857 697.428571429 43 736 c 0,0,1
36 194 m 256,32,33
 35 206 35 206 33 222.5 c 128,-1,34
 31 239 31 239 31 255 c 0,35,36
 31 292.75 31 292.75 45 305 c 1,37,38
 65.1951219512 320.146341463 65.1951219512 320.146341463 79.0975609756 321.073170732 c 128,-1,39
 93 322 93 322 98 318 c 0,40,41
 120 304 120 304 123 290 c 128,-1,42
 126 276 126 276 124.5 263 c 128,-1,43
 123 250 123 250 121 235 c 0,44,45
 115.296296296 192.222222222 115.296296296 192.222222222 119.648148148 163.111111111 c 128,-1,46
 124 134 124 134 127.5 111.5 c 128,-1,47
 131 89 131 89 130.5 76.5 c 128,-1,48
 130 64 130 64 127 50.5 c 128,-1,49
 124 37 124 37 118 23.5 c 0,50,51
 103.796610169 -8.45762711864 103.796610169 -8.45762711864 81.8983050847 -11.2288135593 c 128,-1,52
 60 -14 60 -14 47.5 -4 c 128,-1,53
 35 6 35 6 30 23.5 c 0,54,55
 18.8431372549 62.5490196078 18.8431372549 62.5490196078 35 109 c 1,56,57
 46.6666666667 145.666666667 46.6666666667 145.666666667 44.3333333333 157.333333333 c 128,-1,58
 42 169 42 169 39.5 175.5 c 128,-1,59
 37 182 37 182 36 194 c 256,32,33
EndSplineSet
EndChar

StartChar: minus
Encoding: 8722 8722 19
Width: 399
Flags: HW
LayerCount: 2
Fore
SplineSet
14 309 m 1,0,1
 -4.66666666667 327.666666667 -4.66666666667 327.666666667 11.5 360 c 0,2,3
 31.6842105263 400.368421053 31.6842105263 400.368421053 80 389 c 0,4,5
 114 381 114 381 137.5 385.5 c 128,-1,6
 161 390 161 390 168 386 c 128,-1,7
 175 382 175 382 180.5 383 c 128,-1,8
 186 384 186 384 194 386 c 0,9,10
 218 392 218 392 246 392 c 256,11,12
 265 392 265 392 283.5 393.5 c 128,-1,13
 302 395 302 395 318.5 396 c 0,14,15
 356.78 398.32 356.78 398.32 371 392 c 1,16,17
 390.525423729 379.796610169 390.525423729 379.796610169 392.762711864 361.898305085 c 0,18,19
 397.046511628 327.627906977 397.046511628 327.627906977 375.023255814 314.813953488 c 128,-1,20
 353 302 353 302 338.5 303.5 c 128,-1,21
 324 305 324 305 312.5 311 c 128,-1,22
 301 317 301 317 292.5 324 c 128,-1,23
 284 331 284 331 278.5 331 c 128,-1,24
 273 331 273 331 269 328 c 128,-1,25
 265 325 265 325 259.5 321 c 0,26,27
 247.125 312 247.125 312 228.0625 312 c 128,-1,28
 209 312 209 312 203 310.5 c 128,-1,29
 197 309 197 309 192 306.5 c 0,30,31
 181 301 181 301 164 301 c 256,32,33
 146.25 301 146.25 301 133.125 301 c 0,34,35
 115 301 115 301 87 302.5 c 128,-1,36
 59 304 59 304 42.5 302 c 128,-1,37
 26 300 26 300 14 309 c 1,0,1
EndSplineSet
EndChar

StartChar: multiply
Encoding: 215 215 20
Width: 370
Flags: HW
LayerCount: 2
Fore
SplineSet
302.5 518 m 128,-1,1
 311 515 311 515 319 507.5 c 128,-1,2
 327 500 327 500 332.5 490.5 c 0,3,4
 345.800796813 467.525896414 345.800796813 467.525896414 332 452 c 1,5,6
 330 442 330 442 319 433 c 128,-1,7
 308 424 308 424 299 416 c 128,-1,8
 290 408 290 408 287.5 404 c 128,-1,9
 285 400 285 400 283 397 c 0,10,11
 278.428571429 390.142857143 278.428571429 390.142857143 269.714285714 387.571428571 c 0,12,13
 256.43537415 383.653061224 256.43537415 383.653061224 246 368 c 1,14,15
 259 350 259 350 271.5 339 c 128,-1,16
 284 328 284 328 292 321 c 128,-1,17
 300 314 300 314 303 310.5 c 128,-1,18
 306 307 306 307 308.5 303.5 c 0,19,20
 314.902439024 294.536585366 314.902439024 294.536585366 324.451219512 290.768292683 c 128,-1,21
 334 287 334 287 342 281 c 128,-1,22
 350 275 350 275 354.5 267 c 0,23,24
 364.903225806 248.505376344 364.903225806 248.505376344 349 222 c 256,25,26
 332.588235294 194.647058824 332.588235294 194.647058824 302 197 c 0,27,28
 278.166666667 198.833333333 278.166666667 198.833333333 257 220 c 1,29,30
 247 232.5 247 232.5 242.5 234.75 c 0,31,32
 235.5 238.25 235.5 238.25 230.75 250.625 c 0,33,34
 224.240352811 267.584343991 224.240352811 267.584343991 186 297 c 1,35,36
 181 286 181 286 177.5 277.5 c 128,-1,37
 174 269 174 269 169 267 c 256,38,39
 163.259259259 264.703703704 163.259259259 264.703703704 159.62962963 258.351851852 c 0,40,41
 152.129032258 245.225806452 152.129032258 245.225806452 143.564516129 242.612903226 c 128,-1,42
 135 240 135 240 127 226.5 c 128,-1,43
 119 213 119 213 107.5 208.5 c 128,-1,44
 96 204 96 204 89.5 202 c 128,-1,45
 83 200 83 200 78 195 c 1,46,47
 64 200 64 200 48 208 c 128,-1,48
 32 216 32 216 29 229.5 c 128,-1,49
 26 243 26 243 35.5 260 c 128,-1,50
 45 277 45 277 54 285 c 1,51,52
 59 288 59 288 66.5 291 c 128,-1,53
 74 294 74 294 81 297.5 c 0,54,55
 97.6 305.8 97.6 305.8 99.8 313.4 c 128,-1,56
 102 321 102 321 104 323 c 128,-1,57
 106 325 106 325 110 327 c 0,58,59
 122 333 122 333 131 342 c 1,60,61
 90.4318181818 396.090909091 90.4318181818 396.090909091 34.5 435 c 0,62,63
 23 443 23 443 17 449.5 c 128,-1,64
 11 456 11 456 10 475 c 128,-1,65
 9 494 9 494 28 509 c 256,66,67
 67.1176470588 539.882352941 67.1176470588 539.882352941 108 499 c 0,68,69
 115 491 115 491 124.5 479 c 128,-1,70
 134 467 134 467 144.5 454 c 128,-1,71
 155 441 155 441 165.5 427.5 c 128,-1,72
 176 414 176 414 184 404 c 1,73,74
 212 433 212 433 234.5 459.5 c 0,75,76
 270.517110266 501.920152091 270.517110266 501.920152091 282.258555133 511.460076046 c 128,-1,0
 294 521 294 521 302.5 518 c 128,-1,1
EndSplineSet
EndChar

StartChar: exclam
Encoding: 33 33 22
Width: 207
Flags: HW
LayerCount: 2
Fore
SplineSet
160 308 m 258,0,-1
 158 237 l 1,1,2
 158 167.555555556 158 167.555555556 129 145 c 1,3,4
 110 132 110 132 95.5 134 c 128,-1,5
 81 136 81 136 73 145 c 256,6,7
 65 154 65 154 64.5 166 c 128,-1,8
 64 178 64 178 59.5 200.5 c 128,-1,9
 55 223 55 223 48.5 245.5 c 128,-1,10
 42 268 42 268 44 294 c 256,11,12
 46 320 46 320 46.5 343 c 128,-1,13
 47 366 47 366 38 377 c 256,14,15
 26 391.666666667 26 391.666666667 26 411 c 256,16,17
 26 422.75 26 422.75 29.5 432.375 c 0,18,19
 39 458.5 39 458.5 39 478.25 c 128,-1,20
 39 498 39 498 38 507 c 128,-1,21
 37 516 37 516 35.5 524.5 c 128,-1,22
 34 533 34 533 32 550.5 c 128,-1,23
 30 568 30 568 32 590.5 c 128,-1,24
 34 613 34 613 32 636 c 256,25,26
 30 659 30 659 29.5 673 c 128,-1,27
 29 687 29 687 36 706.5 c 128,-1,28
 43 726 43 726 47.5 732 c 128,-1,29
 52 738 52 738 63 743.5 c 128,-1,30
 74 749 74 749 78 751.5 c 128,-1,31
 82 754 82 754 89 753 c 128,-1,32
 96 752 96 752 104 743.5 c 128,-1,33
 112 735 112 735 123 730 c 256,34,35
 134 725 134 725 148.5 718 c 128,-1,36
 163 711 163 711 165 695.5 c 128,-1,37
 167 680 167 680 168.5 677 c 128,-1,38
 170 674 170 674 171.5 672 c 0,39,40
 174.457142857 668.057142857 174.457142857 668.057142857 176.228571429 645.528571429 c 128,-1,41
 178 623 178 623 172.5 600.5 c 128,-1,42
 167 578 167 578 166.5 563 c 128,-1,43
 166 548 166 548 161 532.5 c 128,-1,44
 156 517 156 517 157.5 500.5 c 128,-1,45
 159 484 159 484 158 476 c 128,-1,46
 157 468 157 468 155.5 461.5 c 128,-1,47
 154 455 154 455 154 448 c 128,-1,48
 154 441 154 441 157.5 426.5 c 128,-1,49
 161 412 161 412 160.5 400 c 128,-1,50
 160 388 160 388 161.5 374.5 c 128,-1,51
 163 361 163 361 161.5 347.5 c 128,-1,52
 160 334 160 334 160 308 c 258,0,-1
32.5 33 m 128,-1,54
 34 41 34 41 49 54 c 128,-1,55
 64 67 64 67 86 79 c 128,-1,56
 108 91 108 91 146 86 c 0,57,58
 163.682119205 84.2317880795 163.682119205 84.2317880795 174.5 65 c 0,59,60
 194.666666667 29.1481481481 194.666666667 29.1481481481 155 0.5 c 0,61,62
 137 -12.5 137 -12.5 123 -14.75 c 128,-1,63
 109 -17 109 -17 103.5 -23.5 c 128,-1,64
 98 -30 98 -30 86 -27 c 256,65,66
 74 -24 74 -24 70 -14.5 c 128,-1,67
 66 -5 66 -5 58 -2 c 128,-1,68
 50 1 50 1 43.5 6 c 128,-1,69
 37 11 37 11 34 18 c 128,-1,53
 31 25 31 25 32.5 33 c 128,-1,54
EndSplineSet
EndChar

StartChar: quotedbl
Encoding: 34 34 23
Width: 283
Flags: HW
LayerCount: 2
Fore
SplineSet
83 729 m 0,0,1
 127.094339623 729 127.094339623 729 122 661.5 c 0,2,3
 119.464684015 627.907063197 119.464684015 627.907063197 110.732342007 577.453531599 c 128,-1,4
 102 527 102 527 103.5 514.5 c 128,-1,5
 105 502 105 502 105.5 489 c 128,-1,6
 106 476 106 476 103 464.5 c 0,7,8
 95.8260869565 437 95.8260869565 437 68 437 c 0,9,10
 48.1923076923 437 48.1923076923 437 35.5 467 c 0,11,12
 25 491.818181818 25 491.818181818 24.5 530.909090909 c 128,-1,13
 24 570 24 570 26 597 c 128,-1,14
 28 624 28 624 21.5 640.5 c 128,-1,15
 15 657 15 657 15 669 c 128,-1,16
 15 681 15 681 17 691.5 c 0,17,18
 21.6111111111 715.708333333 21.6111111111 715.708333333 29.3055555556 722.354166667 c 128,-1,19
 37 729 37 729 43.5 733 c 128,-1,20
 50 737 50 737 63 733 c 128,-1,21
 76 729 76 729 83 729 c 0,0,1
172 508 m 1,22,-1
 167 582.5 l 1,23,-1
 167 600.5 l 2,24,25
 167 609 167 609 164 617 c 128,-1,26
 161 625 161 625 163 633 c 128,-1,27
 165 641 165 641 163 646 c 256,28,29
 161 651 161 651 164 656.5 c 128,-1,30
 167 662 167 662 165 668 c 128,-1,31
 163 674 163 674 166.5 676.5 c 128,-1,32
 170 679 170 679 166.5 686.5 c 0,33,34
 161.264957265 697.717948718 161.264957265 697.717948718 170.632478632 708.858974359 c 128,-1,35
 180 720 180 720 183 725 c 128,-1,36
 186 730 186 730 191.5 727.5 c 128,-1,37
 197 725 197 725 202.5 727 c 128,-1,38
 208 729 208 729 214 731 c 0,39,40
 231.571428571 736.857142857 231.571428571 736.857142857 238 733 c 1,41,42
 244 728 244 728 244 721 c 1,43,44
 251 722 251 722 256 717.5 c 128,-1,45
 261 713 261 713 264.5 694 c 0,46,47
 269.736 665.576 269.736 665.576 261.368 635.288 c 128,-1,48
 253 605 253 605 254 585.5 c 128,-1,49
 255 566 255 566 250 549 c 128,-1,50
 245 532 245 532 244.5 517.5 c 128,-1,51
 244 503 244 503 243.5 488.5 c 0,52,53
 241.332 425.628 241.332 425.628 195.5 444.5 c 0,54,55
 176.062015504 452.503875969 176.062015504 452.503875969 174 469 c 0,56,57
 172 483 172 483 172 508 c 1,22,-1
EndSplineSet
EndChar

StartChar: numbersign
Encoding: 35 35 24
Width: 600
Flags: HW
LayerCount: 2
Fore
SplineSet
109.5 325.5 m 128,-1,1
 111 334 111 334 122 337.5 c 128,-1,2
 133 341 133 341 134.5 362 c 128,-1,3
 136 383 136 383 131 401 c 1,4,5
 112 401 112 401 92 400.5 c 128,-1,6
 72 400 72 400 56 403.5 c 0,7,8
 18.6355685131 411.673469388 18.6355685131 411.673469388 22 447 c 1,9,10
 24.2015810277 493.233201581 24.2015810277 493.233201581 75 489 c 0,11,12
 87 488 87 488 106 488 c 128,-1,13
 125 488 125 488 145 494 c 1,14,15
 181.204545455 590.545454545 181.204545455 590.545454545 177.102272727 636.772727273 c 128,-1,16
 173 683 173 683 190 714 c 128,-1,17
 207 745 207 745 236 745 c 0,18,19
 262.523809524 745 262.523809524 745 273 701 c 1,20,21
 284.004366812 663.585152838 284.004366812 663.585152838 272.002183406 621.792576419 c 0,22,23
 240.846689895 513.306620209 240.846689895 513.306620209 247 501 c 0,24,25
 249.318181818 497.522727273 249.318181818 497.522727273 273.659090909 499.261363636 c 0,26,27
 327.12 503.08 327.12 503.08 339 502 c 0,28,29
 382 495 382 495 388.5 502 c 128,-1,30
 395 509 395 509 399.5 528.5 c 128,-1,31
 404 548 404 548 407 570.5 c 0,32,33
 412 608 412 608 412 642 c 1,34,35
 410 659 410 659 411.5 671.5 c 128,-1,36
 413 684 413 684 421.5 689.5 c 128,-1,37
 430 695 430 695 434.5 702.5 c 128,-1,38
 439 710 439 710 450 720 c 0,39,40
 478.387096774 745.806451613 478.387096774 745.806451613 494 738 c 256,41,42
 502 734 502 734 503.5 725 c 128,-1,43
 505 716 505 716 507.5 708 c 0,44,45
 516.31147541 679.803278689 516.31147541 679.803278689 502 648 c 256,46,47
 493 628 493 628 490 605 c 128,-1,48
 487 582 487 582 483.5 569 c 128,-1,49
 480 556 480 556 478.5 537 c 128,-1,50
 477 518 477 518 479 511.5 c 0,51,52
 481.73015873 502.626984127 481.73015873 502.626984127 508 500 c 1,53,54
 541.142857143 510.357142857 541.142857143 510.357142857 545 520 c 1,55,56
 566.347107438 529.487603306 566.347107438 529.487603306 588 510 c 1,57,58
 596 500 596 500 600.5 495.5 c 128,-1,59
 605 491 605 491 604.5 477.5 c 128,-1,60
 604 464 604 464 596.5 457 c 128,-1,61
 589 450 589 450 575.5 438.5 c 0,62,63
 552.276527331 418.717041801 552.276527331 418.717041801 528 426 c 0,64,65
 523 428 523 428 513 428 c 128,-1,66
 503 428 503 428 491.5 427 c 0,67,68
 466.2 424.8 466.2 424.8 455 422 c 1,69,70
 444 393 444 393 441 369 c 128,-1,71
 438 345 438 345 431 328 c 256,72,73
 424 311 424 311 429 306.5 c 128,-1,74
 434 302 434 302 446.5 302 c 128,-1,75
 459 302 459 302 472.5 304 c 128,-1,76
 486 306 486 306 499.5 307.5 c 0,77,78
 535.170731707 311.463414634 535.170731707 311.463414634 545.585365854 303.731707317 c 128,-1,79
 556 296 556 296 556 276 c 128,-1,80
 556 256 556 256 544.5 245 c 128,-1,81
 533 234 533 234 517 229.5 c 128,-1,82
 501 225 501 225 475 225 c 2,83,-1
 438 225 l 2,84,85
 416.25 225 416.25 225 412.125 219.5 c 128,-1,86
 408 214 408 214 402 179.5 c 128,-1,87
 396 145 396 145 383.5 108 c 128,-1,88
 371 71 371 71 367 52.5 c 128,-1,89
 363 34 363 34 358.5 21 c 128,-1,90
 354 8 354 8 347.5 -1.5 c 0,91,92
 332.434782609 -23.5183946488 332.434782609 -23.5183946488 311.717391304 -17.2591973244 c 0,93,94
 265.450975988 -3.28105602744 265.450975988 -3.28105602744 299 75 c 1,95,96
 339.008403361 163.907563025 339.008403361 163.907563025 334 219 c 0,97,98
 332.111111111 236 332.111111111 236 273.5 236 c 0,99,100
 222 236 222 236 204 230.5 c 128,-1,101
 186 225 186 225 177.5 209 c 128,-1,102
 169 193 169 193 172 182.5 c 128,-1,103
 175 172 175 172 169 148 c 128,-1,104
 163 124 163 124 154.5 110.5 c 128,-1,105
 146 97 146 97 141.5 83.5 c 128,-1,106
 137 70 137 70 132.5 55.5 c 128,-1,107
 128 41 128 41 124 27.5 c 128,-1,108
 120 14 120 14 112 2.5 c 0,109,110
 91.2 -27.4 91.2 -27.4 63 -18 c 0,111,112
 37.8620689655 -9.62068965517 37.8620689655 -9.62068965517 34 29 c 0,113,114
 31.9152542373 49.8474576271 31.9152542373 49.8474576271 39.4576271186 63.4237288136 c 128,-1,115
 47 77 47 77 49 91 c 256,116,117
 51 105 51 105 55.5 117 c 128,-1,118
 60 129 60 129 63.5 143.5 c 0,119,120
 71.8461538462 178.076923077 71.8461538462 178.076923077 77.4230769231 191.038461538 c 0,121,122
 85.9873217116 210.942947702 85.9873217116 210.942947702 90 229 c 1,123,124
 66 224 66 224 45 221 c 128,-1,125
 24 218 24 218 13.5 224.5 c 128,-1,126
 3 231 3 231 1 241.5 c 128,-1,127
 -1 252 -1 252 1.5 263 c 0,128,129
 7.52459016393 289.508196721 7.52459016393 289.508196721 27 296 c 1,130,131
 60.7272727273 309.490909091 60.7272727273 309.490909091 104 303 c 1,132,0
 108 317 108 317 109.5 325.5 c 128,-1,1
191 301 m 1,133,134
 219.139534884 316.348837209 219.139534884 316.348837209 246 301 c 1,135,136
 263 289 263 289 278 290 c 128,-1,137
 293 291 293 291 311.5 299 c 128,-1,138
 330 307 330 307 345 307 c 1,139,-1
 373 411 l 1,140,141
 357 423 357 423 340 423 c 0,142,143
 293.5 423 293.5 423 247 423 c 1,144,145
 226.088607595 421.506329114 226.088607595 421.506329114 214 407 c 0,146,147
 209.125 399.6875 209.125 399.6875 201.0625 355.34375 c 128,-1,148
 193 311 193 311 191 301 c 1,133,134
EndSplineSet
EndChar

StartChar: dollar
Encoding: 36 36 25
Width: 370
Flags: HW
LayerCount: 2
Fore
SplineSet
152 670 m 1,0,1
 154 686 154 686 154 696 c 1,2,3
 132.48 739.04 132.48 739.04 169 749 c 1,4,5
 190.760869565 752.956521739 190.760869565 752.956521739 212.380434783 742.97826087 c 0,6,7
 252.107142857 724.642857143 252.107142857 724.642857143 258 705 c 0,8,9
 260 697 260 697 258 685 c 128,-1,10
 256 673 256 673 254 659 c 1,11,12
 274 650 274 650 287.5 649.5 c 128,-1,13
 301 649 301 649 311.5 644.5 c 128,-1,14
 322 640 322 640 327 635 c 128,-1,15
 332 630 332 630 335 624 c 128,-1,16
 338 618 338 618 340.5 611.5 c 128,-1,17
 343 605 343 605 347.5 598.5 c 128,-1,18
 352 592 352 592 353 585.5 c 128,-1,19
 354 579 354 579 354 573 c 2,20,-1
 354 561.5 l 2,21,22
 354 556 354 556 357.5 548 c 128,-1,23
 361 540 361 540 358.5 524 c 128,-1,24
 356 508 356 508 353 504 c 256,25,26
 343.129032258 490.838709677 343.129032258 490.838709677 322.564516129 488.919354839 c 128,-1,27
 302 487 302 487 298.5 481.5 c 128,-1,28
 295 476 295 476 297 471 c 1,29,30
 288 462 288 462 276 452 c 1,31,32
 248.424657534 457.01369863 248.424657534 457.01369863 241.212328767 462.006849315 c 0,33,34
 225.768844221 472.698492462 225.768844221 472.698492462 224 501 c 1,35,36
 217.580110497 536.309392265 217.580110497 536.309392265 191 541 c 1,37,38
 154.802197802 549.043956044 154.802197802 549.043956044 132 508 c 0,39,40
 129 501 129 501 125 487.5 c 128,-1,41
 121 474 121 474 130 458 c 128,-1,42
 139 442 139 442 142.5 435 c 128,-1,43
 146 428 146 428 149 423 c 0,44,45
 154.322580645 414.129032258 154.322580645 414.129032258 166.161290323 409.064516129 c 128,-1,46
 178 404 178 404 183.5 399 c 128,-1,47
 189 394 189 394 193.5 389.5 c 128,-1,48
 198 385 198 385 202.5 380.5 c 128,-1,49
 207 376 207 376 221.5 370 c 0,50,51
 266.674364896 351.307159353 266.674364896 351.307159353 275 323 c 1,52,53
 299 311 299 311 306 300 c 128,-1,54
 313 289 313 289 318.5 275 c 0,55,56
 330.361445783 244.807228916 330.361445783 244.807228916 318.5 185.5 c 0,57,58
 315 168 315 168 310 140.5 c 128,-1,59
 305 113 305 113 296.5 100 c 128,-1,60
 288 87 288 87 263 92 c 1,61,62
 253 85 253 85 242.5 74 c 128,-1,63
 232 63 232 63 218 56 c 1,64,65
 220 44 220 44 220 30 c 128,-1,66
 220 16 220 16 210.5 6.5 c 0,67,68
 188 -16 188 -16 172 -2 c 256,69,70
 164 5 164 5 162.5 11.5 c 128,-1,71
 161 18 161 18 160 35 c 2,72,-1
 159 48 l 1,73,74
 142 50 142 50 125.5 56 c 128,-1,75
 109 62 109 62 106.5 75.5 c 128,-1,76
 104 89 104 89 100.5 93.5 c 128,-1,77
 97 98 97 98 92 100.5 c 128,-1,78
 87 103 87 103 80.5 106 c 128,-1,79
 74 109 74 109 65.5 117 c 128,-1,80
 57 125 57 125 53 132.5 c 128,-1,81
 49 140 49 140 47.5 147.5 c 128,-1,82
 46 155 46 155 46 162.5 c 128,-1,83
 46 170 46 170 43 182.5 c 128,-1,84
 40 195 40 195 38 206 c 128,-1,85
 36 217 36 217 46.5 228 c 0,86,87
 69.7632508834 252.371024735 69.7632508834 252.371024735 88.3816254417 246.685512367 c 128,-1,88
 107 241 107 241 114.5 229.5 c 128,-1,89
 122 218 122 218 126.5 201.5 c 128,-1,90
 131 185 131 185 132.5 175.5 c 128,-1,91
 134 166 134 166 136 158.5 c 0,92,93
 140.186335404 142.801242236 140.186335404 142.801242236 161.093167702 140.900621118 c 128,-1,94
 182 139 182 139 194.5 145.5 c 128,-1,95
 207 152 207 152 208 184 c 256,96,97
 209 216 209 216 205 239 c 128,-1,98
 201 262 201 262 172 275 c 0,99,100
 152 283 152 283 148 290 c 128,-1,101
 144 297 144 297 140 300 c 128,-1,102
 136 303 136 303 124.5 305.5 c 128,-1,103
 113 308 113 308 107 313 c 128,-1,104
 101 318 101 318 96 324 c 0,105,106
 79.75 343.5 79.75 343.5 69.875 350.25 c 128,-1,107
 60 357 60 357 55 362 c 128,-1,108
 50 367 50 367 46.5 372 c 128,-1,109
 43 377 43 377 40 382 c 128,-1,110
 37 387 37 387 31 393 c 256,111,112
 15.8 408.2 15.8 408.2 12 469 c 0,113,114
 11 485 11 485 9.5 500.5 c 128,-1,115
 8 516 8 516 14 536.5 c 128,-1,116
 20 557 20 557 20.5 569.5 c 128,-1,117
 21 582 21 582 24.5 587 c 128,-1,118
 28 592 28 592 32.5 595.5 c 0,119,120
 46.8181818182 606.636363636 46.8181818182 606.636363636 51.9090909091 615.818181818 c 128,-1,121
 57 625 57 625 64.5 628 c 128,-1,122
 72 631 72 631 81.5 637.5 c 128,-1,123
 91 644 91 644 98 646.5 c 128,-1,124
 105 649 105 649 112.5 655.5 c 0,125,126
 129.230769231 670 129.230769231 670 152 670 c 1,0,1
EndSplineSet
EndChar

StartChar: percent
Encoding: 37 37 26
Width: 563
Flags: HW
LayerCount: 2
Fore
SplineSet
472 737 m 1,0,1
 487 733 487 733 500 718 c 128,-1,2
 513 703 513 703 514.5 681.5 c 128,-1,3
 516 660 516 660 509 648.5 c 128,-1,4
 502 637 502 637 492 629.5 c 128,-1,5
 482 622 482 622 473 616.5 c 128,-1,6
 464 611 464 611 461.5 604.5 c 128,-1,7
 459 598 459 598 460 591 c 128,-1,8
 461 584 461 584 461 576.5 c 0,9,10
 461 557 461 557 445 541 c 1,11,-1
 431.5 524.5 l 2,12,13
 425.578947368 517.263157895 425.578947368 517.263157895 421.789473684 510.631578947 c 128,-1,14
 418 504 418 504 410 496 c 0,15,16
 387.875 473.875 387.875 473.875 380.9375 457.4375 c 128,-1,17
 374 441 374 441 363 428.5 c 128,-1,18
 352 416 352 416 335.5 393.5 c 128,-1,19
 319 371 319 371 310 353.5 c 128,-1,20
 301 336 301 336 286.5 323.5 c 128,-1,21
 272 311 272 311 268.5 293.5 c 128,-1,22
 265 276 265 276 262.5 264 c 0,23,24
 256.309012876 234.283261803 256.309012876 234.283261803 232 212 c 1,25,26
 210.130434783 190.130434783 210.130434783 190.130434783 199 115 c 0,27,28
 187.747368421 36.2315789474 187.747368421 36.2315789474 148 -6 c 0,29,30
 132 -23 132 -23 111 -24.5 c 128,-1,31
 90 -26 90 -26 77 -18.5 c 128,-1,32
 64 -11 64 -11 59.5 2.5 c 0,33,34
 50.2222222222 30.3333333333 50.2222222222 30.3333333333 76 69 c 0,35,36
 83 80 83 80 84.5 88 c 128,-1,37
 86 96 86 96 95 105 c 128,-1,38
 104 114 104 114 109 116.5 c 128,-1,39
 114 119 114 119 116 131 c 128,-1,40
 118 143 118 143 128 153 c 128,-1,41
 138 163 138 163 142 181.5 c 128,-1,42
 146 200 146 200 155 210.5 c 128,-1,43
 164 221 164 221 169 236.5 c 128,-1,44
 174 252 174 252 181.5 258.5 c 128,-1,45
 189 265 189 265 197 278.5 c 128,-1,46
 205 292 205 292 207.5 297.5 c 128,-1,47
 210 303 210 303 212 307.5 c 0,48,49
 218.173913043 321.391304348 218.173913043 321.391304348 230.086956522 337.195652174 c 128,-1,50
 242 353 242 353 250 367.5 c 128,-1,51
 258 382 258 382 265 393 c 1,52,53
 279.440677966 424.288135593 279.440677966 424.288135593 287.720338983 435.144067797 c 128,-1,54
 296 446 296 446 307 458.5 c 128,-1,55
 318 471 318 471 330 486.5 c 0,56,57
 359.212121212 524.232323232 359.212121212 524.232323232 369.606060606 554.116161616 c 0,58,59
 381.453903214 588.180148357 381.453903214 588.180148357 416 678 c 1,60,61
 400.142857143 693.857142857 400.142857143 693.857142857 373 683 c 0,62,63
 363 680 363 680 350.5 674 c 128,-1,64
 338 668 338 668 326 662.5 c 0,65,66
 294.363636364 648 294.363636364 648 289.181818182 647.5 c 128,-1,67
 284 647 284 647 275 647 c 128,-1,68
 266 647 266 647 256 649 c 1,69,70
 259 633 259 633 258 623.5 c 128,-1,71
 257 614 257 614 259 605.5 c 128,-1,72
 261 597 261 597 258 583 c 128,-1,73
 255 569 255 569 257.5 558 c 128,-1,74
 260 547 260 547 253 531 c 128,-1,75
 246 515 246 515 241 498.5 c 128,-1,76
 236 482 236 482 226.5 469.5 c 128,-1,77
 217 457 217 457 207.5 446.5 c 128,-1,78
 198 436 198 436 189 427.5 c 128,-1,79
 180 419 180 419 172.5 406.5 c 128,-1,80
 165 394 165 394 144.5 385 c 128,-1,81
 124 376 124 376 101.5 379 c 128,-1,82
 79 382 79 382 63 393 c 128,-1,83
 47 404 47 404 35.5 419 c 0,84,85
 10 452.260869565 10 452.260869565 10 480.630434783 c 128,-1,86
 10 509 10 509 12 530.5 c 128,-1,87
 14 552 14 552 28 575 c 1,88,89
 9.58479532164 685.49122807 9.58479532164 685.49122807 98 736.5 c 0,90,91
 128.015706806 753.816753927 128.015706806 753.816753927 148.507853403 752.408376963 c 0,92,93
 207.685685447 748.341223969 207.685685447 748.341223969 234 705 c 1,94,95
 254.666666667 694.666666667 254.666666667 694.666666667 279.833333333 701.333333333 c 128,-1,96
 305 708 305 708 327 716.5 c 128,-1,97
 349 725 349 725 369.5 733 c 0,98,99
 415.323529412 750.882352941 415.323529412 750.882352941 422.161764706 754.941176471 c 128,-1,100
 429 759 429 759 444 755 c 128,-1,101
 459 751 459 751 472 737 c 1,0,1
93.5 481.5 m 128,-1,103
 108 465 108 465 121 467 c 128,-1,104
 134 469 134 469 146 483 c 128,-1,105
 158 497 158 497 168 515 c 0,106,107
 198.860215054 570.548387097 198.860215054 570.548387097 178.5 588 c 0,108,109
 162.206896552 601.965517241 162.206896552 601.965517241 158.603448276 619.982758621 c 128,-1,110
 155 638 155 638 147.5 645.5 c 0,111,112
 134.363636364 658.636363636 134.363636364 658.636363636 128 647.5 c 0,113,114
 126 644 126 644 121.5 633 c 128,-1,115
 117 622 117 622 105 605.5 c 128,-1,116
 93 589 93 589 88 575 c 256,117,118
 83 561 83 561 76.5 548 c 128,-1,119
 70 535 70 535 74.5 516.5 c 128,-1,102
 79 498 79 498 93.5 481.5 c 128,-1,103
497 346.5 m 128,-1,121
 501 347 501 347 511.5 344.5 c 128,-1,122
 522 342 522 342 534 326.5 c 128,-1,123
 546 311 546 311 547.5 287 c 128,-1,124
 549 263 549 263 550.5 252 c 128,-1,125
 552 241 552 241 553 230 c 0,126,127
 554.772727273 210.5 554.772727273 210.5 551.386363636 176.75 c 128,-1,128
 548 143 548 143 536 113.5 c 128,-1,129
 524 84 524 84 508 58.5 c 0,130,131
 471.534883721 0.383720930233 471.534883721 0.383720930233 438 -8 c 1,132,133
 386.260869565 -17.1304347826 386.260869565 -17.1304347826 336 8 c 0,134,135
 325 13 325 13 321 23 c 128,-1,136
 317 33 317 33 308.5 41.5 c 128,-1,137
 300 50 300 50 297 61.5 c 128,-1,138
 294 73 294 73 292 86 c 128,-1,139
 290 99 290 99 289 112 c 128,-1,140
 288 125 288 125 286.5 135.5 c 128,-1,141
 285 146 285 146 288 155.5 c 128,-1,142
 291 165 291 165 295.5 172.5 c 128,-1,143
 300 180 300 180 305 187 c 128,-1,144
 310 194 310 194 315 207 c 128,-1,145
 320 220 320 220 336.5 237 c 128,-1,146
 353 254 353 254 364 269 c 128,-1,147
 375 284 375 284 380.5 294 c 128,-1,148
 386 304 386 304 392 313 c 0,149,150
 405.714285714 333.571428571 405.714285714 333.571428571 426.857142857 341.285714286 c 0,151,152
 461.687861272 353.994219653 461.687861272 353.994219653 477.343930636 349.997109827 c 128,-1,120
 493 346 493 346 497 346.5 c 128,-1,121
454 243 m 1,153,154
 443 244 443 244 435.5 239 c 128,-1,155
 428 234 428 234 416 226 c 128,-1,156
 404 218 404 218 397.5 218 c 128,-1,157
 391 218 391 218 388 210 c 256,158,159
 385 202 385 202 377.5 200.5 c 128,-1,160
 370 199 370 199 366 187 c 128,-1,161
 362 175 362 175 360.5 152.5 c 128,-1,162
 359 130 359 130 367 116 c 1,163,164
 370 108 370 108 370.5 102.5 c 128,-1,165
 371 97 371 97 372.5 93 c 0,166,167
 375.571428571 84.8095238095 375.571428571 84.8095238095 390 80 c 256,168,169
 407.793103448 74.0689655172 407.793103448 74.0689655172 433.5 101 c 0,170,171
 459 127.714285714 459 127.714285714 459 146 c 0,172,173
 459 152 459 152 462.5 161.5 c 128,-1,174
 466 171 466 171 469.5 182 c 0,175,176
 483.312977099 225.41221374 483.312977099 225.41221374 454 243 c 1,153,154
EndSplineSet
EndChar

StartChar: ampersand
Encoding: 38 38 27
Width: 476
Flags: HW
LayerCount: 2
Fore
SplineSet
247 386 m 1,0,1
 310.642857143 287 310.642857143 287 326 287 c 0,2,3
 337.08 287 337.08 287 353.04 308 c 0,4,5
 381.827411168 345.878172589 381.827411168 345.878172589 385.913705584 372.439086294 c 0,6,7
 394.484018265 428.146118721 394.484018265 428.146118721 426 430 c 0,8,9
 443 432 443 432 452 417 c 128,-1,10
 461 402 461 402 465.5 379.5 c 128,-1,11
 470 357 470 357 472.5 342.5 c 128,-1,12
 475 328 475 328 475.5 314.5 c 0,13,14
 476.714285714 281.714285714 476.714285714 281.714285714 466.357142857 270.857142857 c 128,-1,15
 456 260 456 260 439 255 c 1,16,17
 432 244 432 244 424 231.5 c 128,-1,18
 416 219 416 219 408 206 c 0,19,20
 391.36 178.96 391.36 178.96 385 162 c 1,21,22
 394.150214592 123.111587983 394.150214592 123.111587983 421 101 c 0,23,24
 443.153846154 81.6153846154 443.153846154 81.6153846154 448.076923077 69.3076923077 c 0,25,26
 458.266666667 43.8333333333 458.266666667 43.8333333333 446.633333333 28.4166666667 c 128,-1,27
 435 13 435 13 423.5 2 c 128,-1,28
 412 -9 412 -9 393 -4 c 128,-1,29
 374 1 374 1 363 3.5 c 128,-1,30
 352 6 352 6 344 13 c 0,31,32
 326 28.75 326 28.75 326 73 c 1,33,34
 313 59 313 59 298 49 c 128,-1,35
 283 39 283 39 276 28.5 c 128,-1,36
 269 18 269 18 261 8 c 128,-1,37
 253 -2 253 -2 243 -9.5 c 0,38,39
 219.956521739 -26.7826086957 219.956521739 -26.7826086957 190.47826087 -15.8913043478 c 128,-1,40
 161 -5 161 -5 143 4.5 c 128,-1,41
 125 14 125 14 112 14 c 128,-1,42
 99 14 99 14 90 19.5 c 128,-1,43
 81 25 81 25 73.5 32 c 0,44,45
 52.5217391304 51.5797101449 52.5217391304 51.5797101449 33.7608695652 55.2898550725 c 128,-1,46
 15 59 15 59 9 74.5 c 128,-1,47
 3 90 3 90 6 104 c 0,48,49
 17.0434782609 142.652173913 17.0434782609 142.652173913 13.0217391304 175.326086957 c 128,-1,50
 9 208 9 208 12 229.5 c 128,-1,51
 15 251 15 251 22.5 272.5 c 0,52,53
 39.4192377495 321.001814882 39.4192377495 321.001814882 72 344 c 0,54,55
 88 356 88 356 98 362.5 c 128,-1,56
 108 369 108 369 113.5 373 c 0,57,58
 128.843949045 384.159235669 128.843949045 384.159235669 119.5 407 c 0,59,60
 115 418 115 418 109 429.5 c 0,61,62
 92.4068965517 461.303448276 92.4068965517 461.303448276 91 481 c 256,63,64
 89.0833333333 507.833333333 89.0833333333 507.833333333 86.0416666667 513.916666667 c 128,-1,65
 83 520 83 520 78.5 534 c 128,-1,66
 74 548 74 548 75 564 c 128,-1,67
 76 580 76 580 75 591 c 256,68,69
 73.44 608.16 73.44 608.16 78.72 616.08 c 2,70,-1
 87 628.5 l 2,71,72
 90 633 90 633 90.5 650 c 128,-1,73
 91 667 91 667 99 678.5 c 128,-1,74
 107 690 107 690 115 701 c 1,75,76
 118 707 118 707 122.5 707 c 0,77,78
 129.5 707 129.5 707 137.75 718 c 128,-1,79
 146 729 146 729 157 733.5 c 128,-1,80
 168 738 168 738 183.5 740 c 128,-1,81
 199 742 199 742 216.5 742.5 c 0,82,83
 269 744 269 744 293.5 745 c 0,84,85
 349.248892826 747.275465013 349.248892826 747.275465013 351 707 c 0,86,87
 352 696 352 696 352 688.5 c 2,88,-1
 352 674 l 1,89,90
 378.449438202 652.359550562 378.449438202 652.359550562 379.224719101 627.679775281 c 128,-1,91
 380 603 380 603 371 591.5 c 128,-1,92
 362 580 362 580 360.5 575 c 128,-1,93
 359 570 359 570 357 562.5 c 128,-1,94
 355 555 355 555 352 545.5 c 0,95,96
 345.4 524.6 345.4 524.6 338.7 515.3 c 128,-1,97
 332 506 332 506 324 496 c 128,-1,98
 316 486 316 486 306.5 474 c 0,99,100
 274.670103093 433.793814433 274.670103093 433.793814433 247 386 c 1,0,1
223 542 m 128,-1,102
 215 544 215 544 195 546.5 c 128,-1,103
 175 549 175 549 172 537 c 128,-1,104
 169 525 169 525 174 513 c 0,105,106
 180.666666667 497 180.666666667 497 186 465 c 1,107,108
 194 474 194 474 202.5 481.5 c 128,-1,109
 211 489 211 489 218 496 c 0,110,111
 233 511 233 511 232 525.5 c 128,-1,101
 231 540 231 540 223 542 c 128,-1,102
129 144 m 128,-1,113
 140 130 140 130 163 115 c 256,114,115
 186 100 186 100 196.5 103.5 c 128,-1,116
 207 107 207 107 212.5 113.5 c 128,-1,117
 218 120 218 120 224 122 c 128,-1,118
 230 124 230 124 236.5 126 c 0,119,120
 252.75 131 252.75 131 256 144 c 0,121,122
 262 172 262 172 226 198 c 1,123,124
 209 209 209 209 203 219.5 c 128,-1,125
 197 230 197 230 195 253 c 1,126,127
 187 301 187 301 168 302 c 0,128,129
 151.181818182 302 151.181818182 302 133 264.5 c 0,130,131
 113.737955347 224.772032902 113.737955347 224.772032902 115.868977673 191.386016451 c 128,-1,112
 118 158 118 158 129 144 c 128,-1,113
EndSplineSet
EndChar

StartChar: quotesingle
Encoding: 39 39 28
Width: 145
Flags: HW
LayerCount: 2
Fore
SplineSet
102 721 m 1,0,1
 118.701754386 723.385964912 118.701754386 723.385964912 122 697 c 1,2,3
 127 675 127 675 125.5 662 c 128,-1,4
 124 649 124 649 117.5 627 c 128,-1,5
 111 605 111 605 112 585.5 c 128,-1,6
 113 566 113 566 107.5 549 c 128,-1,7
 102 532 102 532 101.5 517.5 c 128,-1,8
 101 503 101 503 101 488.5 c 0,9,10
 101 424.941176471 101 424.941176471 53.5 444.5 c 0,11,12
 34.0620155039 452.503875969 34.0620155039 452.503875969 32 469 c 0,13,14
 31 476 31 476 31 486.5 c 2,15,-1
 31 508 l 2,16,17
 31 536.5 31 536.5 28 547 c 256,18,19
 25 557.5 25 557.5 25 574.75 c 2,20,-1
 25 600.5 l 2,21,22
 25 609 25 609 21.5 617 c 128,-1,23
 18 625 18 625 20 633 c 128,-1,24
 22 641 22 641 20 646 c 0,25,26
 19 651 19 651 22.5 656.5 c 128,-1,27
 26 662 26 662 23.5 668 c 128,-1,28
 21 674 21 674 25 676.5 c 128,-1,29
 29 679 29 679 25 686.5 c 0,30,31
 18.5652173913 698.565217391 18.5652173913 698.565217391 33 713 c 1,32,33
 38 720 38 720 41.5 725 c 128,-1,34
 45 730 45 730 49.5 727.5 c 128,-1,35
 54 725 54 725 59.5 727 c 128,-1,36
 65 729 65 729 71.5 731 c 0,37,38
 102 740.384615385 102 740.384615385 102 721 c 1,0,1
EndSplineSet
EndChar

StartChar: parenleft
Encoding: 40 40 29
Width: 230
Flags: HW
LayerCount: 2
Fore
SplineSet
205 775.5 m 128,-1,1
 211 778 211 778 216.5 774 c 128,-1,2
 222 770 222 770 223.5 761.5 c 128,-1,3
 225 753 225 753 224 744 c 0,4,5
 221.637931034 722.74137931 221.637931034 722.74137931 204.818965517 710.370689655 c 128,-1,6
 188 698 188 698 182.5 687 c 128,-1,7
 177 676 177 676 174 673 c 128,-1,8
 171 670 171 670 168.5 664.5 c 0,9,10
 160.528301887 646.962264151 160.528301887 646.962264151 157.764150943 629.981132075 c 128,-1,11
 155 613 155 613 152 605.5 c 128,-1,12
 149 598 149 598 146.5 592.5 c 0,13,14
 141 580.4 141 580.4 141 564.7 c 128,-1,15
 141 549 141 549 139.5 542 c 128,-1,16
 138 535 138 535 135.5 530.5 c 128,-1,17
 133 526 133 526 129.5 521 c 0,18,19
 121.304878049 509.292682927 121.304878049 509.292682927 117.152439024 487.146341463 c 0,20,21
 112.210526316 460.789473684 112.210526316 460.789473684 104 430 c 256,22,23
 96 400 96 400 116 357.5 c 0,24,25
 123.300970874 341.985436893 123.300970874 341.985436893 119.150485437 332.992718447 c 128,-1,26
 115 324 115 324 112.5 314 c 0,27,28
 105.962962963 287.851851852 105.962962963 287.851851852 116.481481481 258.425925926 c 128,-1,29
 127 229 127 229 129 218 c 128,-1,30
 131 207 131 207 132 201 c 0,31,32
 134.52 185.88 134.52 185.88 143.76 168.44 c 128,-1,33
 153 151 153 151 153 137.5 c 128,-1,34
 153 124 153 124 159 117.5 c 128,-1,35
 165 111 165 111 165.5 100 c 128,-1,36
 166 89 166 89 176 79.5 c 128,-1,37
 186 70 186 70 189.5 57.5 c 128,-1,38
 193 45 193 45 198 40.5 c 128,-1,39
 203 36 203 36 208 29 c 128,-1,40
 213 22 213 22 216.5 14 c 128,-1,41
 220 6 220 6 220 -2.5 c 128,-1,42
 220 -11 220 -11 214 -17 c 256,43,44
 201.384615385 -29.6153846154 201.384615385 -29.6153846154 168 -1 c 0,45,46
 161 5 161 5 156.5 7.5 c 128,-1,47
 152 10 152 10 146 23.5 c 128,-1,48
 140 37 140 37 129 46.5 c 128,-1,49
 118 56 118 56 115.5 69 c 128,-1,50
 113 82 113 82 107 86.5 c 128,-1,51
 101 91 101 91 98.5 97 c 128,-1,52
 96 103 96 103 94 109 c 0,53,54
 88.6 125.2 88.6 125.2 83 128 c 256,55,56
 77.125 130.9375 77.125 130.9375 73.5625 146.96875 c 0,57,58
 67.0526315789 176.263157895 67.0526315789 176.263157895 61.5263157895 183.631578947 c 128,-1,59
 56 191 56 191 56 203.5 c 128,-1,60
 56 216 56 216 52 224.5 c 128,-1,61
 48 233 48 233 48.5 243.5 c 128,-1,62
 49 254 49 254 45.5 262.5 c 0,63,64
 41.34375 272.59375 41.34375 272.59375 36 310 c 256,65,66
 34 324 34 324 34 334 c 128,-1,67
 34 344 34 344 30.5 355.5 c 128,-1,68
 27 367 27 367 27 388 c 128,-1,69
 27 409 27 409 26.5 419 c 128,-1,70
 26 429 26 429 27.5 438.5 c 128,-1,71
 29 448 29 448 31.5 459 c 0,72,73
 37.6567164179 486.089552239 37.6567164179 486.089552239 36 501 c 256,74,75
 33.1376146789 526.76146789 33.1376146789 526.76146789 53 564.5 c 0,76,77
 58 574 58 574 63.5 582.5 c 0,78,79
 76.5625 602.6875 76.5625 602.6875 84.28125 625.34375 c 0,80,81
 101.855361596 676.927680798 101.855361596 676.927680798 112 682 c 1,82,83
 115.35483871 698.774193548 115.35483871 698.774193548 129.677419355 714.887096774 c 0,84,85
 153.025641026 741.153846154 153.025641026 741.153846154 164.012820513 746.076923077 c 128,-1,86
 175 751 175 751 181 757 c 128,-1,87
 187 763 187 763 193 768 c 128,-1,0
 199 773 199 773 205 775.5 c 128,-1,1
EndSplineSet
EndChar

StartChar: parenright
Encoding: 41 41 30
Width: 232
Flags: HW
LayerCount: 2
Fore
SplineSet
206 447 m 256,0,1
 207 443 207 443 207 420.5 c 128,-1,2
 207 398 207 398 206.5 368.5 c 0,3,4
 205.262589928 295.492805755 205.262589928 295.492805755 195.131294964 262.246402878 c 0,5,6
 179.975582562 212.512097224 179.975582562 212.512097224 169.487791281 174.256048612 c 128,-1,7
 159 136 159 136 152 124 c 128,-1,8
 145 112 145 112 142.5 98.5 c 128,-1,9
 140 85 140 85 130 79.5 c 128,-1,10
 120 74 120 74 115.5 62 c 128,-1,11
 111 50 111 50 103 41 c 128,-1,12
 95 32 95 32 86 23 c 0,13,14
 65 2 65 2 51.5 -4.5 c 128,-1,15
 38 -11 38 -11 28.5 -20 c 128,-1,16
 19 -29 19 -29 10 -18.5 c 0,17,18
 -7.83561643836 2.30821917808 -7.83561643836 2.30821917808 44 56.5 c 0,19,20
 92.3258426966 107.02247191 92.3258426966 107.02247191 85 129 c 1,21,22
 81 137 81 137 86.5 142 c 128,-1,23
 92 147 92 147 96 153.5 c 128,-1,24
 100 160 100 160 100.5 164.5 c 128,-1,25
 101 169 101 169 105 171 c 0,26,27
 119.379844961 181.271317829 119.379844961 181.271317829 116 210 c 0,28,29
 114.853658537 221.463414634 114.853658537 221.463414634 117.926829268 232.731707317 c 0,30,31
 123.368421053 252.684210526 123.368421053 252.684210526 121.184210526 267.842105263 c 128,-1,32
 119 283 119 283 124.5 298 c 128,-1,33
 130 313 130 313 126 323 c 128,-1,34
 122 333 122 333 123.5 349 c 128,-1,35
 125 365 125 365 136 370 c 1,36,37
 138 392 138 392 139.5 413.5 c 128,-1,38
 141 435 141 435 135 445 c 128,-1,39
 129 455 129 455 128 461 c 128,-1,40
 127 467 127 467 126.5 472.5 c 0,41,42
 125.333333333 485.333333333 125.333333333 485.333333333 119.666666667 495.166666667 c 128,-1,43
 114 505 114 505 116 517.5 c 0,44,45
 119.149606299 537.18503937 119.149606299 537.18503937 105.57480315 560.092519685 c 128,-1,46
 92 583 92 583 90 591.5 c 128,-1,47
 88 600 88 600 86 610.5 c 128,-1,48
 84 621 84 621 81 632.5 c 0,49,50
 73.4117647059 661.588235294 73.4117647059 661.588235294 62.2058823529 672.294117647 c 128,-1,51
 51 683 51 683 48 690 c 128,-1,52
 45 697 45 697 41 704.5 c 128,-1,53
 37 712 37 712 27 718 c 128,-1,54
 17 724 17 724 17 729 c 256,55,56
 17 734 17 734 13 741.5 c 128,-1,57
 9 749 9 749 10.5 757.5 c 128,-1,58
 12 766 12 766 18 768 c 128,-1,59
 24 770 24 770 31.5 769.5 c 0,60,61
 50.875 768.208333333 50.875 768.208333333 57.9375 757.604166667 c 128,-1,62
 65 747 65 747 73.5 742 c 128,-1,63
 82 737 82 737 84 726 c 256,64,65
 86 715 86 715 98.5 704.5 c 128,-1,66
 111 694 111 694 115.5 683 c 128,-1,67
 120 672 120 672 128.5 666.5 c 128,-1,68
 137 661 137 661 140.5 646.5 c 128,-1,69
 144 632 144 632 151 625 c 128,-1,70
 158 618 158 618 160.5 602.5 c 128,-1,71
 163 587 163 587 164.5 569 c 128,-1,72
 166 551 166 551 179 543 c 1,73,74
 192.253731343 531.955223881 192.253731343 531.955223881 194.5 505 c 0,75,76
 195 499 195 499 197.5 496.5 c 128,-1,77
 200 494 200 494 201.5 487.5 c 128,-1,78
 203 481 203 481 203.5 473.5 c 128,-1,79
 204 466 204 466 204.5 458.5 c 128,-1,80
 205 451 205 451 206 447 c 256,0,1
EndSplineSet
EndChar

StartChar: asterisk
Encoding: 42 42 31
Width: 422
Flags: HW
LayerCount: 2
Fore
SplineSet
82 384 m 128,-1,1
 67 372 67 372 51.8169014085 373.718309859 c 128,-1,2
 36.6338028169 375.436619718 36.6338028169 375.436619718 27 393.5 c 0,3,4
 23 401 23 401 23 413 c 128,-1,5
 23 425 23 425 28 437.5 c 0,6,7
 39.6153846154 466.538461538 39.6153846154 466.538461538 74 478 c 0,8,9
 102.373333333 488.453333333 102.373333333 488.453333333 132 510 c 1,10,11
 114 521 114 521 96.5 530.5 c 128,-1,12
 79 540 79 540 63 549 c 0,13,14
 25.6666666667 570 25.6666666667 570 17 583 c 256,15,16
 3.52173913043 603.217391304 3.52173913043 603.217391304 13.5 626.5 c 0,17,18
 23.8705035971 650.697841727 23.8705035971 650.697841727 52.9352517986 647.348920863 c 128,-1,19
 82 644 82 644 95 634 c 128,-1,20
 108 624 108 624 116 612 c 128,-1,21
 124 600 124 600 128.5 589.5 c 128,-1,22
 133 579 133 579 138.5 575 c 128,-1,23
 144 571 144 571 150.5 571.5 c 128,-1,24
 157 572 157 572 165 571 c 1,25,26
 166 590 166 590 166 604.5 c 128,-1,27
 166 619 166 619 167 648.5 c 128,-1,28
 168 678 168 678 166 697.5 c 128,-1,29
 164 717 164 717 171.5 727.5 c 0,30,31
 189.4 752.56 189.4 752.56 222 733 c 0,32,33
 243.604477612 720.037313433 243.604477612 720.037313433 248.802238806 697.018656716 c 128,-1,34
 254 674 254 674 250 654.5 c 0,35,36
 242.527472527 618.071428571 242.527472527 618.071428571 247 589 c 1,37,38
 280 610 280 610 308 632 c 128,-1,39
 336 654 336 654 351 656.5 c 128,-1,40
 366 659 366 659 377.5 655 c 128,-1,41
 389 651 389 651 396.5 642.5 c 0,42,43
 414.317073171 622.307317073 414.317073171 622.307317073 399.158536585 597.653658537 c 128,-1,44
 384 573 384 573 369.5 565.5 c 128,-1,45
 355 558 355 558 340.5 556 c 128,-1,46
 326 554 326 554 314.5 554.5 c 128,-1,47
 303 555 303 555 296.5 551 c 128,-1,48
 290 547 290 547 288 539.5 c 128,-1,49
 286 532 286 532 276 521 c 1,50,-1
 303 503 l 2,51,52
 315 495 315 495 339.5 478.5 c 128,-1,53
 364 462 364 462 381.5 453 c 128,-1,54
 399 444 399 444 404 429 c 1,55,56
 411.049180328 416.31147541 411.049180328 416.31147541 401.524590164 404.155737705 c 128,-1,57
 392 392 392 392 381 387 c 128,-1,58
 370 382 370 382 357 381.5 c 0,59,60
 325.703703704 380.296296296 325.703703704 380.296296296 300 406 c 0,61,62
 281.6 424.4 281.6 424.4 253 440 c 1,63,64
 255 403 255 403 257.5 371 c 128,-1,65
 260 339 260 339 254.5 325.5 c 128,-1,66
 249 312 249 312 239.5 304 c 128,-1,67
 230 296 230 296 218.5 294.5 c 0,68,69
 190.65060241 290.86746988 190.65060241 290.86746988 176 322 c 0,70,71
 155.847826087 362.304347826 155.847826087 362.304347826 187.5 411 c 0,72,73
 194 421 194 421 194 427 c 256,74,75
 194 433 194 433 191 437 c 128,-1,76
 188 441 188 441 185 447 c 1,77,78
 171 439 171 439 159.5 432 c 128,-1,79
 148 425 148 425 125 413 c 1,80,0
 97 396 97 396 82 384 c 128,-1,1
EndSplineSet
EndChar

StartChar: plus
Encoding: 43 43 32
Width: 411
Flags: HW
LayerCount: 2
Fore
SplineSet
238 389 m 1,0,-1
 361 396 l 2,1,2
 377 396 377 396 387 395 c 0,3,4
 404.305936073 393.269406393 404.305936073 393.269406393 405.5 367 c 0,5,6
 406.703703704 340.518518519 406.703703704 340.518518519 396.851851852 329.259259259 c 128,-1,7
 387 318 387 318 375 318 c 1,8,9
 367 312 367 312 353 313 c 128,-1,10
 339 314 339 314 327 315.5 c 128,-1,11
 315 317 315 317 310 316 c 128,-1,12
 305 315 305 315 301.5 314 c 0,13,14
 294.818181818 312.090909091 294.818181818 312.090909091 282.909090909 318.045454545 c 128,-1,15
 271 324 271 324 254 319 c 1,16,17
 249.518518519 287.62962963 249.518518519 287.62962963 252.759259259 265.814814815 c 128,-1,18
 256 244 256 244 255.5 239 c 128,-1,19
 255 234 255 234 254 230 c 0,20,21
 251.9 221.6 251.9 221.6 257 208 c 256,22,23
 269.733695652 174.043478261 269.733695652 174.043478261 249.5 155 c 0,24,25
 241 147 241 147 224 143.5 c 128,-1,26
 207 140 207 140 194.5 144.5 c 128,-1,27
 182 149 182 149 173.5 159 c 0,28,29
 156.817427386 178.626556017 156.817427386 178.626556017 159 207 c 256,30,31
 160.466666667 226.066666667 160.466666667 226.066666667 158.733333333 229.533333333 c 0,32,33
 156.222222222 234.555555556 156.222222222 234.555555556 161.611111111 247.277777778 c 0,34,35
 168.930348259 264.55721393 168.930348259 264.55721393 163 312 c 1,36,37
 135.120689655 299.327586207 135.120689655 299.327586207 130.060344828 302.163793103 c 128,-1,38
 125 305 125 305 121 304.5 c 128,-1,39
 117 304 117 304 113.5 302.5 c 0,40,41
 104.448275862 298.620689655 104.448275862 298.620689655 97.724137931 301.810344828 c 128,-1,42
 91 305 91 305 84.5 305 c 2,43,-1
 56 303 l 2,44,45
 47 303 47 303 34 309.5 c 128,-1,46
 21 316 21 316 13 316 c 1,47,48
 8 330 8 330 2 347 c 128,-1,49
 -4 364 -4 364 1.5 373 c 128,-1,50
 7 382 7 382 14 386 c 128,-1,51
 21 390 21 390 29.5 392 c 0,52,53
 46.5 396 46.5 396 56.25 395.5 c 128,-1,54
 66 395 66 395 73.5 392.5 c 128,-1,55
 81 390 81 390 88.5 387.5 c 0,56,57
 107.4 381.2 107.4 381.2 114.2 384.6 c 128,-1,58
 121 388 121 388 123.5 388 c 128,-1,59
 126 388 126 388 130 387 c 128,-1,60
 134 386 134 386 139.5 384.5 c 128,-1,61
 145 383 145 383 156 383 c 1,62,63
 160 412 160 412 160 437.5 c 128,-1,64
 160 463 160 463 158 483.5 c 128,-1,65
 156 504 156 504 154 517.5 c 128,-1,66
 152 531 152 531 152 537 c 256,67,68
 152 560.611111111 152 560.611111111 180 571.5 c 0,69,70
 189 575 189 575 206.5 573 c 128,-1,71
 224 571 224 571 237 556.5 c 128,-1,72
 250 542 250 542 249.5 520.5 c 128,-1,73
 249 499 249 499 248 484 c 128,-1,74
 247 469 247 469 245 452 c 128,-1,75
 243 435 243 435 241 418.5 c 128,-1,76
 239 402 239 402 238 389 c 1,0,-1
EndSplineSet
EndChar

StartChar: comma
Encoding: 44 44 33
Width: 152
Flags: HW
LayerCount: 2
Fore
SplineSet
134.5 -4 m 128,-1,1
 131 -8 131 -8 131.5 -19.5 c 128,-1,2
 132 -31 132 -31 128 -37 c 128,-1,3
 124 -43 124 -43 122 -51 c 256,4,5
 120 -59 120 -59 117 -61.5 c 128,-1,6
 114 -64 114 -64 111 -73 c 1,7,8
 107 -81 107 -81 101 -81.5 c 128,-1,9
 95 -82 95 -82 94 -90.5 c 0,10,11
 92.2941176471 -105 92.2941176471 -105 67 -105 c 0,12,13
 40.8333333333 -105 40.8333333333 -105 38 -88 c 0,14,15
 37 -82 37 -82 46 -69.5 c 128,-1,16
 55 -57 55 -57 61 -54 c 128,-1,17
 67 -51 67 -51 75.5 -47 c 128,-1,18
 84 -43 84 -43 84.5 -34 c 128,-1,19
 85 -25 85 -25 79 -13 c 1,20,21
 71 -18 71 -18 63 -16 c 128,-1,22
 55 -14 55 -14 45.5 -16 c 128,-1,23
 36 -18 36 -18 31 -12 c 128,-1,24
 26 -6 26 -6 15 -2 c 0,25,26
 3.47222222222 2.61111111111 3.47222222222 2.61111111111 5.23611111111 27.3055555556 c 0,27,28
 8.62962962963 74.8148148148 8.62962962963 74.8148148148 27 84 c 0,29,30
 37 88 37 88 42 91.5 c 128,-1,31
 47 95 47 95 50 97 c 128,-1,32
 53 99 53 99 55 99 c 128,-1,33
 57 99 57 99 64.5 97 c 128,-1,34
 72 95 72 95 80 99 c 128,-1,35
 88 103 88 103 90.5 99.5 c 128,-1,36
 93 96 93 96 97.5 95.5 c 128,-1,37
 102 95 102 95 106.5 93.5 c 0,38,39
 118.285714286 89.5714285714 118.285714286 89.5714285714 121.642857143 79.2857142857 c 128,-1,40
 125 69 125 69 126.5 67 c 128,-1,41
 128 65 128 65 129 64 c 0,42,43
 130.5 62.5 130.5 62.5 132 49 c 256,44,45
 133 40 133 40 132.5 35.5 c 128,-1,46
 132 31 132 31 132 28 c 2,47,-1
 132 21.5 l 2,48,49
 132 18 132 18 135 9 c 128,-1,0
 138 0 138 0 134.5 -4 c 128,-1,1
EndSplineSet
EndChar

StartChar: hyphen
Encoding: 45 45 34
Width: 399
Flags: HW
LayerCount: 2
Fore
SplineSet
14 309 m 1,0,1
 -4.66666666667 327.666666667 -4.66666666667 327.666666667 11.5 360 c 0,2,3
 31.6842105263 400.368421053 31.6842105263 400.368421053 80 389 c 0,4,5
 114 381 114 381 137.5 385.5 c 128,-1,6
 161 390 161 390 168 386 c 128,-1,7
 175 382 175 382 180.5 383 c 128,-1,8
 186 384 186 384 194 386 c 0,9,10
 218 392 218 392 246 392 c 256,11,12
 265 392 265 392 283.5 393.5 c 128,-1,13
 302 395 302 395 318.5 396 c 0,14,15
 356.78 398.32 356.78 398.32 371 392 c 1,16,17
 390.525423729 379.796610169 390.525423729 379.796610169 392.762711864 361.898305085 c 0,18,19
 397.046511628 327.627906977 397.046511628 327.627906977 375.023255814 314.813953488 c 128,-1,20
 353 302 353 302 338.5 303.5 c 128,-1,21
 324 305 324 305 312.5 311 c 128,-1,22
 301 317 301 317 292.5 324 c 128,-1,23
 284 331 284 331 278.5 331 c 128,-1,24
 273 331 273 331 269 328 c 128,-1,25
 265 325 265 325 259.5 321 c 0,26,27
 247.125 312 247.125 312 228.0625 312 c 128,-1,28
 209 312 209 312 203 310.5 c 128,-1,29
 197 309 197 309 192 306.5 c 0,30,31
 181 301 181 301 164 301 c 256,32,33
 146.25 301 146.25 301 133.125 301 c 0,34,35
 115 301 115 301 87 302.5 c 128,-1,36
 59 304 59 304 42.5 302 c 128,-1,37
 26 300 26 300 14 309 c 1,0,1
EndSplineSet
EndChar

StartChar: period
Encoding: 46 46 35
Width: 169
Flags: HW
LayerCount: 2
Fore
SplineSet
5.5 33 m 128,-1,1
 7 41 7 41 21.5 54 c 128,-1,2
 36 67 36 67 58.5 79 c 128,-1,3
 81 91 81 91 119 86 c 0,4,5
 136.8 84.0222222222 136.8 84.0222222222 147.5 65 c 0,6,7
 156.5 49 156.5 49 153.75 36.5 c 128,-1,8
 151 24 151 24 144 15.5 c 128,-1,9
 137 7 137 7 128 0.5 c 0,10,11
 109.630136986 -12.7671232877 109.630136986 -12.7671232877 95.8150684932 -14.8835616438 c 128,-1,12
 82 -17 82 -17 76.5 -23.5 c 128,-1,13
 71 -30 71 -30 58.5 -27 c 128,-1,14
 46 -24 46 -24 42.5 -14.5 c 128,-1,15
 39 -5 39 -5 31 -2 c 128,-1,16
 23 1 23 1 17 6 c 128,-1,17
 11 11 11 11 7.5 18 c 128,-1,0
 4 25 4 25 5.5 33 c 128,-1,1
EndSplineSet
EndChar

StartChar: slash
Encoding: 47 47 36
Width: 345
Flags: HW
LayerCount: 2
Fore
SplineSet
287.5 745 m 0,0,1
 306 758 306 758 319 752 c 128,-1,2
 332 746 332 746 338.5 718.5 c 128,-1,3
 345 691 345 691 329 658 c 128,-1,4
 313 625 313 625 305 615.5 c 128,-1,5
 297 606 297 606 290.5 598.5 c 0,6,7
 275.144927536 580.782608696 275.144927536 580.782608696 266.572463768 550.891304348 c 128,-1,8
 258 521 258 521 253 511 c 128,-1,9
 248 501 248 501 243.5 493 c 0,10,11
 232.278481013 473.050632911 232.278481013 473.050632911 222 429 c 256,12,13
 211.186379928 382.655913978 211.186379928 382.655913978 196.593189964 354.327956989 c 128,-1,14
 182 326 182 326 173.5 309 c 128,-1,15
 165 292 165 292 157.5 267.5 c 128,-1,16
 150 243 150 243 142.5 224 c 128,-1,17
 135 205 135 205 129 189 c 0,18,19
 114 149 114 149 114 129 c 256,20,21
 114 96.380952381 114 96.380952381 97 63.1904761905 c 0,22,23
 65.3823529412 1.46078431373 65.3823529412 1.46078431373 43 -6 c 0,24,25
 36 -8 36 -8 21.5 -5.5 c 128,-1,26
 7 -3 7 -3 0.5 16 c 0,27,28
 -15.1602316602 61.7760617761 -15.1602316602 61.7760617761 15 115 c 0,29,30
 31.7586206897 142.931034483 31.7586206897 142.931034483 37.8793103448 164.965517241 c 128,-1,31
 44 187 44 187 49.5 199.5 c 128,-1,32
 55 212 55 212 59.5 227 c 128,-1,33
 64 242 64 242 68 257.5 c 0,34,35
 77.8666666667 295.733333333 77.8666666667 295.733333333 87 314 c 256,36,37
 93 326 93 326 103 344 c 128,-1,38
 113 362 113 362 123 384 c 0,39,40
 146 434.6 146 434.6 154 471.8 c 128,-1,41
 162 509 162 509 168 518.5 c 128,-1,42
 174 528 174 528 181 525 c 1,43,44
 192.20754717 581.037735849 192.20754717 581.037735849 221 616 c 0,45,46
 232.911764706 630.558823529 232.911764706 630.558823529 236.455882353 648.279411765 c 0,47,48
 250.616352201 719.081761006 250.616352201 719.081761006 287.5 745 c 0,0,1
EndSplineSet
EndChar

StartChar: zero
Encoding: 48 48 37
Width: 468
Flags: HW
LayerCount: 2
Fore
SplineSet
196 738 m 128,-1,1
 214 740 214 740 236 748 c 128,-1,2
 258 756 258 756 276 759 c 128,-1,3
 294 762 294 762 315 756.5 c 128,-1,4
 336 751 336 751 347 743 c 128,-1,5
 358 735 358 735 366 726.5 c 128,-1,6
 374 718 374 718 379.5 710 c 128,-1,7
 385 702 385 702 395.5 696 c 0,8,9
 419.658536585 682.195121951 419.658536585 682.195121951 418 654 c 0,10,11
 418 648 418 648 421.5 640 c 128,-1,12
 425 632 425 632 429 622 c 0,13,14
 438.714285714 597.714285714 438.714285714 597.714285714 436.857142857 575.357142857 c 128,-1,15
 435 553 435 553 439.5 531 c 128,-1,16
 444 509 444 509 448 486 c 0,17,18
 458.039525692 428.272727273 458.039525692 428.272727273 445.519762846 387.136363636 c 128,-1,19
 433 346 433 346 425.5 314 c 128,-1,20
 418 282 418 282 419.5 259.5 c 128,-1,21
 421 237 421 237 417.5 215 c 128,-1,22
 414 193 414 193 407 170.5 c 0,23,24
 390.288032454 116.78296146 390.288032454 116.78296146 364 94 c 0,25,26
 355 87 355 87 344.5 68.5 c 128,-1,27
 334 50 334 50 319.5 30.5 c 0,28,29
 282.692307692 -19 282.692307692 -19 231.346153846 -19 c 128,-1,30
 180 -19 180 -19 145.5 18 c 128,-1,31
 111 55 111 55 97 117 c 0,32,33
 92.1212121212 138.141414141 92.1212121212 138.141414141 82.0606060606 154.070707071 c 0,34,35
 64 182.666666667 64 182.666666667 54.5 206.333333333 c 0,36,37
 37.2564612326 249.29092114 37.2564612326 249.29092114 48.5 320.5 c 0,38,39
 50 330 50 330 50 340.5 c 0,40,41
 50 360.888888889 50 360.888888889 32 393.444444444 c 0,42,43
 -1.23985321917 453.56343823 -1.23985321917 453.56343823 29 528 c 0,44,45
 35 544 35 544 36.5 557 c 128,-1,46
 38 570 38 570 39.5 581.5 c 0,47,48
 43.3684210526 611.157894737 43.3684210526 611.157894737 53.6842105263 624.078947368 c 128,-1,49
 64 637 64 637 64.5 644 c 128,-1,50
 65 651 65 651 72 660 c 128,-1,51
 79 669 79 669 87.5 679 c 128,-1,52
 96 689 96 689 106.5 704 c 128,-1,53
 117 719 117 719 131 724.5 c 128,-1,54
 145 730 145 730 161.5 733 c 128,-1,0
 178 736 178 736 196 738 c 128,-1,1
246.5 512 m 128,-1,56
 246 509 246 509 242.5 506 c 128,-1,57
 239 503 239 503 235 503 c 2,58,-1
 227.5 503 l 2,59,60
 217.5 503 217.5 503 213 497 c 0,61,62
 202 481 202 481 191 462.5 c 128,-1,63
 180 444 180 444 176.5 418 c 0,64,65
 170.341246291 372.24925816 170.341246291 372.24925816 180 351 c 256,66,67
 188.712871287 331.831683168 188.712871287 331.831683168 186.856435644 307.915841584 c 128,-1,68
 185 284 185 284 185.5 272 c 128,-1,69
 186 260 186 260 187.5 251 c 128,-1,70
 189 242 189 242 192 234.5 c 128,-1,71
 195 227 195 227 198 218.5 c 128,-1,72
 201 210 201 210 205.5 198.5 c 128,-1,73
 210 187 210 187 216.5 176.5 c 0,74,75
 232.697068404 150.335504886 232.697068404 150.335504886 256 152 c 0,76,77
 278.225705329 154.222570533 278.225705329 154.222570533 280 211 c 0,78,79
 280 241 280 241 284.5 259 c 2,80,-1
 292 289 l 1,81,82
 300.727272727 329.145454545 300.727272727 329.145454545 294.363636364 354.572727273 c 128,-1,83
 288 380 288 380 289.5 390.5 c 128,-1,84
 291 401 291 401 292 412.5 c 0,85,86
 294.703703704 443.592592593 294.703703704 443.592592593 286.351851852 459.796296296 c 128,-1,87
 278 476 278 476 275.5 485.5 c 128,-1,88
 273 495 273 495 271 503.5 c 0,89,90
 266.580246914 522.283950617 266.580246914 522.283950617 258 524 c 1,91,92
 250 524 250 524 248.5 519.5 c 128,-1,55
 247 515 247 515 246.5 512 c 128,-1,56
EndSplineSet
EndChar

StartChar: one
Encoding: 49 49 38
Width: 318
Flags: HW
LayerCount: 2
Fore
SplineSet
262 433 m 1,0,1
 270 425 270 425 270 390 c 128,-1,2
 270 355 270 355 269.5 339 c 128,-1,3
 269 323 269 323 253 307 c 1,4,5
 248.771428571 271.057142857 248.771428571 271.057142857 252 242 c 1,6,7
 252 230 252 230 251 219.5 c 128,-1,8
 250 209 250 209 250.5 200.5 c 0,9,10
 251.554054054 182.581081081 251.554054054 182.581081081 268.277027027 173.290540541 c 0,11,12
 298.86 156.3 298.86 156.3 283 77 c 0,13,14
 279 54.3333333333 279 54.3333333333 279 36.6666666667 c 128,-1,15
 279 19 279 19 277.5 12.5 c 128,-1,16
 276 6 276 6 268 -2.5 c 128,-1,17
 260 -11 260 -11 252 -12.5 c 128,-1,18
 244 -14 244 -14 235 -11 c 2,19,-1
 214 -4 l 2,20,21
 202 0 202 0 184 1 c 256,22,23
 158.324873096 2.42639593909 158.324873096 2.42639593909 142.662436548 -6.78680203046 c 128,-1,24
 127 -16 127 -16 119 -19.5 c 128,-1,25
 111 -23 111 -23 100.5 -22 c 128,-1,26
 90 -21 90 -21 82 -15 c 128,-1,27
 74 -9 74 -9 68.5 -2 c 0,28,29
 57 12.6363636364 57 12.6363636364 57 20.8181818182 c 128,-1,30
 57 29 57 29 60.5 43 c 128,-1,31
 64 57 64 57 58 89.5 c 128,-1,32
 52 122 52 122 57.5 137 c 128,-1,33
 63 152 63 152 94 164 c 1,34,35
 113.385438972 204.533190578 113.385438972 204.533190578 103 271 c 0,36,37
 99 303 99 303 98 345 c 128,-1,38
 97 387 97 387 95.5 422.5 c 128,-1,39
 94 458 94 458 93.5 474 c 128,-1,40
 93 490 93 490 89 501 c 0,41,42
 81.487804878 521.658536585 81.487804878 521.658536585 53 527 c 0,43,44
 40 529 40 529 31.5 530 c 128,-1,45
 23 531 23 531 16 541 c 256,46,47
 4.27852348993 557.744966443 4.27852348993 557.744966443 18.5 584 c 0,48,49
 25 596 25 596 33.5 609.5 c 128,-1,50
 42 623 42 623 48.5 637.5 c 128,-1,51
 55 652 55 652 65 669.5 c 128,-1,52
 75 687 75 687 88.5 702 c 0,53,54
 120 737 120 737 156 737 c 0,55,56
 191.4 737 191.4 737 204.2 741 c 0,57,58
 226.6 748 226.6 748 233 748 c 256,59,60
 259 748 259 748 277 730 c 0,61,62
 286.2 720.8 286.2 720.8 284.1 698.4 c 128,-1,63
 282 676 282 676 279.5 656 c 128,-1,64
 277 636 277 636 273.5 614 c 128,-1,65
 270 592 270 592 269 574.5 c 128,-1,66
 268 557 268 557 267 544 c 128,-1,67
 266 531 266 531 265.5 518 c 128,-1,68
 265 505 265 505 263 495 c 1,69,70
 274.635135135 491.121621622 274.635135135 491.121621622 262 433 c 1,0,1
EndSplineSet
EndChar

StartChar: two
Encoding: 50 50 39
Width: 446
Flags: HW
LayerCount: 2
Fore
SplineSet
346.5 271.5 m 128,-1,1
 337 252 337 252 325.5 237.5 c 128,-1,2
 314 223 314 223 300 209.5 c 128,-1,3
 286 196 286 196 270.5 181.5 c 0,4,5
 233.414814815 146.807407407 233.414814815 146.807407407 215 115 c 1,6,7
 220 104 220 104 240 103 c 0,8,9
 247.304347826 101.782608696 247.304347826 101.782608696 251.652173913 104.391304348 c 0,10,11
 262.428571429 110.857142857 262.428571429 110.857142857 277.714285714 111.928571429 c 128,-1,12
 293 113 293 113 300 113.5 c 128,-1,13
 307 114 307 114 310 113.5 c 0,14,15
 319 112 319 112 330 112 c 1,16,17
 341 118 341 118 356.5 119.5 c 128,-1,18
 372 121 372 121 381.5 117.5 c 128,-1,19
 391 114 391 114 395 117.5 c 128,-1,20
 399 121 399 121 407 118 c 128,-1,21
 415 115 415 115 418.5 102 c 128,-1,22
 422 89 422 89 423 74 c 0,23,24
 425.469387755 36.9591836735 425.469387755 36.9591836735 418 27 c 1,25,26
 407 22 407 22 406 15 c 128,-1,27
 405 8 405 8 397 3.5 c 128,-1,28
 389 -1 389 -1 383 -0.5 c 128,-1,29
 377 0 377 0 372 2 c 0,30,31
 356.705882353 8.11764705882 356.705882353 8.11764705882 347.852941176 6.55882352941 c 128,-1,32
 339 5 339 5 328 0.5 c 128,-1,33
 317 -4 317 -4 306.5 -2.5 c 128,-1,34
 296 -1 296 -1 284.5 1 c 128,-1,35
 273 3 273 3 260 4.5 c 128,-1,36
 247 6 247 6 233.5 6 c 128,-1,37
 220 6 220 6 200 0.5 c 128,-1,38
 180 -5 180 -5 162 -12.5 c 128,-1,39
 144 -20 144 -20 122.5 -19 c 128,-1,40
 101 -18 101 -18 90 -12.5 c 128,-1,41
 79 -7 79 -7 71.5 0.5 c 128,-1,42
 64 8 64 8 59 17.5 c 128,-1,43
 54 27 54 27 44 39 c 128,-1,44
 34 51 34 51 27.5 69 c 128,-1,45
 21 87 21 87 39.5 106.5 c 128,-1,46
 58 126 58 126 68.5 142.5 c 128,-1,47
 79 159 79 159 86 172.5 c 128,-1,48
 93 186 93 186 98.5 197 c 128,-1,49
 104 208 104 208 113.5 220.5 c 128,-1,50
 123 233 123 233 134 243.5 c 128,-1,51
 145 254 145 254 155.5 263.5 c 0,52,53
 178.461538462 284.274725275 178.461538462 284.274725275 190 309 c 256,54,55
 197 324 197 324 207.5 336 c 128,-1,56
 218 348 218 348 227.5 361.5 c 0,57,58
 249.640167364 392.962343096 249.640167364 392.962343096 251.820083682 427.481171548 c 128,-1,59
 254 462 254 462 250 476.5 c 128,-1,60
 246 491 246 491 238.5 496 c 0,61,62
 221.714285714 507.19047619 221.714285714 507.19047619 203.357142857 476.595238095 c 128,-1,63
 185 446 185 446 163 435 c 128,-1,64
 141 424 141 424 128 438 c 128,-1,65
 115 452 115 452 106 461 c 128,-1,66
 97 470 97 470 77 471.5 c 128,-1,67
 57 473 57 473 36.5 480 c 128,-1,68
 16 487 16 487 12 508 c 0,69,70
 5 548 5 548 22 591.5 c 128,-1,71
 39 635 39 635 70 671 c 128,-1,72
 101 707 101 707 139.5 730.5 c 128,-1,73
 178 754 178 754 211 754 c 128,-1,74
 244 754 244 754 268 745 c 128,-1,75
 292 736 292 736 308 710 c 1,76,77
 315 711 315 711 333 700 c 128,-1,78
 351 689 351 689 362 667 c 1,79,80
 369.333333333 665.166666667 369.333333333 665.166666667 376.666666667 655.083333333 c 0,81,82
 388 639.5 388 639.5 388 632 c 1,83,84
 392.846153846 628.769230769 392.846153846 628.769230769 399.923076923 616.384615385 c 0,85,86
 412 595.25 412 595.25 412 583 c 1,87,88
 418.533333333 579.733333333 418.533333333 579.733333333 424 536 c 256,89,90
 426 520 426 520 426 497 c 128,-1,91
 426 474 426 474 421 446 c 1,92,93
 425 435 425 435 425 411.5 c 128,-1,94
 425 388 425 388 417 362 c 1,95,96
 399.692307692 320.461538462 399.692307692 320.461538462 369 300 c 0,97,0
 356 291 356 291 346.5 271.5 c 128,-1,1
EndSplineSet
EndChar

StartChar: three
Encoding: 51 51 40
Width: 438
Flags: HW
LayerCount: 2
Fore
SplineSet
336 370 m 1,0,1
 401.519572954 332.067615658 401.519572954 332.067615658 429 271 c 0,2,3
 438 251 438 251 438 231 c 256,4,5
 438 206.4 438 206.4 420.5 153.2 c 128,-1,6
 403 100 403 100 397 71.5 c 128,-1,7
 391 43 391 43 377.5 33 c 128,-1,8
 364 23 364 23 353 21 c 128,-1,9
 342 19 342 19 332.5 19 c 2,10,-1
 312.5 19 l 2,11,12
 290.166666667 19 290.166666667 19 274.583333333 8 c 2,13,-1
 250.5 -9 l 2,14,15
 230.666666667 -23 230.666666667 -23 205.333333333 -23 c 128,-1,16
 180 -23 180 -23 172.5 -19.5 c 128,-1,17
 165 -16 165 -16 160.5 -12 c 128,-1,18
 156 -8 156 -8 150.5 -4 c 128,-1,19
 145 0 145 0 129 1.5 c 128,-1,20
 113 3 113 3 98 14.5 c 128,-1,21
 83 26 83 26 72 41.5 c 0,22,23
 46.8571428571 76.9285714286 46.8571428571 76.9285714286 51 108 c 1,24,25
 52.8704318937 134.186046512 52.8704318937 134.186046512 79 142.5 c 0,26,27
 110.728888889 152.595555556 110.728888889 152.595555556 141 118 c 0,28,29
 164.625 91 164.625 91 189 91 c 256,30,31
 204.3 91 204.3 91 224.15 106 c 128,-1,32
 244 121 244 121 256 134.5 c 128,-1,33
 268 148 268 148 273 174 c 1,34,35
 277 186 277 186 280 199.5 c 128,-1,36
 283 213 283 213 267 229 c 0,37,38
 250 245 250 245 240 245 c 128,-1,39
 230 245 230 245 215 237 c 128,-1,40
 200 229 200 229 188 227 c 128,-1,41
 176 225 176 225 163 228.5 c 0,42,43
 134.4 236.2 134.4 236.2 116 273 c 1,44,45
 97.0943738657 307.373865699 97.0943738657 307.373865699 117 333.5 c 0,46,47
 129.941176471 350.485294118 129.941176471 350.485294118 148.470588235 355.242647059 c 128,-1,48
 167 360 167 360 182 372 c 128,-1,49
 197 384 197 384 208.5 400 c 0,50,51
 237.285060976 440.048780488 237.285060976 440.048780488 221 469 c 0,52,53
 211 488 211 488 199.5 488 c 128,-1,54
 188 488 188 488 177 484 c 128,-1,55
 166 480 166 480 161 475.5 c 128,-1,56
 156 471 156 471 152 466 c 0,57,58
 142.064516129 453.580645161 142.064516129 453.580645161 130.532258065 452.290322581 c 128,-1,59
 119 451 119 451 113.5 454.5 c 128,-1,60
 108 458 108 458 103.5 463.5 c 0,61,62
 91.6363636364 478 91.6363636364 478 70.8181818182 478.5 c 128,-1,63
 50 479 50 479 31.5 486 c 128,-1,64
 13 493 13 493 7.5 519 c 128,-1,65
 2 545 2 545 10 575.5 c 128,-1,66
 18 606 18 606 35 636 c 0,67,68
 74.7432432432 706.135135135 74.7432432432 706.135135135 130 729 c 1,69,70
 163.923954373 765.75095057 163.923954373 765.75095057 221 754 c 1,71,72
 262.887245841 773.711645102 262.887245841 773.711645102 302 738 c 1,73,74
 334.720930233 709.953488372 334.720930233 709.953488372 340 673 c 1,75,76
 366 657 366 657 382 631.5 c 128,-1,77
 398 606 398 606 404 568 c 128,-1,78
 410 530 410 530 406.5 507 c 128,-1,79
 403 484 403 484 396 466 c 0,80,81
 387.133333333 443.2 387.133333333 443.2 373.066666667 422.1 c 128,-1,82
 359 401 359 401 350.5 392.5 c 128,-1,83
 342 384 342 384 336 370 c 1,0,1
EndSplineSet
EndChar

StartChar: four
Encoding: 52 52 41
Width: 432
Flags: HW
LayerCount: 2
Fore
SplineSet
382 720 m 1,0,-1
 383 681.5 l 2,1,2
 383 663.25 383 663.25 375.5 642.125 c 128,-1,3
 368 621 368 621 372.5 597 c 128,-1,4
 377 573 377 573 381 555.5 c 0,5,6
 387.961038961 525.045454545 387.961038961 525.045454545 381.980519481 491.522727273 c 0,7,8
 375.108289268 453.001675728 375.108289268 453.001675728 368.554144634 399.000837864 c 0,9,10
 358.311592154 314.610509808 358.311592154 314.610509808 370 300 c 0,11,12
 373.529411765 295.294117647 373.529411765 295.294117647 386.764705882 292.647058824 c 0,13,14
 411.470588235 287.705882353 411.470588235 287.705882353 420.735294118 275.352941176 c 128,-1,15
 430 263 430 263 431.5 245 c 128,-1,16
 433 227 433 227 430 209.5 c 0,17,18
 423.322580645 170.548387097 423.322580645 170.548387097 409 161 c 0,19,20
 403 158 403 158 391 160.5 c 128,-1,21
 379 163 379 163 373 157.5 c 128,-1,22
 367 152 367 152 363.5 139.5 c 128,-1,23
 360 127 360 127 358.5 111 c 0,24,25
 356.2875 87.4 356.2875 87.4 358.64375 55.7 c 0,26,27
 361.983154779 10.7730476459 361.983154779 10.7730476459 349 -10 c 1,28,29
 341.770491803 -19.6393442623 341.770491803 -19.6393442623 314.885245902 -21.3196721311 c 0,30,31
 264.120603015 -24.4924623116 264.120603015 -24.4924623116 251 -2 c 0,32,33
 247 4 247 4 247.5 12.5 c 128,-1,34
 248 21 248 21 248.5 29.5 c 128,-1,35
 249 38 249 38 249.5 46.5 c 128,-1,36
 250 55 250 55 246 62 c 0,37,38
 243 69 243 69 239 71.5 c 128,-1,39
 235 74 235 74 232 77 c 0,40,41
 225 84 225 84 225 106 c 256,42,43
 225 139.222222222 225 139.222222222 219.5 149.611111111 c 0,44,45
 209.235294118 169 209.235294118 169 175 169 c 256,46,47
 146.444444444 169 146.444444444 169 132.222222222 161 c 0,48,49
 104.382978723 145.340425532 104.382978723 145.340425532 88.6914893617 143.170212766 c 128,-1,50
 73 141 73 141 58.5 141 c 128,-1,51
 44 141 44 141 33 146 c 0,52,53
 8.30705394191 157.22406639 8.30705394191 157.22406639 11.653526971 191.112033195 c 128,-1,54
 15 225 15 225 12.5 250.5 c 128,-1,55
 10 276 10 276 6.5 296 c 128,-1,56
 3 316 3 316 0.5 330.5 c 128,-1,57
 -2 345 -2 345 3 353 c 128,-1,58
 8 361 8 361 10 367.5 c 128,-1,59
 12 374 12 374 13.5 379 c 0,60,61
 17.6440677966 392.813559322 17.6440677966 392.813559322 27 401 c 1,62,63
 56.2881355932 436.796610169 56.2881355932 436.796610169 74 469 c 1,64,65
 67 484 67 484 68 499.5 c 128,-1,66
 69 515 69 515 91 538.5 c 0,67,68
 126.436380773 576.352497644 126.436380773 576.352497644 145.718190386 634.176248822 c 0,69,70
 169.00450208 704.00900416 169.00450208 704.00900416 186 738 c 1,71,72
 197.935483871 759.483870968 197.935483871 759.483870968 220.967741935 748.741935484 c 128,-1,73
 244 738 244 738 275 736.5 c 128,-1,74
 306 735 306 735 327.5 745 c 128,-1,75
 349 755 349 755 366 750 c 128,-1,76
 383 745 383 745 382 720 c 1,0,-1
225 295 m 1,77,78
 224 312 224 312 227 323.5 c 128,-1,79
 230 335 230 335 229 346.5 c 128,-1,80
 228 358 228 358 229 369.5 c 128,-1,81
 230 381 230 381 230.5 393 c 0,82,83
 231.705555556 421.933333333 231.705555556 421.933333333 220 442 c 1,84,85
 218 437 218 437 216.5 432.5 c 128,-1,86
 215 428 215 428 211.5 415.5 c 128,-1,87
 208 403 208 403 196 382.5 c 128,-1,88
 184 362 184 362 179 345.5 c 128,-1,89
 174 329 174 329 169.5 322.5 c 128,-1,90
 165 316 165 316 161.5 310.5 c 0,91,92
 154.36 299.28 154.36 299.28 158.68 290.64 c 128,-1,93
 163 282 163 282 184 286.5 c 128,-1,94
 205 291 205 291 225 295 c 1,77,78
EndSplineSet
EndChar

StartChar: five
Encoding: 53 53 42
Width: 438
Flags: HW
LayerCount: 2
Fore
SplineSet
30.5 637.5 m 128,-1,1
 34 661 34 661 33.5 689.5 c 128,-1,2
 33 718 33 718 51 729.5 c 128,-1,3
 69 741 69 741 85.5 740 c 128,-1,4
 102 739 102 739 123 735.5 c 0,5,6
 182.914285714 725.514285714 182.914285714 725.514285714 223.957142857 733.257142857 c 128,-1,7
 265 741 265 741 292 747 c 128,-1,8
 319 753 319 753 340 755 c 0,9,10
 384.108433735 759.200803213 384.108433735 759.200803213 398.054216867 742.100401606 c 128,-1,11
 412 725 412 725 414 700 c 128,-1,12
 416 675 416 675 413.5 648 c 128,-1,13
 411 621 411 621 407.5 596 c 128,-1,14
 404 571 404 571 407.5 545.5 c 0,15,16
 413.854748603 499.201117318 413.854748603 499.201117318 408 467 c 1,17,18
 404 453 404 453 396.5 440.5 c 128,-1,19
 389 428 389 428 374.5 429.5 c 128,-1,20
 360 431 360 431 353 435.5 c 128,-1,21
 346 440 346 440 339 445 c 0,22,23
 321.5 457.5 321.5 457.5 303.25 452.25 c 0,24,25
 261.462889066 440.229050279 261.462889066 440.229050279 242 465 c 1,26,27
 222.714285714 484.285714286 222.714285714 484.285714286 194.5 473 c 0,28,29
 187 470 187 470 183 466 c 1,30,31
 168.519230769 441.865384615 168.519230769 441.865384615 170.5 376.5 c 0,32,33
 171 360 171 360 175.5 354.5 c 128,-1,34
 180 349 180 349 189 348 c 128,-1,35
 198 347 198 347 210 348.5 c 0,36,37
 247.92 353.24 247.92 353.24 261.96 352.62 c 128,-1,38
 276 352 276 352 296.5 347.5 c 128,-1,39
 317 343 317 343 338 335 c 128,-1,40
 359 327 359 327 373.5 314 c 128,-1,41
 388 301 388 301 384 288 c 128,-1,42
 380 275 380 275 383 267.5 c 128,-1,43
 386 260 386 260 392 252 c 0,44,45
 409.684210526 228.421052632 409.684210526 228.421052632 417.342105263 207.210526316 c 128,-1,46
 425 186 425 186 422 157 c 128,-1,47
 419 128 419 128 404 110 c 128,-1,48
 389 92 389 92 380.5 78 c 128,-1,49
 372 64 372 64 365.5 52.5 c 0,50,51
 348.964912281 23.2456140351 348.964912281 23.2456140351 335.98245614 9.62280701754 c 128,-1,52
 323 -4 323 -4 299.5 -11 c 128,-1,53
 276 -18 276 -18 251 -18.5 c 0,54,55
 211.046728972 -19.2990654206 211.046728972 -19.2990654206 185.523364486 -12.1495327103 c 128,-1,56
 160 -5 160 -5 153.5 -6.5 c 128,-1,57
 147 -8 147 -8 140 -8 c 0,58,59
 123.2 -8 123.2 -8 114 15 c 1,60,61
 103.607929515 37.268722467 103.607929515 37.268722467 83.5 42 c 0,62,63
 75 44 75 44 66 45.5 c 0,64,65
 41.5810055866 49.5698324022 41.5810055866 49.5698324022 35.5 76.5 c 0,66,67
 27.7357320099 110.884615385 27.7357320099 110.884615385 46.5 141.5 c 0,68,69
 56 157 56 157 72 164 c 256,70,71
 88 171 88 171 100 171 c 128,-1,72
 112 171 112 171 120.5 166 c 0,73,74
 134.666666667 157.666666667 134.666666667 157.666666667 146 135 c 1,75,76
 168 130 168 130 179 115 c 0,77,78
 187.189189189 104.081081081 187.189189189 104.081081081 202.594594595 102.540540541 c 0,79,80
 232.684684685 99.5315315315 232.684684685 99.5315315315 253 118 c 256,81,82
 276.76 139.6 276.76 139.6 279.88 144.8 c 0,83,84
 285 153.333333333 285 153.333333333 285 164.166666667 c 128,-1,85
 285 175 285 175 280 187.5 c 128,-1,86
 275 200 275 200 264.5 212.5 c 0,87,88
 220.587261146 264.777070064 220.587261146 264.777070064 147.5 233 c 0,89,90
 136 228 136 228 127 224 c 128,-1,91
 118 220 118 220 110 221.5 c 128,-1,92
 102 223 102 223 93.5 231 c 128,-1,93
 85 239 85 239 69.5 250 c 128,-1,94
 54 261 54 261 46 266 c 128,-1,95
 38 271 38 271 34.5 282.5 c 128,-1,96
 31 294 31 294 39 306.5 c 128,-1,97
 47 319 47 319 46.5 328.5 c 128,-1,98
 46 338 46 338 46 351 c 128,-1,99
 46 364 46 364 45.5 379 c 0,100,101
 44.2093023256 417.720930233 44.2093023256 417.720930233 33.6046511628 432.360465116 c 128,-1,102
 23 447 23 447 21 459 c 128,-1,103
 19 471 19 471 22.5 487.5 c 128,-1,104
 26 504 26 504 29.5 516 c 128,-1,105
 33 528 33 528 36 540.5 c 128,-1,106
 39 553 39 553 39 565.5 c 128,-1,107
 39 578 39 578 33 596 c 128,-1,0
 27 614 27 614 30.5 637.5 c 128,-1,1
EndSplineSet
EndChar

StartChar: six
Encoding: 54 54 43
Width: 424
Flags: HW
LayerCount: 2
Fore
SplineSet
159 337 m 0,0,1
 160 317 160 317 164 312.5 c 128,-1,2
 168 308 168 308 175.5 313 c 128,-1,3
 183 318 183 318 193.5 325.5 c 0,4,5
 225 348 225 348 241 352 c 256,6,7
 259 356.5 259 356.5 266 361.75 c 0,8,9
 278.333333333 371 278.333333333 371 294.666666667 371 c 128,-1,10
 311 371 311 371 327 364.5 c 128,-1,11
 343 358 343 358 357 332 c 0,12,13
 366.483870968 315.741935484 366.483870968 315.741935484 376.241935484 306.870967742 c 0,14,15
 392.941747573 291.689320388 392.941747573 291.689320388 399 272 c 256,16,17
 403 259 403 259 407 247.5 c 128,-1,18
 411 236 411 236 412.5 223.5 c 0,19,20
 418.636033857 172.366384522 418.636033857 172.366384522 383 91.5 c 0,21,22
 370 62 370 62 358 51.5 c 128,-1,23
 346 41 346 41 340.5 30.5 c 128,-1,24
 335 20 335 20 328.5 9.5 c 0,25,26
 313.091370558 -15.3908629442 313.091370558 -15.3908629442 299.545685279 -17.1954314721 c 128,-1,27
 286 -19 286 -19 280 -18.5 c 128,-1,28
 274 -18 274 -18 268.5 -16.5 c 0,29,30
 254.146341463 -12.5853658537 254.146341463 -12.5853658537 236.073170732 -14.7926829268 c 0,31,32
 178.570895754 -21.8155653633 178.570895754 -21.8155653633 160.5 4 c 0,33,34
 151.536585366 16.8048780488 151.536585366 16.8048780488 146.268292683 20.9024390244 c 128,-1,35
 141 25 141 25 128 28 c 0,36,37
 89.8354755784 36.8071979434 89.8354755784 36.8071979434 62.5 134 c 0,38,39
 51.7391304348 172.260869565 51.7391304348 172.260869565 47 177 c 256,40,41
 44 180 44 180 38 184.5 c 128,-1,42
 32 189 32 189 27 197.5 c 0,43,44
 9.16363636364 227.821818182 9.16363636364 227.821818182 22.5 278.5 c 0,45,46
 27.578125 297.796875 27.578125 297.796875 26.2890625 309.3984375 c 128,-1,47
 25 321 25 321 22 338 c 0,48,49
 18 355 18 355 18 368.5 c 128,-1,50
 18 382 18 382 19.5 393.5 c 0,51,52
 23 420.333333333 23 420.333333333 19.5 430.166666667 c 128,-1,53
 16 440 16 440 13.5 448.5 c 128,-1,54
 11 457 11 457 10.5 466 c 0,55,56
 9.41772151899 485.481012658 9.41772151899 485.481012658 24.7088607595 512.240506329 c 128,-1,57
 40 539 40 539 44.5 559 c 128,-1,58
 49 579 49 579 53 596.5 c 128,-1,59
 57 614 57 614 65 632.5 c 128,-1,60
 73 651 73 651 85.5 670 c 0,61,62
 115.678571429 715.871428571 115.678571429 715.871428571 151 730 c 0,63,64
 170 738 170 738 183.5 744.5 c 128,-1,65
 197 751 197 751 208 754.5 c 0,66,67
 230 761.5 230 761.5 258 751 c 1,68,69
 284 749 284 749 292 740 c 128,-1,70
 300 731 300 731 301 726 c 1,71,72
 308 735 308 735 317.5 726 c 128,-1,73
 327 717 327 717 331 710.5 c 128,-1,74
 335 704 335 704 338 702 c 128,-1,75
 341 700 341 700 344.5 698 c 0,76,77
 352.295454545 693.545454545 352.295454545 693.545454545 357 681 c 256,78,79
 360.3 672.2 360.3 672.2 372.65 655.1 c 0,80,81
 393.411764706 626.352941176 393.411764706 626.352941176 397.205882353 610.676470588 c 128,-1,82
 401 595 401 595 402 586.5 c 0,83,84
 404.146341463 568.256097561 404.146341463 568.256097561 396 554 c 1,85,86
 408 541 408 541 408 528.5 c 128,-1,87
 408 516 408 516 406 508.5 c 0,88,89
 397.866666667 478 397.866666667 478 381 478 c 0,90,91
 361 478 361 478 344.5 476.5 c 128,-1,92
 328 475 328 475 318.5 463 c 128,-1,93
 309 451 309 451 296.5 446.5 c 128,-1,94
 284 442 284 442 272 442 c 128,-1,95
 260 442 260 442 250 448 c 128,-1,96
 240 454 240 454 239 466 c 0,97,98
 237 492 237 492 220 494 c 128,-1,99
 203 496 203 496 183 467 c 1,100,101
 154.701030928 422.979381443 154.701030928 422.979381443 159 337 c 0,0,1
208 175.5 m 0,102,103
 215 155 215 155 237 147 c 1,104,105
 254.354037267 139.111801242 254.354037267 139.111801242 271 162 c 1,106,107
 286 177 286 177 289.5 192.5 c 0,108,109
 295.444776119 218.826865672 295.444776119 218.826865672 275 237 c 0,110,111
 267 245 267 245 258.5 253 c 128,-1,112
 250 261 250 261 238.5 257 c 0,113,114
 186.363033175 238.865402844 186.363033175 238.865402844 208 175.5 c 0,102,103
EndSplineSet
EndChar

StartChar: seven
Encoding: 55 55 44
Width: 407
Flags: HW
LayerCount: 2
Fore
SplineSet
28 609 m 1,0,1
 4.45833333333 615.726190476 4.45833333333 615.726190476 12.5 641 c 0,2,3
 16 652 16 652 21.5 665.5 c 0,4,5
 35.6355140187 700.196261682 35.6355140187 700.196261682 34 728 c 1,6,7
 42 733 42 733 46.5 738.5 c 128,-1,8
 51 744 51 744 61.5 744 c 128,-1,9
 72 744 72 744 78 741.5 c 128,-1,10
 84 739 84 739 91 736 c 0,11,12
 109.666666667 728 109.666666667 728 132.333333333 728 c 0,13,14
 190 728 190 728 236 737.5 c 128,-1,15
 282 747 282 747 301 747.5 c 128,-1,16
 320 748 320 748 337 744.5 c 0,17,18
 375.675 736.5375 375.675 736.5375 387 712 c 0,19,20
 394 698 394 698 390.5 682.5 c 128,-1,21
 387 667 387 667 388.5 651 c 128,-1,22
 390 635 390 635 391 615 c 128,-1,23
 392 595 392 595 391.5 572.5 c 0,24,25
 390.338709677 520.241935484 390.338709677 520.241935484 385.669354839 502.620967742 c 128,-1,26
 381 485 381 485 371 464.5 c 128,-1,27
 361 444 361 444 350.5 420.5 c 0,28,29
 320.361111111 353.046296296 320.361111111 353.046296296 316.180555556 326.523148148 c 128,-1,30
 312 300 312 300 311.5 277 c 128,-1,31
 311 254 311 254 304 240.5 c 128,-1,32
 297 227 297 227 283.5 211 c 128,-1,33
 270 195 270 195 267.5 173 c 128,-1,34
 265 151 265 151 259 134.5 c 128,-1,35
 253 118 253 118 251.5 102 c 128,-1,36
 250 86 250 86 249.5 71.5 c 128,-1,37
 249 57 249 57 242.5 44.5 c 128,-1,38
 236 32 236 32 226 27 c 128,-1,39
 216 22 216 22 213.5 17.5 c 128,-1,40
 211 13 211 13 208.5 7.5 c 128,-1,41
 206 2 206 2 202 -4 c 0,42,43
 178.773333333 -38.84 178.773333333 -38.84 119.5 3 c 0,44,45
 106.377880184 12.2626728111 106.377880184 12.2626728111 102.188940092 24.1313364055 c 128,-1,46
 98 36 98 36 95.5 44.5 c 0,47,48
 90 63.2 90 63.2 90 71.6 c 128,-1,49
 90 80 90 80 95.5 96 c 128,-1,50
 101 112 101 112 100 129 c 128,-1,51
 99 146 99 146 105.5 162.5 c 128,-1,52
 112 179 112 179 114 195.5 c 0,53,54
 119.037974684 237.063291139 119.037974684 237.063291139 133.518987342 260.53164557 c 128,-1,55
 148 284 148 284 159 306 c 128,-1,56
 170 328 170 328 181.5 353 c 0,57,58
 227.516642547 453.03617945 227.516642547 453.03617945 221 471.5 c 0,59,60
 218 480 218 480 202.5 476.5 c 128,-1,61
 187 473 187 473 175 473 c 2,62,-1
 152.5 473 l 2,63,64
 128 473 128 473 124.5 471 c 128,-1,65
 121 469 121 469 117 463 c 128,-1,66
 113 457 113 457 106.5 451 c 0,67,68
 89.5138121547 435.320441989 89.5138121547 435.320441989 69.2569060773 436.660220994 c 0,69,70
 39.3019053624 438.641425869 39.3019053624 438.641425869 33 467 c 1,71,72
 9.25954198473 481.244274809 9.25954198473 481.244274809 27 537 c 1,73,74
 22 551 22 551 24 571 c 128,-1,75
 26 591 26 591 28 609 c 1,0,1
EndSplineSet
EndChar

StartChar: eight
Encoding: 56 56 45
Width: 439
Flags: HW
LayerCount: 2
Fore
SplineSet
418 540 m 1,0,1
 428.727272727 518.545454545 428.727272727 518.545454545 420 488 c 1,2,3
 423 481 423 481 423 470.5 c 128,-1,4
 423 460 423 460 420.5 449.5 c 0,5,6
 414.465517241 424.155172414 414.465517241 424.155172414 404.232758621 420.577586207 c 128,-1,7
 394 417 394 417 389 404.5 c 128,-1,8
 384 392 384 392 375 375.5 c 128,-1,9
 366 359 366 359 360.5 354 c 128,-1,10
 355 349 355 349 355 344.5 c 128,-1,11
 355 340 355 340 363 337.5 c 128,-1,12
 371 335 371 335 380 324 c 128,-1,13
 389 313 389 313 390 307 c 128,-1,14
 391 301 391 301 391 295 c 0,15,16
 391 279.666666667 391 279.666666667 396.5 271.333333333 c 128,-1,17
 402 263 402 263 403 250.5 c 128,-1,18
 404 238 404 238 403 225 c 0,19,20
 400.134615385 187.75 400.134615385 187.75 406.067307692 163.375 c 128,-1,21
 412 139 412 139 405 119.5 c 128,-1,22
 398 100 398 100 372 82 c 0,23,24
 355.5 70 355.5 70 351.25 61.5 c 0,25,26
 344.25 47.5 344.25 47.5 330 38 c 256,27,28
 321 32 321 32 309 21 c 128,-1,29
 297 10 297 10 283.5 -0.5 c 0,30,31
 250.714285714 -26 250.714285714 -26 225.357142857 -26 c 128,-1,32
 200 -26 200 -26 178.5 -23.5 c 128,-1,33
 157 -21 157 -21 147 -7 c 0,34,35
 142 -1 142 -1 136 3 c 128,-1,36
 130 7 130 7 124 11 c 0,37,38
 78 41.6666666667 78 41.6666666667 78 90 c 0,39,40
 78 96 78 96 73 106 c 128,-1,41
 68 116 68 116 61 115 c 0,42,43
 40.4622641509 112.066037736 40.4622641509 112.066037736 33.5 134.5 c 0,44,45
 29 149 29 149 31 157.5 c 128,-1,46
 33 166 33 166 37.5 179 c 128,-1,47
 42 192 42 192 44 212 c 0,48,49
 50.3837209302 254.558139535 50.3837209302 254.558139535 69.1918604651 281.279069767 c 128,-1,50
 88 308 88 308 91 332.5 c 128,-1,51
 94 357 94 357 77 369 c 0,52,53
 65.4705882353 377.647058824 65.4705882353 377.647058824 63.7352941176 386.323529412 c 2,54,-1
 61 400 l 2,55,56
 60 405 60 405 52.5 411.5 c 128,-1,57
 45 418 45 418 41.5 426 c 128,-1,58
 38 434 38 434 36 441.5 c 128,-1,59
 34 449 34 449 32.5 456 c 128,-1,60
 31 463 31 463 25.5 473 c 128,-1,61
 20 483 20 483 20.5 493.5 c 128,-1,62
 21 504 21 504 17 523 c 0,63,64
 12 542 12 542 17 561.5 c 128,-1,65
 22 581 22 581 28 603 c 0,66,67
 33 625 33 625 31.5 633.5 c 128,-1,68
 30 642 30 642 31 652.5 c 0,69,70
 32.8047337278 671.449704142 32.8047337278 671.449704142 63 705 c 1,71,72
 78.9813084112 719.38317757 78.9813084112 719.38317757 89.4906542056 720.191588785 c 128,-1,73
 100 721 100 721 106.5 720.5 c 128,-1,74
 113 720 113 720 123 722.5 c 128,-1,75
 133 725 133 725 145.5 730.5 c 128,-1,76
 158 736 158 736 172 728 c 1,77,78
 201.790697674 735.093023256 201.790697674 735.093023256 219 748 c 0,79,80
 223 750 223 750 236 752.5 c 128,-1,81
 249 755 249 755 256 754.5 c 128,-1,82
 263 754 263 754 270.5 754 c 128,-1,83
 278 754 278 754 287.5 749 c 0,84,85
 324.395348837 729.581395349 324.395348837 729.581395349 331.697674419 719.290697674 c 128,-1,86
 339 709 339 709 345.5 704 c 128,-1,87
 352 699 352 699 358 694 c 0,88,89
 373.488372093 681.093023256 373.488372093 681.093023256 375 669 c 1,90,91
 378 669 378 669 385 661 c 128,-1,92
 392 653 392 653 398 642 c 0,93,94
 413.692307692 613.230769231 413.692307692 613.230769231 410 604 c 1,95,96
 414 597 414 597 417 577.5 c 128,-1,97
 420 558 420 558 418 540 c 1,0,1
251 448 m 128,-1,99
 254 461 254 461 258 479 c 128,-1,100
 262 497 262 497 255 509 c 128,-1,101
 248 521 248 521 240 521 c 128,-1,102
 232 521 232 521 225.5 516.5 c 128,-1,103
 219 512 219 512 212.5 509.5 c 128,-1,104
 206 507 206 507 202 506.5 c 128,-1,105
 198 506 198 506 195 505.5 c 0,106,107
 175.535714286 502.255952381 175.535714286 502.255952381 170 475.5 c 0,108,109
 164.851239669 450.614325069 164.851239669 450.614325069 172.425619835 436.307162534 c 128,-1,110
 180 422 180 422 186 414.5 c 0,111,112
 199.2 398 199.2 398 211 398 c 128,-1,113
 223 398 223 398 230.5 405 c 128,-1,114
 238 412 238 412 243 423.5 c 128,-1,98
 248 435 248 435 251 448 c 128,-1,99
254 207.5 m 128,-1,116
 254 225 254 225 248.5 232 c 128,-1,117
 243 239 243 239 235 245 c 128,-1,118
 227 251 227 251 218 259 c 1,119,120
 199 262.454545455 199 262.454545455 199 237 c 0,121,122
 199 229 199 229 193.5 223.5 c 0,123,124
 183.714285714 213.714285714 183.714285714 213.714285714 184.857142857 203.857142857 c 128,-1,125
 186 194 186 194 180.5 181.5 c 128,-1,126
 175 169 175 169 180.5 158 c 128,-1,127
 186 147 186 147 192 144.5 c 128,-1,128
 198 142 198 142 206 140 c 1,129,130
 215.894736842 154.842105263 215.894736842 154.842105263 231 157 c 1,131,132
 234 169 234 169 244 179.5 c 128,-1,115
 254 190 254 190 254 207.5 c 128,-1,116
EndSplineSet
EndChar

StartChar: nine
Encoding: 57 57 46
Width: 446
Flags: HW
LayerCount: 2
Fore
SplineSet
416 570 m 1,0,-1
 411 519 l 2,1,2
 411 509.5 411 509.5 416.5 501.25 c 2,3,-1
 425 488.5 l 2,4,5
 435.826086957 472.260869565 435.826086957 472.260869565 430.413043478 418.130434783 c 128,-1,6
 425 364 425 364 416 324.5 c 0,7,8
 397.101426307 241.556259905 397.101426307 241.556259905 369.550713154 195.278129952 c 128,-1,9
 342 149 342 149 328 114 c 128,-1,10
 314 79 314 79 309 69.5 c 128,-1,11
 304 60 304 60 290 49 c 128,-1,12
 276 38 276 38 268.5 38 c 128,-1,13
 261 38 261 38 256.5 39.5 c 128,-1,14
 252 41 252 41 247 40 c 0,15,16
 233.666666667 37.3333333333 233.666666667 37.3333333333 223.333333333 21.1666666667 c 128,-1,17
 213 5 213 5 202 -8.5 c 128,-1,18
 191 -22 191 -22 176 -22 c 128,-1,19
 161 -22 161 -22 156 -19 c 128,-1,20
 151 -16 151 -16 146.5 -12.5 c 0,21,22
 134.285714286 -3 134.285714286 -3 119.142857143 -2.5 c 128,-1,23
 104 -2 104 -2 97 6.5 c 128,-1,24
 90 15 90 15 89 26.5 c 0,25,26
 86.6275862069 53.7827586207 86.6275862069 53.7827586207 110.313793103 67.8913793103 c 128,-1,27
 134 82 134 82 149.5 92.5 c 128,-1,28
 165 103 165 103 164.5 121.5 c 128,-1,29
 164 140 164 140 173.5 152 c 128,-1,30
 183 164 183 164 196 179 c 128,-1,31
 209 194 209 194 221 213.5 c 128,-1,32
 233 233 233 233 243 253 c 0,33,34
 267.894736842 302.789473684 267.894736842 302.789473684 255 312 c 256,35,36
 248 317 248 317 238 312 c 128,-1,37
 228 307 228 307 215 298.5 c 0,38,39
 161.7 263.65 161.7 263.65 123 283 c 0,40,41
 98.0769230769 295.461538462 98.0769230769 295.461538462 84 333 c 0,42,43
 77 349 77 349 69.5 368 c 128,-1,44
 62 387 62 387 51 392 c 1,45,46
 29.6363636364 404.818181818 29.6363636364 404.818181818 16 443 c 0,47,48
 -0.197183098592 488.352112676 -0.197183098592 488.352112676 22.5 542 c 0,49,50
 37.8092783505 578.18556701 37.8092783505 578.18556701 39.4046391753 610.092783505 c 128,-1,51
 41 642 41 642 58 670 c 128,-1,52
 75 698 75 698 91.5 712 c 128,-1,53
 108 726 108 726 128.5 734.5 c 128,-1,54
 149 743 149 743 172 748 c 0,55,56
 253.45 765.706521739 253.45 765.706521739 287.5 743.5 c 0,57,58
 299 736 299 736 306 728 c 1,59,60
 331 728 331 728 344.5 721.5 c 128,-1,61
 358 715 358 715 371 696.5 c 128,-1,62
 384 678 384 678 394 655.5 c 0,63,64
 416 606 416 606 416 570 c 1,0,-1
190.5 505 m 128,-1,66
 188 494 188 494 191 481.5 c 128,-1,67
 194 469 194 469 198.5 455.5 c 128,-1,68
 203 442 203 442 219 434 c 1,69,70
 236 427 236 427 243 431 c 128,-1,71
 250 435 250 435 261 440 c 1,72,73
 272 447 272 447 277.5 466 c 0,74,75
 288.276091784 503.22649889 288.276091784 503.22649889 266 531.5 c 0,76,77
 253 548 253 548 237 548 c 128,-1,78
 221 548 221 548 212 541.5 c 128,-1,79
 203 535 203 535 198 525.5 c 128,-1,65
 193 516 193 516 190.5 505 c 128,-1,66
EndSplineSet
EndChar

StartChar: colon
Encoding: 58 58 47
Width: 169
Flags: HW
LayerCount: 2
Fore
SplineSet
68.5 349 m 128,-1,1
 80 345 80 345 86 348 c 128,-1,2
 92 351 92 351 98.5 352 c 128,-1,3
 105 353 105 353 111.5 352 c 0,4,5
 127.75 349.5 127.75 349.5 131.875 342.25 c 128,-1,6
 136 335 136 335 141.5 326 c 128,-1,7
 147 317 147 317 144 306 c 256,8,9
 141 295 141 295 140 288 c 128,-1,10
 139 281 139 281 133.5 274.5 c 128,-1,11
 128 268 128 268 120.5 261 c 128,-1,12
 113 254 113 254 103.5 247 c 0,13,14
 81.7857142857 231 81.7857142857 231 63.3928571429 232 c 128,-1,15
 45 233 45 233 39 241.5 c 128,-1,16
 33 250 33 250 25 256 c 0,17,18
 7 269 7 269 15 297.5 c 128,-1,19
 23 326 23 326 27 334 c 128,-1,20
 31 342 31 342 44 347.5 c 128,-1,0
 57 353 57 353 68.5 349 c 128,-1,1
5.5 33 m 128,-1,22
 7 41 7 41 21.5 54 c 128,-1,23
 36 67 36 67 58.5 79 c 128,-1,24
 81 91 81 91 119 86 c 0,25,26
 136.8 84.0222222222 136.8 84.0222222222 147.5 65 c 0,27,28
 156.5 49 156.5 49 153.75 36.5 c 128,-1,29
 151 24 151 24 144 15.5 c 128,-1,30
 137 7 137 7 128 0.5 c 0,31,32
 109.630136986 -12.7671232877 109.630136986 -12.7671232877 95.8150684932 -14.8835616438 c 128,-1,33
 82 -17 82 -17 76.5 -23.5 c 128,-1,34
 71 -30 71 -30 58.5 -27 c 128,-1,35
 46 -24 46 -24 42.5 -14.5 c 128,-1,36
 39 -5 39 -5 31 -2 c 128,-1,37
 23 1 23 1 17 6 c 128,-1,38
 11 11 11 11 7.5 18 c 128,-1,21
 4 25 4 25 5.5 33 c 128,-1,22
EndSplineSet
EndChar

StartChar: semicolon
Encoding: 59 59 48
Width: 155
Flags: HW
LayerCount: 2
Fore
SplineSet
137.5 -4 m 128,-1,1
 134 -8 134 -8 134.5 -19.5 c 128,-1,2
 135 -31 135 -31 131 -37 c 128,-1,3
 127 -43 127 -43 124.5 -51 c 128,-1,4
 122 -59 122 -59 119 -61.5 c 128,-1,5
 116 -64 116 -64 113.5 -72.5 c 128,-1,6
 111 -81 111 -81 104.5 -81.5 c 128,-1,7
 98 -82 98 -82 97 -90.5 c 0,8,9
 95.2941176471 -105 95.2941176471 -105 70 -105 c 0,10,11
 43.8333333333 -105 43.8333333333 -105 41 -88 c 0,12,13
 40 -82 40 -82 49 -69.5 c 128,-1,14
 58 -57 58 -57 64 -54 c 128,-1,15
 70 -51 70 -51 78.5 -46.5 c 128,-1,16
 87 -42 87 -42 87.5 -33.5 c 128,-1,17
 88 -25 88 -25 82 -13 c 1,18,19
 74 -18 74 -18 66 -16 c 128,-1,20
 58 -14 58 -14 48 -16 c 128,-1,21
 38 -18 38 -18 33.5 -12 c 128,-1,22
 29 -6 29 -6 18 -2 c 0,23,24
 6.47222222222 2.61111111111 6.47222222222 2.61111111111 8.23611111111 27.3055555556 c 0,25,26
 11.6296296296 74.8148148148 11.6296296296 74.8148148148 30 84 c 0,27,28
 40 88 40 88 45 91.5 c 128,-1,29
 50 95 50 95 53 97 c 128,-1,30
 56 99 56 99 58.5 99 c 128,-1,31
 61 99 61 99 68 97 c 128,-1,32
 75 95 75 95 83 99 c 128,-1,33
 91 103 91 103 93.5 99.5 c 128,-1,34
 96 96 96 96 100.5 95.5 c 128,-1,35
 105 95 105 95 109.5 93.5 c 0,36,37
 121.909090909 89.3636363636 121.909090909 89.3636363636 125 77 c 1,38,39
 128.6 67.4 128.6 67.4 130.8 65.2 c 0,40,41
 133.5 62.5 133.5 62.5 135 49 c 256,42,43
 136 40 136 40 135.5 35.5 c 128,-1,44
 135 31 135 31 135 28 c 2,45,-1
 135 21.5 l 2,46,47
 135 18 135 18 138 9 c 128,-1,0
 141 0 141 0 137.5 -4 c 128,-1,1
60.5 351.5 m 128,-1,49
 72 348 72 348 78.5 351 c 128,-1,50
 85 354 85 354 91.5 354.5 c 128,-1,51
 98 355 98 355 105 354.5 c 0,52,53
 120.814814815 353.37037037 120.814814815 353.37037037 125.407407407 345.185185185 c 128,-1,54
 130 337 130 337 136 328 c 128,-1,55
 142 319 142 319 138.5 307.5 c 128,-1,56
 135 296 135 296 134 289 c 128,-1,57
 133 282 133 282 127.5 275 c 128,-1,58
 122 268 122 268 114.5 261 c 128,-1,59
 107 254 107 254 97 247 c 0,60,61
 73.125 230.2875 73.125 230.2875 55.0625 231.64375 c 128,-1,62
 37 233 37 233 30.5 241.5 c 128,-1,63
 24 250 24 250 15 256 c 1,64,65
 -1 270 -1 270 9 308 c 0,66,67
 14 329 14 329 18 336.5 c 128,-1,68
 22 344 22 344 35.5 349.5 c 128,-1,48
 49 355 49 355 60.5 351.5 c 128,-1,49
EndSplineSet
EndChar

StartChar: less
Encoding: 60 60 49
Width: 439
Flags: HW
LayerCount: 2
Fore
SplineSet
16.5 298.5 m 128,-1,1
 6 310 6 310 5 322.5 c 128,-1,2
 4 335 4 335 17 356 c 128,-1,3
 30 377 30 377 52.5 391 c 128,-1,4
 75 405 75 405 84 409 c 128,-1,5
 93 413 93 413 99.5 414.5 c 128,-1,6
 106 416 106 416 113 417 c 128,-1,7
 120 418 120 418 133.5 423.5 c 128,-1,8
 147 429 147 429 159.5 437.5 c 128,-1,9
 172 446 172 446 182.5 454 c 128,-1,10
 193 462 193 462 203 470 c 128,-1,11
 213 478 213 478 224 483 c 256,12,13
 322.333333333 527.696969697 322.333333333 527.696969697 348.166666667 546.848484848 c 128,-1,14
 374 566 374 566 385.5 568 c 128,-1,15
 397 570 397 570 405.5 564.5 c 0,16,17
 425.550239234 551.526315789 425.550239234 551.526315789 418 510 c 0,18,19
 411.490981964 472.573146293 411.490981964 472.573146293 378.5 447.5 c 0,20,21
 357.573033708 431.595505618 357.573033708 431.595505618 341.286516854 428.297752809 c 128,-1,22
 325 425 325 425 310 420.5 c 128,-1,23
 295 416 295 416 277.5 398.5 c 0,24,25
 240.375 361.375 240.375 361.375 200 359 c 1,26,27
 164.4 359 164.4 359 135.5 342 c 0,28,29
 118.23627685 331.844868735 118.23627685 331.844868735 131.5 314.5 c 0,30,31
 144.076628352 298.053639847 144.076628352 298.053639847 162.538314176 290.026819923 c 128,-1,32
 181 282 181 282 195.5 282 c 0,33,34
 221.3 282 221.3 282 284 249 c 1,35,36
 294.636363636 241.909090909 294.636363636 241.909090909 308.318181818 239.954545455 c 2,37,-1
 329 237 l 2,38,39
 336 236 336 236 345 231 c 1,40,41
 361.247787611 234.610619469 361.247787611 234.610619469 375.123893805 226.805309735 c 0,42,43
 400 212.8125 400 212.8125 400 203 c 1,44,45
 422 184 422 184 423 167 c 128,-1,46
 424 150 424 150 421.5 143.5 c 128,-1,47
 419 137 419 137 416 135.5 c 128,-1,48
 413 134 413 134 406.5 129.5 c 128,-1,49
 400 125 400 125 392 121 c 128,-1,50
 384 117 384 117 371.5 121 c 128,-1,51
 359 125 359 125 343 130.5 c 128,-1,52
 327 136 327 136 310.5 148.5 c 128,-1,53
 294 161 294 161 289 168.5 c 128,-1,54
 284 176 284 176 280 178.5 c 128,-1,55
 276 181 276 181 258 186.5 c 128,-1,56
 240 192 240 192 216.5 200 c 0,57,58
 147.192893401 223.593908629 147.192893401 223.593908629 124.096446701 235.796954315 c 128,-1,59
 101 248 101 248 80.5 257.5 c 128,-1,60
 60 267 60 267 43.5 277 c 128,-1,0
 27 287 27 287 16.5 298.5 c 128,-1,1
EndSplineSet
EndChar

StartChar: equal
Encoding: 61 61 50
Width: 413
Flags: HW
LayerCount: 2
Fore
SplineSet
350.5 388 m 1,0,-1
 306.5 390 l 2,1,2
 296 390 296 390 281 384.5 c 0,3,4
 252.734693878 374.136054422 252.734693878 374.136054422 136 379 c 0,5,6
 100.615384615 380.538461538 100.615384615 380.538461538 80.3076923077 377.769230769 c 0,7,8
 5 367.5 5 367.5 5 413 c 0,9,10
 5 428 5 428 15 441.5 c 128,-1,11
 25 455 25 455 54 456.5 c 128,-1,12
 83 458 83 458 108 456 c 128,-1,13
 133 454 133 454 149.5 457 c 128,-1,14
 166 460 166 460 172.5 460.5 c 128,-1,15
 179 461 179 461 184 460.5 c 0,16,17
 199.526315789 458.947368421 199.526315789 458.947368421 212.763157895 460.973684211 c 128,-1,18
 226 463 226 463 251 460.5 c 128,-1,19
 276 458 276 458 292 459.5 c 128,-1,20
 308 461 308 461 322.5 463.5 c 128,-1,21
 337 466 337 466 351.5 465.5 c 0,22,23
 386.23255814 464.302325581 386.23255814 464.302325581 393 444 c 1,24,25
 403 421 403 421 393.5 408 c 0,26,27
 378.884615385 388 378.884615385 388 350.5 388 c 1,0,-1
319.5 214 m 1,28,-1
 203 219 l 1,29,30
 116 219 116 219 71.5 212.5 c 128,-1,31
 27 206 27 206 18.5 212.5 c 128,-1,32
 10 219 10 219 7.5 233 c 128,-1,33
 5 247 5 247 23 266 c 128,-1,34
 41 285 41 285 83.5 289.5 c 128,-1,35
 126 294 126 294 152.5 293 c 128,-1,36
 179 292 179 292 194.5 292 c 128,-1,37
 210 292 210 292 223.5 291 c 128,-1,38
 237 290 237 290 252.5 289.5 c 0,39,40
 294.674418605 288.139534884 294.674418605 288.139534884 322.837209302 296.569767442 c 0,41,42
 372.907537688 311.557788945 372.907537688 311.557788945 393 299 c 1,43,44
 406.423423423 288.261261261 406.423423423 288.261261261 407.211711712 270.130630631 c 0,45,46
 408.744680851 234.872340426 408.744680851 234.872340426 387 224 c 1,47,48
 363 214 363 214 319.5 214 c 1,28,-1
EndSplineSet
EndChar

StartChar: greater
Encoding: 62 62 51
Width: 439
Flags: HW
LayerCount: 2
Fore
SplineSet
421.5 356 m 128,-1,1
 435 335 435 335 433.5 322.5 c 128,-1,2
 432 310 432 310 422 298.5 c 128,-1,3
 412 287 412 287 395.5 277 c 128,-1,4
 379 267 379 267 359 257.5 c 128,-1,5
 339 248 339 248 318.5 237.5 c 128,-1,6
 298 227 298 227 272 217.5 c 128,-1,7
 246 208 246 208 222.5 200 c 128,-1,8
 199 192 199 192 181 186.5 c 128,-1,9
 163 181 163 181 159.5 178.5 c 128,-1,10
 156 176 156 176 151 168.5 c 128,-1,11
 146 161 146 161 128.5 148.5 c 0,12,13
 109.25 134.75 109.25 134.75 68 121 c 0,14,15
 55 117 55 117 47 121 c 128,-1,16
 39 125 39 125 33 129.5 c 128,-1,17
 27 134 27 134 23.5 135.5 c 128,-1,18
 20 137 20 137 17.5 143.5 c 128,-1,19
 15 150 15 150 16 167 c 128,-1,20
 17 184 17 184 39 203 c 1,21,22
 39 212.8125 39 212.8125 52.5 220.40625 c 0,23,24
 78 234.75 78 234.75 93 231 c 1,25,26
 102 236 102 236 109.5 237 c 128,-1,27
 117 238 117 238 124 239 c 0,28,29
 144.363636364 241.909090909 144.363636364 241.909090909 159.181818182 250.454545455 c 0,30,31
 213.882978723 282 213.882978723 282 249 282 c 0,32,33
 266.714285714 282 266.714285714 282 283.857142857 294 c 0,34,35
 329.113207547 325.679245283 329.113207547 325.679245283 303 342 c 0,36,37
 275.8 359 275.8 359 248.9 359.5 c 0,38,39
 199.583333333 360.416666667 199.583333333 360.416666667 162 398 c 0,40,41
 144 416 144 416 129.5 420.5 c 128,-1,42
 115 425 115 425 105.5 427 c 128,-1,43
 96 429 96 429 84.5 433.5 c 128,-1,44
 73 438 73 438 60 447.5 c 0,45,46
 28.9195402299 470.212643678 28.9195402299 470.212643678 22 510 c 1,47,48
 12.5875831486 551.414634146 12.5875831486 551.414634146 34 564.5 c 0,49,50
 51.9660377358 575.479245283 51.9660377358 575.479245283 76 558 c 1,51,52
 101.983606557 537.213114754 101.983606557 537.213114754 152.491803279 512.606557377 c 128,-1,53
 203 488 203 488 214.5 483 c 128,-1,54
 226 478 226 478 235.5 470 c 128,-1,55
 245 462 245 462 255.5 454 c 0,56,57
 298.638554217 421.13253012 298.638554217 421.13253012 325.5 417 c 0,58,59
 350.379310345 413.172413793 350.379310345 413.172413793 379.189655172 395.086206897 c 128,-1,0
 408 377 408 377 421.5 356 c 128,-1,1
EndSplineSet
EndChar

StartChar: question
Encoding: 63 63 52
Width: 394
Flags: HW
LayerCount: 2
Fore
SplineSet
242 730 m 128,-1,1
 249 732 249 732 266.415730337 731.286516854 c 128,-1,2
 283.831460674 730.573033708 283.831460674 730.573033708 294.415730337 720.786516854 c 128,-1,3
 305 711 305 711 318 707 c 128,-1,4
 331 703 331 703 335.5 693.5 c 128,-1,5
 340 684 340 684 343 680.5 c 128,-1,6
 346 677 346 677 349.5 673.5 c 0,7,8
 357.75 665.25 357.75 665.25 360.875 652.125 c 128,-1,9
 364 639 364 639 367 633 c 128,-1,10
 370 627 370 627 372 622 c 0,11,12
 377.238095238 608.904761905 377.238095238 608.904761905 376.119047619 596.452380952 c 128,-1,13
 375 584 375 584 378 576.5 c 128,-1,14
 381 569 381 569 378.5 555.5 c 128,-1,15
 376 542 376 542 378 529 c 128,-1,16
 380 516 380 516 372 500.5 c 128,-1,17
 364 485 364 485 353.5 470.5 c 128,-1,18
 343 456 343 456 341 436.5 c 0,19,20
 337.483221477 402.211409396 337.483221477 402.211409396 305 388 c 0,21,22
 289 380 289 380 281 367.5 c 128,-1,23
 273 355 273 355 268 338.5 c 128,-1,24
 263 322 263 322 260 304.5 c 128,-1,25
 257 287 257 287 254.5 269 c 0,26,27
 248.76056338 227.676056338 248.76056338 227.676056338 250.38028169 215.838028169 c 128,-1,28
 252 204 252 204 249 192 c 128,-1,29
 246 180 246 180 240 169 c 0,30,31
 225.428571429 142.285714286 225.428571429 142.285714286 210 144 c 1,32,33
 197 144 197 144 188 142 c 0,34,35
 173.717391304 138.826086957 173.717391304 138.826086957 166 145 c 256,36,37
 149.469387755 158.224489796 149.469387755 158.224489796 144.234693878 168.112244898 c 0,38,39
 133.549295775 188.295774648 133.549295775 188.295774648 138.274647887 213.647887324 c 128,-1,40
 143 239 143 239 140.5 255.5 c 128,-1,41
 138 272 138 272 133.5 287.5 c 0,42,43
 116.492371706 346.081830791 116.492371706 346.081830791 143 387.5 c 0,44,45
 151 400 151 400 159 403 c 1,46,47
 167 408 167 408 172 417 c 128,-1,48
 177 426 177 426 184.5 426 c 128,-1,49
 192 426 192 426 203.5 436 c 128,-1,50
 215 446 215 446 225.5 461.5 c 0,51,52
 252.976047904 502.05988024 252.976047904 502.05988024 243 527 c 256,53,54
 234.363636364 548.590909091 234.363636364 548.590909091 218 544.5 c 0,55,56
 212 543 212 543 207 542.5 c 128,-1,57
 202 542 202 542 199 551 c 0,58,59
 190.848101266 569.341772152 190.848101266 569.341772152 170 570.5 c 0,60,61
 148.4 571.7 148.4 571.7 137 547 c 256,62,63
 131 534 131 534 128 526 c 128,-1,64
 125 518 125 518 122 512.5 c 0,65,66
 116.731707317 502.841463415 116.731707317 502.841463415 103.365853659 500.920731707 c 128,-1,67
 90 499 90 499 84 500.5 c 128,-1,68
 78 502 78 502 74.5 504 c 128,-1,69
 71 506 71 506 68.5 508 c 128,-1,70
 66 510 66 510 61.5 510 c 128,-1,71
 57 510 57 510 49 513.5 c 128,-1,72
 41 517 41 517 33 525 c 0,73,74
 12.75 545.25 12.75 545.25 6.875 573.125 c 128,-1,75
 1 601 1 601 -4 612.5 c 128,-1,76
 -9 624 -9 624 -1 633 c 256,77,78
 7 642 7 642 13.5 652.5 c 0,79,80
 31.0072992701 680.781021898 31.0072992701 680.781021898 38.003649635 683.890510949 c 128,-1,81
 45 687 45 687 50 689 c 0,82,83
 62.5 694 62.5 694 70.75 706 c 128,-1,84
 79 718 79 718 83.5 722.5 c 128,-1,85
 88 727 88 727 93 729 c 128,-1,86
 98 731 98 731 104 731 c 128,-1,87
 110 731 110 731 118.5 731.5 c 128,-1,88
 127 732 127 732 132 734 c 128,-1,89
 137 736 137 736 141 737.5 c 0,90,91
 151.117647059 741.294117647 151.117647059 741.294117647 161.558823529 738.147058824 c 128,-1,92
 172 735 172 735 175 732.5 c 128,-1,93
 178 730 178 730 180 728 c 0,94,95
 185.666666667 722.333333333 185.666666667 722.333333333 199 721 c 256,96,97
 209 720 209 720 215.5 722 c 128,-1,98
 222 724 222 724 228.5 726 c 128,-1,0
 235 728 235 728 242 730 c 128,-1,1
173.5 81 m 128,-1,100
 184 77 184 77 192.5 81.5 c 128,-1,101
 201 86 201 86 215 84.5 c 128,-1,102
 229 83 229 83 233.5 74.5 c 128,-1,103
 238 66 238 66 244 58 c 128,-1,104
 250 50 250 50 247 39.5 c 128,-1,105
 244 29 244 29 243 22 c 128,-1,106
 242 15 242 15 236.5 9 c 128,-1,107
 231 3 231 3 223.5 -4 c 128,-1,108
 216 -11 216 -11 207 -17.5 c 0,109,110
 184.533333333 -33.7259259259 184.533333333 -33.7259259259 167.266666667 -32.362962963 c 128,-1,111
 150 -31 150 -31 144 -22.5 c 128,-1,112
 138 -14 138 -14 130.5 -8.5 c 0,113,114
 115.605633803 2.42253521127 115.605633803 2.42253521127 125 40 c 256,115,116
 130 60 130 60 134 67 c 128,-1,117
 138 74 138 74 150.5 79.5 c 128,-1,99
 163 85 163 85 173.5 81 c 128,-1,100
EndSplineSet
EndChar

StartChar: at
Encoding: 64 64 53
Width: 703
Flags: HW
LayerCount: 2
Fore
SplineSet
690 438 m 2,0,-1
 689 414 l 2,1,2
 689 408 689 408 692 396.5 c 0,3,4
 697.090497738 376.986425339 697.090497738 376.986425339 681 354 c 1,5,6
 681 317.142857143 681 317.142857143 670 303 c 0,7,8
 652.631578947 280.894736842 652.631578947 280.894736842 648.315789474 265.947368421 c 128,-1,9
 644 251 644 251 639.5 246 c 128,-1,10
 635 241 635 241 629.5 236.5 c 0,11,12
 612.153846154 222.307692308 612.153846154 222.307692308 607.076923077 213.153846154 c 128,-1,13
 602 204 602 204 594.5 199 c 128,-1,14
 587 194 587 194 575 184 c 256,15,16
 538.454545455 153.545454545 538.454545455 153.545454545 524 168 c 1,17,18
 511.857142857 182.571428571 511.857142857 182.571428571 503 187 c 0,19,20
 486.187817259 197.507614213 486.187817259 197.507614213 488 241 c 1,21,22
 465 233 465 233 453.5 222 c 128,-1,23
 442 211 442 211 427 190.5 c 128,-1,24
 412 170 412 170 391 162.5 c 128,-1,25
 370 155 370 155 345 149.5 c 128,-1,26
 320 144 320 144 303.5 149 c 0,27,28
 283.131034483 155.172413793 283.131034483 155.172413793 267 195.5 c 0,29,30
 260.5 211.75 260.5 211.75 251.25 216.375 c 128,-1,31
 242 221 242 221 230 224 c 256,32,33
 202.99009901 230.752475248 202.99009901 230.752475248 180.5 288 c 0,34,35
 175 302 175 302 171 312 c 0,36,37
 154.583333333 344.833333333 154.583333333 344.833333333 195 458 c 0,38,39
 206 486 206 486 218 501.5 c 128,-1,40
 230 517 230 517 241 528.5 c 128,-1,41
 252 540 252 540 258.5 548.5 c 128,-1,42
 265 557 265 557 272.5 564.5 c 0,43,44
 288.571428571 580.571428571 288.571428571 580.571428571 310.285714286 582.785714286 c 128,-1,45
 332 585 332 585 342 586.5 c 128,-1,46
 352 588 352 588 358 588 c 0,47,48
 368 588 368 588 374 580 c 128,-1,49
 380 572 380 572 384.5 570 c 128,-1,50
 389 568 389 568 393 567 c 128,-1,51
 397 566 397 566 401.5 565 c 0,52,53
 409.829787234 563.14893617 409.829787234 563.14893617 415.414893617 553.574468085 c 128,-1,54
 421 544 421 544 424 539.5 c 0,55,56
 430.5 529.75 430.5 529.75 438.25 533.375 c 128,-1,57
 446 537 446 537 448 543.5 c 128,-1,58
 450 550 450 550 452 558 c 0,59,60
 461.856060606 597.424242424 461.856060606 597.424242424 494.5 589 c 0,61,62
 510 585 510 585 514.5 572 c 128,-1,63
 519 559 519 559 522 556 c 128,-1,64
 525 553 525 553 527.5 552 c 0,65,66
 540.424242424 546.83030303 540.424242424 546.83030303 533.212121212 525.915151515 c 128,-1,67
 526 505 526 505 519 488 c 1,68,69
 505.846153846 374 505.846153846 374 509.923076923 347.5 c 128,-1,70
 514 321 514 321 521.5 310.5 c 128,-1,71
 529 300 529 300 540.5 298.5 c 128,-1,72
 552 297 552 297 559 302 c 256,73,74
 566 307 566 307 574 323 c 2,75,-1
 588 351 l 1,76,77
 608.155688623 394.670658683 608.155688623 394.670658683 602.077844311 414.835329341 c 128,-1,78
 596 435 596 435 597.5 452 c 128,-1,79
 599 469 599 469 601 486 c 0,80,81
 606.098039216 529.333333333 606.098039216 529.333333333 593.049019608 550.666666667 c 128,-1,82
 580 572 580 572 575 582.5 c 128,-1,83
 570 593 570 593 567 599 c 0,84,85
 561.666666667 609.666666667 561.666666667 609.666666667 555 613 c 0,86,87
 550 615 550 615 545.5 622.5 c 128,-1,88
 541 630 541 630 534 638.5 c 0,89,90
 515.291814947 661.217081851 515.291814947 661.217081851 491.145907473 664.608540925 c 128,-1,91
 467 668 467 668 451.5 669 c 128,-1,92
 436 670 436 670 422 671 c 0,93,94
 392.833333333 673.083333333 392.833333333 673.083333333 375.416666667 681.541666667 c 128,-1,95
 358 690 358 690 341 690.5 c 128,-1,96
 324 691 324 691 307.5 688 c 0,97,98
 272.52 681.64 272.52 681.64 258.26 670.82 c 128,-1,99
 244 660 244 660 237.5 655 c 128,-1,100
 231 650 231 650 224 644.5 c 0,101,102
 216.588235294 638.676470588 216.588235294 638.676470588 188 622 c 256,103,104
 168.25 610.479166667 168.25 610.479166667 158.625 595.239583333 c 128,-1,105
 149 580 149 580 143.5 569.5 c 128,-1,106
 138 559 138 559 131 549 c 128,-1,107
 124 539 124 539 122 524 c 128,-1,108
 120 509 120 509 110 495 c 256,109,110
 100 481 100 481 97 465 c 128,-1,111
 94 449 94 449 86.5 429.5 c 128,-1,112
 79 410 79 410 76.5 392.5 c 128,-1,113
 74 375 74 375 73.5 355.5 c 128,-1,114
 73 336 73 336 73.5 316.5 c 128,-1,115
 74 297 74 297 74 279 c 1,116,117
 80 268 80 268 85 248 c 128,-1,118
 90 228 90 228 104 213 c 1,119,120
 112 206 112 206 123 196.5 c 128,-1,121
 134 187 134 187 151 172 c 128,-1,122
 168 157 168 157 177.5 149 c 128,-1,123
 187 141 187 141 198 131 c 0,124,125
 214.5 116 214.5 116 244.25 89.5 c 128,-1,126
 274 63 274 63 291.5 57 c 128,-1,127
 309 51 309 51 327.5 49.5 c 128,-1,128
 346 48 346 48 366.5 49 c 128,-1,129
 387 50 387 50 405 49 c 128,-1,130
 423 48 423 48 432.5 51 c 128,-1,131
 442 54 442 54 460.5 62 c 128,-1,132
 479 70 479 70 489.5 70.5 c 128,-1,133
 500 71 500 71 509.5 74.5 c 0,134,135
 527.681034483 81.1982758621 527.681034483 81.1982758621 533.340517241 73.099137931 c 128,-1,136
 539 65 539 65 529.5 56.5 c 128,-1,137
 520 48 520 48 499 37.5 c 128,-1,138
 478 27 478 27 464.5 17 c 128,-1,139
 451 7 451 7 436 4.5 c 128,-1,140
 421 2 421 2 414.5 -2.5 c 128,-1,141
 408 -7 408 -7 400.5 -11.5 c 0,142,143
 381.333333333 -23 381.333333333 -23 355.666666667 -23 c 128,-1,144
 330 -23 330 -23 317 -19 c 128,-1,145
 304 -15 304 -15 295 -10 c 128,-1,146
 286 -5 286 -5 278 1 c 128,-1,147
 270 7 270 7 254.5 11 c 128,-1,148
 239 15 239 15 228.5 16.5 c 128,-1,149
 218 18 218 18 210 19.5 c 0,150,151
 164.91147541 27.9540983607 164.91147541 27.9540983607 142.5 52.5 c 0,152,153
 132 64 132 64 124 75 c 128,-1,154
 116 86 116 86 106.5 96 c 128,-1,155
 97 106 97 106 79.5 111 c 128,-1,156
 62 116 62 116 52.5 128 c 128,-1,157
 43 140 43 140 38 155 c 128,-1,158
 33 170 33 170 29.5 186.5 c 128,-1,159
 26 203 26 203 17.5 225 c 128,-1,160
 9 247 9 247 8.5 276.5 c 128,-1,161
 8 306 8 306 6 329.5 c 128,-1,162
 4 353 4 353 5 363.5 c 128,-1,163
 6 374 6 374 8 384 c 128,-1,164
 10 394 10 394 12.5 406 c 128,-1,165
 15 418 15 418 17 436 c 0,166,167
 22.5 469 22.5 469 28.25 480.5 c 0,168,169
 40 504 40 504 46.5 523.5 c 0,170,171
 54.5384615385 547.615384615 54.5384615385 547.615384615 105 617 c 1,172,173
 163.205607477 688.140186916 163.205607477 688.140186916 205 701 c 256,174,175
 218 705 218 705 227.5 711 c 128,-1,176
 237 717 237 717 247 723 c 0,177,178
 271.027777778 737.416666667 271.027777778 737.416666667 297 742 c 256,179,180
 314 745 314 745 327.5 749 c 128,-1,181
 341 753 341 753 352.5 756 c 0,182,183
 379.923076923 763.153846154 379.923076923 763.153846154 398.461538462 760.576923077 c 128,-1,184
 417 758 417 758 427.5 757.5 c 128,-1,185
 438 757 438 757 446.5 756.5 c 0,186,187
 463.793103448 755.482758621 463.793103448 755.482758621 476.896551724 749.74137931 c 128,-1,188
 490 744 490 744 502.5 739.5 c 128,-1,189
 515 735 515 735 529 728.5 c 0,190,191
 576.310344828 706.534482759 576.310344828 706.534482759 611 654.5 c 0,192,193
 618 644 618 644 622 636.5 c 0,194,195
 632.836363636 616.181818182 632.836363636 616.181818182 641.918181818 606.590909091 c 128,-1,196
 651 597 651 597 654 590.5 c 128,-1,197
 657 584 657 584 659 578 c 2,198,-1
 663.5 564.5 l 2,199,200
 666 557 666 557 674.5 538.5 c 128,-1,201
 683 520 683 520 684 501.5 c 128,-1,202
 685 483 685 483 687.5 464 c 128,-1,203
 690 445 690 445 690 438 c 2,0,-1
416 326.5 m 128,-1,205
 423 335 423 335 423.5 346.5 c 128,-1,206
 424 358 424 358 426.5 363 c 128,-1,207
 429 368 429 368 432 375 c 0,208,209
 439 391.333333333 439 391.333333333 439 411.166666667 c 128,-1,210
 439 431 439 431 434.5 441.5 c 128,-1,211
 430 452 430 452 424 461.5 c 128,-1,212
 418 471 418 471 411.5 481 c 128,-1,213
 405 491 405 491 401 505 c 0,214,215
 396 519 396 519 383.5 519 c 128,-1,216
 371 519 371 519 364 517 c 128,-1,217
 357 515 357 515 353.5 512 c 128,-1,218
 350 509 350 509 348 505.5 c 0,219,220
 340.451612903 492.290322581 340.451612903 492.290322581 330 483 c 256,221,222
 312.620689655 467.551724138 312.620689655 467.551724138 308.310344828 456.775862069 c 128,-1,223
 304 446 304 446 302 436.5 c 128,-1,224
 300 427 300 427 294.5 407.5 c 128,-1,225
 289 388 289 388 283.5 363 c 128,-1,226
 278 338 278 338 284.5 324 c 128,-1,227
 291 310 291 310 299 302 c 128,-1,228
 307 294 307 294 316 287 c 0,229,230
 335.285714286 272 335.285714286 272 348.642857143 272 c 128,-1,231
 362 272 362 272 371.5 278.5 c 128,-1,232
 381 285 381 285 391 292 c 1,233,234
 400 301 400 301 404.5 309.5 c 128,-1,204
 409 318 409 318 416 326.5 c 128,-1,205
EndSplineSet
EndChar

StartChar: A
Encoding: 65 65 54
Width: 456
Flags: HW
LayerCount: 2
Fore
SplineSet
407 -6 m 1,0,1
 401 -17 401 -17 391 -22.5 c 128,-1,2
 381 -28 381 -28 371 -20.5 c 128,-1,3
 361 -13 361 -13 356.5 -14 c 128,-1,4
 352 -15 352 -15 348.5 -15.5 c 0,5,6
 339.416666667 -16.7976190476 339.416666667 -16.7976190476 330.208333333 -2.89880952381 c 128,-1,7
 321 11 321 11 320 19.5 c 128,-1,8
 319 28 319 28 320.5 35.5 c 0,9,10
 324.25862069 54.2931034483 324.25862069 54.2931034483 314.629310345 68.1465517241 c 128,-1,11
 305 82 305 82 301.5 89 c 128,-1,12
 298 96 298 96 298 109.5 c 128,-1,13
 298 123 298 123 296.5 126.5 c 128,-1,14
 295 130 295 130 293.5 132.5 c 0,15,16
 288.605263158 140.657894737 288.605263158 140.657894737 290.302631579 159.828947368 c 128,-1,17
 292 179 292 179 285 186.5 c 128,-1,18
 278 194 278 194 266.5 198 c 128,-1,19
 255 202 255 202 248.5 195.5 c 128,-1,20
 242 189 242 189 236.5 180 c 128,-1,21
 231 171 231 171 223 164.5 c 128,-1,22
 215 158 215 158 202.5 161 c 128,-1,23
 190 164 190 164 175 155 c 128,-1,24
 160 146 160 146 157 133.5 c 128,-1,25
 154 121 154 121 150 108 c 128,-1,26
 146 95 146 95 147.5 84 c 128,-1,27
 149 73 149 73 147.5 62.5 c 128,-1,28
 146 52 146 52 142.5 41.5 c 0,29,30
 134.294117647 16.8823529412 134.294117647 16.8823529412 123 15 c 0,31,32
 114 14 114 14 104 15 c 1,33,34
 92.7735849057 -5.20754716981 92.7735849057 -5.20754716981 78.3867924528 -8.60377358491 c 0,35,36
 36.9913606911 -18.3758099352 36.9913606911 -18.3758099352 29 4 c 0,37,38
 23.8780487805 16.8048780488 23.8780487805 16.8048780488 22.9390243902 38.4024390244 c 0,39,40
 21.1320754717 79.9622641509 21.1320754717 79.9622641509 14.0660377358 94.9811320755 c 128,-1,41
 7 110 7 110 10.5 131 c 128,-1,42
 14 152 14 152 13 173 c 128,-1,43
 12 194 12 194 13 205 c 128,-1,44
 14 216 14 216 15.5 225 c 128,-1,45
 17 234 17 234 19 242.5 c 128,-1,46
 21 251 21 251 21.5 262.5 c 128,-1,47
 22 274 22 274 25 289 c 128,-1,48
 28 304 28 304 31 320 c 0,49,50
 38.5306122449 360.163265306 38.5306122449 360.163265306 36.7653061224 380.081632653 c 128,-1,51
 35 400 35 400 40.5 414 c 128,-1,52
 46 428 46 428 53 439 c 0,53,54
 71.3263888889 467.798611111 71.3263888889 467.798611111 70.1631944444 486.399305556 c 128,-1,55
 69 505 69 505 68.5 515.5 c 128,-1,56
 68 526 68 526 69 537 c 0,57,58
 73.8823529412 590.705882353 73.8823529412 590.705882353 120 706 c 1,59,60
 123 717 123 717 139 723 c 128,-1,61
 155 729 155 729 171.5 724.5 c 128,-1,62
 188 720 188 720 198.5 720.5 c 128,-1,63
 209 721 209 721 216.5 728.5 c 128,-1,64
 224 736 224 736 232.5 743 c 128,-1,65
 241 750 241 750 253 754.5 c 128,-1,66
 265 759 265 759 280 759 c 128,-1,67
 295 759 295 759 312 750 c 256,68,69
 340.005780347 735.173410405 340.005780347 735.173410405 349.002890173 722.086705202 c 128,-1,70
 358 709 358 709 361 701 c 128,-1,71
 364 693 364 693 371 679 c 128,-1,72
 378 665 378 665 377.5 654 c 128,-1,73
 377 643 377 643 381 628 c 256,74,75
 385 613 385 613 381 593 c 128,-1,76
 377 573 377 573 381 553.5 c 128,-1,77
 385 534 385 534 385 527 c 128,-1,78
 385 520 385 520 385.5 514 c 0,79,80
 386.87755102 497.469387755 386.87755102 497.469387755 393 484 c 256,81,82
 399.176470588 470.411764706 399.176470588 470.411764706 396.588235294 449.705882353 c 128,-1,83
 394 429 394 429 395.5 415.5 c 128,-1,84
 397 402 397 402 405.5 388.5 c 0,85,86
 423.025454545 360.665454545 423.025454545 360.665454545 418 328 c 0,87,88
 416.740740741 319.185185185 416.740740741 319.185185185 418.37037037 308.592592593 c 128,-1,89
 420 298 420 298 420 289.5 c 128,-1,90
 420 281 420 281 418 268 c 256,91,92
 415.052631579 248.842105263 415.052631579 248.842105263 418.526315789 221.921052632 c 0,93,94
 425 171.75 425 171.75 425 154.875 c 128,-1,95
 425 138 425 138 426 126.5 c 128,-1,96
 427 115 427 115 428 102 c 0,97,98
 430.65060241 67.5421686747 430.65060241 67.5421686747 428.328612463 33.4863161254 c 128,-1,99
 426.006622517 -0.569536423841 426.006622517 -0.569536423841 407 -6 c 1,0,1
252.324324324 444.243243243 m 128,-1,101
 249 472 249 472 249 485.5 c 128,-1,102
 249 499 249 499 247 509 c 0,103,104
 244 525 244 525 230 513 c 1,105,106
 213.833333333 529.166666667 213.833333333 529.166666667 204.5 514.5 c 0,107,108
 197 502.714285714 197 502.714285714 197 478 c 1,109,110
 195 461 195 461 189.5 447 c 128,-1,111
 184 433 184 433 182 416.5 c 0,112,113
 179.490909091 395.8 179.490909091 395.8 171.745454545 366.9 c 128,-1,114
 164 338 164 338 173.5 324 c 128,-1,115
 183 310 183 310 197 314 c 128,-1,116
 211 318 211 318 218 318.5 c 128,-1,117
 225 319 225 319 230.5 319.5 c 0,118,119
 241.805555556 320.527777778 241.805555556 320.527777778 248.402777778 329.263888889 c 128,-1,120
 255 338 255 338 255.5 344.5 c 128,-1,121
 256 351 256 351 255 357.5 c 0,122,123
 251.818181818 378.181818182 251.818181818 378.181818182 253.733415233 397.334152334 c 128,-1,100
 255.648648649 416.486486486 255.648648649 416.486486486 252.324324324 444.243243243 c 128,-1,101
EndSplineSet
EndChar

StartChar: B
Encoding: 66 66 55
Width: 479
Flags: HW
LayerCount: 2
Fore
SplineSet
63 132.5 m 1,0,-1
 57 169 l 1,1,2
 57 179.142857143 57 179.142857143 53 182.571428571 c 128,-1,3
 49 186 49 186 40 194 c 128,-1,4
 31 202 31 202 29 219.5 c 128,-1,5
 27 237 27 237 28.5 260 c 0,6,7
 30.4090909091 289.272727273 30.4090909091 289.272727273 39 358 c 1,8,9
 32.25 443.5 32.25 443.5 30.125 469.25 c 0,10,11
 19.2454019968 601.085128744 19.2454019968 601.085128744 36 632.5 c 0,12,13
 40 640 40 640 44 644 c 0,14,15
 52.3571428571 652.357142857 52.3571428571 652.357142857 50.6785714286 669.678571429 c 0,16,17
 47.037437005 707.251979842 47.037437005 707.251979842 90 721 c 0,18,19
 103 725 103 725 115 731 c 128,-1,20
 127 737 127 737 139.5 741.5 c 0,21,22
 168.860465116 752.069767442 168.860465116 752.069767442 189.430232558 741.534883721 c 128,-1,23
 210 731 210 731 232 733.5 c 128,-1,24
 254 736 254 736 277 739.5 c 128,-1,25
 300 743 300 743 321.5 744 c 128,-1,26
 343 745 343 745 358.5 734 c 128,-1,27
 374 723 374 723 391.5 710 c 128,-1,28
 409 697 409 697 423 681 c 0,29,30
 454.388535032 645.127388535 454.388535032 645.127388535 449 611 c 1,31,32
 465 573 465 573 456 539 c 0,33,34
 453.411764706 529.941176471 453.411764706 529.941176471 455.205882353 520.970588235 c 0,35,36
 458.777777778 503.111111111 458.777777778 503.111111111 454.888888889 489.055555556 c 128,-1,37
 451 475 451 475 453.5 459.5 c 128,-1,38
 456 444 456 444 449 428 c 128,-1,39
 442 412 442 412 440 398 c 128,-1,40
 438 384 438 384 430 374.5 c 128,-1,41
 422 365 422 365 415.5 363.5 c 128,-1,42
 409 362 409 362 403.5 357.5 c 128,-1,43
 398 353 398 353 395.5 348 c 128,-1,44
 393 343 393 343 388.5 337 c 0,45,46
 377.4 322.2 377.4 322.2 357 312 c 1,47,48
 368 293 368 293 383 282.5 c 128,-1,49
 398 272 398 272 408.5 259.5 c 128,-1,50
 419 247 419 247 419.5 236 c 128,-1,51
 420 225 420 225 424 214 c 128,-1,52
 428 203 428 203 427 196.5 c 128,-1,53
 426 190 426 190 424.5 182.5 c 128,-1,54
 423 175 423 175 421 166.5 c 128,-1,55
 419 158 419 158 419.5 147.5 c 128,-1,56
 420 137 420 137 417.5 129.5 c 128,-1,57
 415 122 415 122 410.5 114.5 c 128,-1,58
 406 107 406 107 400 98 c 128,-1,59
 394 89 394 89 389 76 c 256,60,61
 382.803418803 59.8888888889 382.803418803 59.8888888889 369.401709402 47.4444444444 c 128,-1,62
 356 35 356 35 348.5 27.5 c 128,-1,63
 341 20 341 20 334 7 c 256,64,65
 321.027522936 -17.0917431193 321.027522936 -17.0917431193 298 -24 c 0,66,67
 276.842105263 -30.3473684211 276.842105263 -30.3473684211 266 -13 c 0,68,69
 259.873417722 -2.27848101266 259.873417722 -2.27848101266 244.436708861 -9.13924050633 c 128,-1,70
 229 -16 229 -16 220 -20.5 c 128,-1,71
 211 -25 211 -25 198.5 -23.5 c 128,-1,72
 186 -22 186 -22 173.5 -19.5 c 128,-1,73
 161 -17 161 -17 148 -21.5 c 128,-1,74
 135 -26 135 -26 124 -24 c 128,-1,75
 113 -22 113 -22 103.5 -17 c 0,76,77
 84.0327868852 -6.75409836066 84.0327868852 -6.75409836066 78.0163934426 11.1229508197 c 128,-1,78
 72 29 72 29 70 48.5 c 128,-1,79
 68 68 68 68 64 84.5 c 128,-1,80
 60 101 60 101 60 108.5 c 2,81,-1
 63 132.5 l 1,0,-1
205 404 m 0,82,83
 205 351 205 351 224 351 c 0,84,85
 234 351 234 351 242 365.5 c 128,-1,86
 250 380 250 380 252 393 c 0,87,88
 253 406 253 406 253.5 419.5 c 128,-1,89
 254 433 254 433 266.5 453.5 c 128,-1,90
 279 474 279 474 274.5 491.5 c 128,-1,91
 270 509 270 509 259 512.5 c 128,-1,92
 248 516 248 516 239.5 523.5 c 128,-1,93
 231 531 231 531 220.5 536 c 128,-1,94
 210 541 210 541 202.5 528.5 c 128,-1,95
 195 516 195 516 202.5 500 c 128,-1,96
 210 484 210 484 207.5 457 c 128,-1,97
 205 430 205 430 205 404 c 0,82,83
233 259.5 m 0,98,99
 209.628820961 266.80349345 209.628820961 266.80349345 207.5 237 c 0,100,101
 206 216 206 216 203 194 c 128,-1,102
 200 172 200 172 202.5 161 c 128,-1,103
 205 150 205 150 208 137 c 1,104,105
 214 132 214 132 220 128 c 128,-1,106
 226 124 226 124 231 120 c 1,107,108
 237 132 237 132 242.5 138 c 128,-1,109
 248 144 248 144 252.5 151 c 0,110,111
 262.472972973 166.513513514 262.472972973 166.513513514 263.736486486 190.256756757 c 128,-1,112
 265 214 265 214 260.5 227.5 c 0,113,114
 251.790697674 253.627906977 251.790697674 253.627906977 233 259.5 c 0,98,99
EndSplineSet
EndChar

StartChar: C
Encoding: 67 67 56
Width: 441
Flags: HW
LayerCount: 2
Fore
SplineSet
346 706 m 256,0,1
 374.761904762 704.402116402 374.761904762 704.402116402 398 676 c 0,2,3
 402 670 402 670 406 664.5 c 128,-1,4
 410 659 410 659 412.5 652 c 0,5,6
 417.752808989 637.292134831 417.752808989 637.292134831 415.876404494 609.146067416 c 128,-1,7
 414 581 414 581 419 563.5 c 128,-1,8
 424 546 424 546 429 530 c 256,9,10
 437.678571429 502.228571429 437.678571429 502.228571429 418 455 c 1,11,12
 402.777070064 412.375796178 402.777070064 412.375796178 381 404 c 1,13,-1
 363 398 l 2,14,15
 337.090909091 389.363636364 337.090909091 389.363636364 318.545454545 391.681818182 c 128,-1,16
 300 394 300 394 293 402 c 0,17,18
 273.149253731 427.52238806 273.149253731 427.52238806 283 462 c 256,19,20
 285 469 285 469 283 484 c 128,-1,21
 281 499 281 499 266 503 c 0,22,23
 258 505 258 505 255.5 510 c 128,-1,24
 253 515 253 515 251.5 518.5 c 128,-1,25
 250 522 250 522 248.5 523.5 c 128,-1,26
 247 525 247 525 239 519 c 128,-1,27
 231 513 231 513 230 512.5 c 128,-1,28
 229 512 229 512 223.5 514 c 128,-1,29
 218 516 218 516 213 513 c 128,-1,30
 208 510 208 510 203 501.5 c 0,31,32
 184.883116883 470.701298701 184.883116883 470.701298701 196.5 401 c 0,33,34
 200 380 200 380 203.5 361.5 c 0,35,36
 212 316.571428571 212 316.571428571 211.5 301.785714286 c 128,-1,37
 211 287 211 287 205.5 270.5 c 128,-1,38
 200 254 200 254 195.5 237.5 c 0,39,40
 184.470588235 197.058823529 184.470588235 197.058823529 199 168 c 256,41,42
 216.75 132.5 216.75 132.5 222.375 126.25 c 0,43,44
 230.629213483 117.078651685 230.629213483 117.078651685 243.814606742 118.539325843 c 128,-1,45
 257 120 257 120 264 131.5 c 128,-1,46
 271 143 271 143 277 156.5 c 128,-1,47
 283 170 283 170 290 182 c 128,-1,48
 297 194 297 194 306.5 196 c 128,-1,49
 316 198 316 198 331 196.5 c 128,-1,50
 346 195 346 195 351.5 195 c 128,-1,51
 357 195 357 195 365 188.5 c 128,-1,52
 373 182 373 182 373.5 159.5 c 128,-1,53
 374 137 374 137 375 123.5 c 128,-1,54
 376 110 376 110 368 99.5 c 128,-1,55
 360 89 360 89 357.5 80.5 c 128,-1,56
 355 72 355 72 354.5 64 c 0,57,58
 353.172413793 42.7586206897 353.172413793 42.7586206897 346.586206897 32.8793103448 c 128,-1,59
 340 23 340 23 334.5 16.5 c 128,-1,60
 329 10 329 10 305.5 10 c 128,-1,61
 282 10 282 10 263 -12 c 128,-1,62
 244 -34 244 -34 227 -31.5 c 128,-1,63
 210 -29 210 -29 203 -11 c 0,64,65
 196.318181818 4.59090909091 196.318181818 4.59090909091 171.5 6.5 c 0,66,67
 165 7 165 7 159 9.5 c 128,-1,68
 153 12 153 12 145 13.5 c 128,-1,69
 137 15 137 15 129 19.5 c 0,70,71
 108.904761905 30.8035714286 108.904761905 30.8035714286 96 55 c 256,72,73
 88 70 88 70 80.5 80 c 128,-1,74
 73 90 73 90 67.5 99 c 0,75,76
 55.0595238095 119.357142857 55.0595238095 119.357142857 58 137 c 0,77,78
 64 185 64 185 45 200 c 1,79,80
 34 207 34 207 34 211 c 128,-1,81
 34 215 34 215 30 227.5 c 0,82,83
 24.1754385965 245.701754386 24.1754385965 245.701754386 30.5877192982 269.850877193 c 128,-1,84
 37 294 37 294 35 309.5 c 128,-1,85
 33 325 33 325 30.5 341.5 c 0,86,87
 23.7344632768 386.152542373 23.7344632768 386.152542373 28.8672316384 400.076271186 c 128,-1,88
 34 414 34 414 31.5 440 c 128,-1,89
 29 466 29 466 29 482.5 c 128,-1,90
 29 499 29 499 26.5 526 c 128,-1,91
 24 553 24 553 26.5 584 c 0,92,93
 32.7822529893 661.899937067 32.7822529893 661.899937067 79 691 c 1,94,95
 148.287671233 732.059360731 148.287671233 732.059360731 167 730.5 c 0,96,97
 173 730 173 730 181.5 728.5 c 128,-1,98
 190 727 190 727 198 729 c 128,-1,99
 206 731 206 731 212 735 c 128,-1,100
 218 739 218 739 223.5 744 c 0,101,102
 248.25 766.5 248.25 766.5 267 749 c 1,103,104
 285.454545455 727.909090909 285.454545455 727.909090909 294.727272727 720.954545455 c 0,105,106
 312.16 707.88 312.16 707.88 346 706 c 256,0,1
EndSplineSet
EndChar

StartChar: D
Encoding: 68 68 57
Width: 465
Flags: HW
LayerCount: 2
Fore
SplineSet
439 608.5 m 128,-1,1
 442 589 442 589 452.021505376 548.240143369 c 128,-1,2
 462.043010753 507.480286738 462.043010753 507.480286738 448 459.5 c 0,3,4
 440.171428571 432.752380952 440.171428571 432.752380952 437.585714286 416.376190476 c 0,5,6
 432.405405405 383.567567568 432.405405405 383.567567568 424.702702703 361.283783784 c 128,-1,7
 417 339 417 339 410 306.5 c 128,-1,8
 403 274 403 274 392 250.5 c 128,-1,9
 381 227 381 227 374.5 216 c 128,-1,10
 368 205 368 205 363 195.5 c 0,11,12
 350.903225806 172.516129032 350.903225806 172.516129032 348.451612903 160.758064516 c 128,-1,13
 346 149 346 149 341.5 134.5 c 128,-1,14
 337 120 337 120 329.5 106.5 c 0,15,16
 311.171597633 73.5088757396 311.171597633 73.5088757396 284 82 c 1,17,18
 249.7 55.05 249.7 55.05 239.85 39.525 c 128,-1,19
 230 24 230 24 222 17 c 128,-1,20
 214 10 214 10 206.5 7 c 128,-1,21
 199 4 199 4 192 2 c 128,-1,22
 185 0 185 0 178 -5 c 128,-1,23
 171 -10 171 -10 158.5 -13.5 c 128,-1,24
 146 -17 146 -17 133 -14.5 c 0,25,26
 100.780923994 -8.30402384501 100.780923994 -8.30402384501 99 38 c 1,27,28
 73.387755102 48.2448979592 73.387755102 48.2448979592 65.693877551 57.1224489796 c 0,29,30
 50 75.2307692308 50 75.2307692308 50 103.615384615 c 128,-1,31
 50 132 50 132 53.5 149.5 c 128,-1,32
 57 167 57 167 60.5 183 c 0,33,34
 69.0166666667 221.933333333 69.0166666667 221.933333333 63.0083333333 244.466666667 c 128,-1,35
 57 267 57 267 59.5 286.5 c 128,-1,36
 62 306 62 306 60.5 329.5 c 128,-1,37
 59 353 59 353 60.5 371 c 128,-1,38
 62 389 62 389 63.5 405.5 c 128,-1,39
 65 422 65 422 65 436 c 128,-1,40
 65 450 65 450 59 462.5 c 128,-1,41
 53 475 53 475 49.5 488 c 128,-1,42
 46 501 46 501 44.5 511.5 c 0,43,44
 40.6 538.8 40.6 538.8 34.3 550.9 c 128,-1,45
 28 563 28 563 29 579.5 c 128,-1,46
 30 596 30 596 26.5 612.5 c 128,-1,47
 23 629 23 629 23.5 638.5 c 128,-1,48
 24 648 24 648 21.5 658.5 c 128,-1,49
 19 669 19 669 23 671 c 0,50,51
 28.6 673.8 28.6 673.8 33.8 695.9 c 128,-1,52
 39 718 39 718 46 723.5 c 128,-1,53
 53 729 53 729 61 733.5 c 128,-1,54
 69 738 69 738 79 739.5 c 0,55,56
 101.673267327 742.900990099 101.673267327 742.900990099 121.336633663 731.95049505 c 128,-1,57
 141 721 141 721 150.5 722 c 128,-1,58
 160 723 160 723 170.5 727.5 c 0,59,60
 202 741 202 741 232 741 c 128,-1,61
 262 741 262 741 274 737.5 c 128,-1,62
 286 734 286 734 293 730.5 c 128,-1,63
 300 727 300 727 306.5 723.5 c 128,-1,64
 313 720 313 720 325.5 720 c 128,-1,65
 338 720 338 720 344 714 c 128,-1,66
 350 708 350 708 355.5 700 c 128,-1,67
 361 692 361 692 368 684 c 128,-1,68
 375 676 375 676 386.5 673.5 c 128,-1,69
 398 671 398 671 401.5 668.5 c 128,-1,70
 405 666 405 666 407 662.5 c 128,-1,71
 409 659 409 659 411.5 654 c 128,-1,72
 414 649 414 649 425 638.5 c 128,-1,0
 436 628 436 628 439 608.5 c 128,-1,1
206 448.5 m 128,-1,74
 208 424 208 424 213 393.5 c 128,-1,75
 218 363 218 363 217 343 c 128,-1,76
 216 323 216 323 213.5 304 c 128,-1,77
 211 285 211 285 208.5 266 c 128,-1,78
 206 247 206 247 206 228.5 c 128,-1,79
 206 210 206 210 211 202 c 128,-1,80
 216 194 216 194 222 194.5 c 128,-1,81
 228 195 228 195 234 202.5 c 128,-1,82
 240 210 240 210 242.5 227.5 c 128,-1,83
 245 245 245 245 255.5 261.5 c 128,-1,84
 266 278 266 278 272 295 c 128,-1,85
 278 312 278 312 279.5 320 c 128,-1,86
 281 328 281 328 282 334.5 c 128,-1,87
 283 341 283 341 283.5 348.5 c 128,-1,88
 284 356 284 356 289 372 c 128,-1,89
 294 388 294 388 290.5 400.5 c 128,-1,90
 287 413 287 413 285 429 c 128,-1,91
 283 445 283 445 278.5 458.5 c 128,-1,92
 274 472 274 472 258 477 c 0,93,94
 251 479 251 479 245.5 483 c 128,-1,95
 240 487 240 487 235 489.5 c 0,96,97
 223.529411765 495.235294118 223.529411765 495.235294118 213.764705882 484.117647059 c 128,-1,73
 204 473 204 473 206 448.5 c 128,-1,74
EndSplineSet
EndChar

StartChar: E
Encoding: 69 69 58
Width: 430
Flags: HW
LayerCount: 2
Fore
SplineSet
27 595 m 2,0,-1
 29 652 l 2,1,2
 29 666 29 666 26.5 680 c 128,-1,3
 24 694 24 694 33.5 709.5 c 128,-1,4
 43 725 43 725 62 737 c 128,-1,5
 81 749 81 749 105 749 c 128,-1,6
 129 749 129 749 143 741 c 128,-1,7
 157 733 157 733 169 728 c 128,-1,8
 181 723 181 723 195.5 720.5 c 0,9,10
 228.022082019 714.892744479 228.022082019 714.892744479 258 729 c 256,11,12
 290.978142077 744.519125683 290.978142077 744.519125683 311 727 c 1,13,14
 331.660194175 725.708737864 331.660194175 725.708737864 355.330097087 730.854368932 c 0,15,16
 393.307086614 739.11023622 393.307086614 739.11023622 406.653543307 731.55511811 c 0,17,18
 438.114436908 713.745839402 438.114436908 713.745839402 417 660 c 0,19,20
 414 652 414 652 414 646 c 128,-1,21
 414 640 414 640 414 634 c 0,22,23
 414 616 414 616 411 607 c 128,-1,24
 408 598 408 598 408 592 c 128,-1,25
 408 586 408 586 408.5 578.5 c 0,26,27
 409.608695652 561.869565217 409.608695652 561.869565217 403 547 c 256,28,29
 399 538 399 538 399 532.5 c 128,-1,30
 399 527 399 527 399 521.5 c 0,31,32
 399 509.444444444 399 509.444444444 385 497 c 1,33,34
 362.411764706 473 362.411764706 473 347 473 c 0,35,36
 344 473 344 473 341 475 c 128,-1,37
 338 477 338 477 332 479 c 0,38,39
 308.3 486.9 308.3 486.9 281.65 488.95 c 128,-1,40
 255 491 255 491 243 488.5 c 0,41,42
 212.620253165 482.170886076 212.620253165 482.170886076 206 459 c 1,43,44
 197.512820513 435.235897436 197.512820513 435.235897436 210 421.5 c 0,45,46
 215 416 215 416 221 414 c 128,-1,47
 227 412 227 412 232.5 413.5 c 128,-1,48
 238 415 238 415 247.5 413 c 128,-1,49
 257 411 257 411 267 408.5 c 0,50,51
 293.666666667 401.833333333 293.666666667 401.833333333 303.333333333 406.416666667 c 128,-1,52
 313 411 313 411 316.5 410 c 128,-1,53
 320 409 320 409 322 407 c 0,54,55
 329 400 329 400 335 400 c 0,56,57
 351 401 351 401 357 386.5 c 128,-1,58
 363 372 363 372 355 351 c 0,59,60
 355 348.5 355 348.5 351.5 336.25 c 0,61,62
 344.526315789 311.842105263 344.526315789 311.842105263 345.263157895 302.921052632 c 128,-1,63
 346 294 346 294 342 284.5 c 128,-1,64
 338 275 338 275 331 268.5 c 0,65,66
 314.23255814 252.930232558 314.23255814 252.930232558 294 259 c 1,67,68
 285 263 285 263 278 270 c 1,69,70
 227.341584158 285.00990099 227.341584158 285.00990099 209 263 c 256,71,72
 199 251 199 251 198 242 c 128,-1,73
 197 233 197 233 197 210 c 2,74,-1
 197 173 l 1,75,76
 210 164 210 164 221 152.5 c 128,-1,77
 232 141 232 141 248 140 c 128,-1,78
 264 139 264 139 276.5 142.5 c 128,-1,79
 289 146 289 146 299.5 150 c 0,80,81
 324.463576159 159.509933775 324.463576159 159.509933775 344.231788079 153.254966887 c 128,-1,82
 364 147 364 147 369 136 c 128,-1,83
 374 125 374 125 371 107 c 128,-1,84
 368 89 368 89 368.5 80.5 c 128,-1,85
 369 72 369 72 369 65 c 0,86,87
 369 48.25 369 48.25 356 32 c 1,88,89
 342 11 342 11 330 6.5 c 128,-1,90
 318 2 318 2 299 4.5 c 128,-1,91
 280 7 280 7 268 2.5 c 128,-1,92
 256 -2 256 -2 246.5 -9 c 128,-1,93
 237 -16 237 -16 228.5 -21.5 c 0,94,95
 212.603053435 -31.786259542 212.603053435 -31.786259542 193.5 -21.5 c 0,96,97
 187 -18 187 -18 180.5 -14.5 c 0,98,99
 161.991525424 -4.53389830508 161.991525424 -4.53389830508 135.995762712 -6.26694915254 c 128,-1,100
 110 -8 110 -8 90 8.5 c 128,-1,101
 70 25 70 25 69.5 49 c 128,-1,102
 69 73 69 73 72 83.5 c 128,-1,103
 75 94 75 94 77.5 100.5 c 0,104,105
 82.3966942149 113.231404959 82.3966942149 113.231404959 73.6983471074 120.115702479 c 0,106,107
 49.7266131122 139.088105727 49.7266131122 139.088105727 57 170 c 0,108,109
 60 186 60 186 63 195 c 128,-1,110
 66 204 66 204 64 214.5 c 128,-1,111
 62 225 62 225 62.5 233.5 c 128,-1,112
 63 242 63 242 62 249.5 c 0,113,114
 59.7572815534 266.32038835 59.7572815534 266.32038835 48 268 c 256,115,116
 33.3823529412 270.088235294 33.3823529412 270.088235294 27.5 299.5 c 0,117,118
 21.6666666667 328.666666667 21.6666666667 328.666666667 32.3333333333 357.833333333 c 128,-1,119
 43 387 43 387 41 403.5 c 128,-1,120
 39 420 39 420 38 434 c 1,121,-1
 39 473 l 2,122,123
 39 502 39 502 34 512 c 128,-1,124
 29 522 29 522 31 541.5 c 128,-1,125
 33 561 33 561 30 571.5 c 128,-1,126
 27 582 27 582 27 595 c 2,0,-1
EndSplineSet
EndChar

StartChar: F
Encoding: 70 70 59
Width: 434
Flags: HW
LayerCount: 2
Fore
SplineSet
164.5 -8.5 m 128,-1,1
 158 -14 158 -14 146 -9.5 c 128,-1,2
 134 -5 134 -5 129.5 3 c 128,-1,3
 125 11 125 11 122.5 20.5 c 128,-1,4
 120 30 120 30 117.5 39 c 128,-1,5
 115 48 115 48 108 54 c 0,6,7
 92.7010309278 65.4742268041 92.7010309278 65.4742268041 89.3505154639 84.2371134021 c 0,8,9
 83 119.8 83 119.8 82.5 169.9 c 128,-1,10
 82 220 82 220 81 239 c 128,-1,11
 80 258 80 258 77.5 267 c 128,-1,12
 75 276 75 276 71.5 278 c 128,-1,13
 68 280 68 280 62 283 c 0,14,15
 51 288 51 288 46 318.5 c 128,-1,16
 41 349 41 349 43 389.5 c 0,17,18
 46.8033898305 466.518644068 46.8033898305 466.518644068 34 522 c 0,19,20
 22.4251968504 574.086614173 22.4251968504 574.086614173 25.2125984252 620.543307087 c 128,-1,21
 28 667 28 667 33.5 686.5 c 0,22,23
 45.8591954023 730.318965517 45.8591954023 730.318965517 77.4295977011 724.159482759 c 128,-1,24
 109 718 109 718 127.5 719 c 128,-1,25
 146 720 146 720 158 724 c 128,-1,26
 170 728 170 728 180 732 c 128,-1,27
 190 736 190 736 206.5 735.5 c 128,-1,28
 223 735 223 735 236.5 730.5 c 128,-1,29
 250 726 250 726 264 721.5 c 0,30,31
 300.884615385 709.644230769 300.884615385 709.644230769 321.942307692 710.822115385 c 128,-1,32
 343 712 343 712 355 713.5 c 128,-1,33
 367 715 367 715 376.5 715 c 0,34,35
 395.285714286 715 395.285714286 715 407.642857143 705 c 128,-1,36
 420 695 420 695 422 683 c 128,-1,37
 424 671 424 671 423 658 c 0,38,39
 421.0625 632.8125 421.0625 632.8125 414.03125 616.40625 c 128,-1,40
 407 600 407 600 406.5 589 c 128,-1,41
 406 578 406 578 407 567.5 c 128,-1,42
 408 557 408 557 409 547 c 128,-1,43
 410 537 410 537 407.5 525.5 c 128,-1,44
 405 514 405 514 395 502.5 c 128,-1,45
 385 491 385 491 372 482.5 c 0,46,47
 343.234042553 463.691489362 343.234042553 463.691489362 325.117021277 468.845744681 c 128,-1,48
 307 474 307 474 298.5 477.5 c 128,-1,49
 290 481 290 481 282.5 483 c 0,50,51
 265.322580645 487.580645161 265.322580645 487.580645161 249.161290323 483.790322581 c 128,-1,52
 233 480 233 480 227 469 c 128,-1,53
 221 458 221 458 222.5 446 c 128,-1,54
 224 434 224 434 234 424.5 c 128,-1,55
 244 415 244 415 261.5 414 c 128,-1,56
 279 413 279 413 290 414 c 128,-1,57
 301 415 301 415 308.5 415 c 0,58,59
 322.857142857 415 322.857142857 415 334.928571429 401.5 c 0,60,61
 353.092979127 381.185958254 353.092979127 381.185958254 332 339 c 0,62,63
 327 328 327 328 323.5 310 c 128,-1,64
 320 292 320 292 315 274.5 c 128,-1,65
 310 257 310 257 302.5 245.5 c 128,-1,66
 295 234 295 234 285 236 c 128,-1,67
 275 238 275 238 271.5 242 c 128,-1,68
 268 246 268 246 264.5 249 c 0,69,70
 255.5 256.714285714 255.5 256.714285714 246 254 c 0,71,72
 230 250 230 250 227.5 225.5 c 128,-1,73
 225 201 225 201 226 177 c 128,-1,74
 227 153 227 153 228.5 136 c 128,-1,75
 230 119 230 119 228.5 102.5 c 0,76,77
 224.926829268 63.1951219512 224.926829268 63.1951219512 198 43 c 0,78,79
 189 37 189 37 184.5 26.5 c 128,-1,80
 180 16 180 16 175.5 6.5 c 128,-1,0
 171 -3 171 -3 164.5 -8.5 c 128,-1,1
EndSplineSet
EndChar

StartChar: G
Encoding: 71 71 60
Width: 471
Flags: HW
LayerCount: 2
Fore
SplineSet
268 241 m 0,0,1
 239.636363636 241 239.636363636 241 242 267 c 0,2,3
 243.517857143 288.25 243.517857143 288.25 240.758928571 301.125 c 0,4,5
 236.102040816 322.857142857 236.102040816 322.857142857 239.051020408 333.428571429 c 0,6,7
 247.235455134 362.76792913 247.235455134 362.76792913 304 347 c 0,8,9
 314 344 314 344 320 344 c 128,-1,10
 326 344 326 344 332.5 345 c 0,11,12
 349.75 347.653846154 349.75 347.653846154 364.375 345.326923077 c 128,-1,13
 379 343 379 343 390 344 c 128,-1,14
 401 345 401 345 410.5 347 c 128,-1,15
 420 349 420 349 428 351 c 128,-1,16
 436 353 436 353 443 353 c 0,17,18
 453 353 453 353 457.5 336.5 c 128,-1,19
 462 320 462 320 461 300 c 0,20,21
 458.439814815 248.796296296 458.439814815 248.796296296 437 241 c 0,22,23
 422 235 422 235 408.5 222 c 128,-1,24
 395 209 395 209 398.5 183.5 c 128,-1,25
 402 158 402 158 402.5 143.5 c 128,-1,26
 403 129 403 129 402.5 118.5 c 128,-1,27
 402 108 402 108 401.5 100.5 c 128,-1,28
 401 93 401 93 402.5 81.5 c 128,-1,29
 404 70 404 70 401.5 51 c 128,-1,30
 399 32 399 32 392 17 c 0,31,32
 375.307692308 -18.7692307692 375.307692308 -18.7692307692 349 -10 c 0,33,34
 329.647058824 -4.47058823529 329.647058824 -4.47058823529 312 22 c 0,35,36
 306 31 306 31 300.5 37.5 c 128,-1,37
 295 44 295 44 286 41.5 c 128,-1,38
 277 39 277 39 270.5 31.5 c 128,-1,39
 264 24 264 24 257 15.5 c 0,40,41
 214.964824121 -35.5427135678 214.964824121 -35.5427135678 150 1 c 0,42,43
 117.304347826 19.3913043478 117.304347826 19.3913043478 104 46 c 0,44,45
 99 58 99 58 93.5 73 c 128,-1,46
 88 88 88 88 81 102 c 0,47,48
 64.7272727273 134.545454545 64.7272727273 134.545454545 50 146 c 0,49,50
 35.7345971564 157.412322275 35.7345971564 157.412322275 33.5 253.5 c 0,51,52
 33 275 33 275 35 290.5 c 128,-1,53
 37 306 37 306 37 329.5 c 2,54,-1
 37 375.5 l 2,55,56
 37 398 37 398 36.5 418 c 0,57,58
 35.6966292135 450.134831461 35.6966292135 450.134831461 41 474 c 1,59,60
 9.08745247148 494.515209125 9.08745247148 494.515209125 16 555 c 0,61,62
 21.1913043478 593.069565217 21.1913043478 593.069565217 30.5956521739 610.534782609 c 128,-1,63
 40 628 40 628 45.5 645.5 c 128,-1,64
 51 663 51 663 57 682.5 c 128,-1,65
 63 702 63 702 74 708 c 128,-1,66
 85 714 85 714 88 718 c 128,-1,67
 91 722 91 722 94 726.5 c 0,68,69
 112.533333333 754.3 112.533333333 754.3 176 764.5 c 0,70,71
 204 769 204 769 231 759 c 128,-1,72
 258 749 258 749 276 747 c 128,-1,73
 294 745 294 745 310.5 744 c 0,74,75
 379.399361022 739.82428115 379.399361022 739.82428115 400.5 715 c 0,76,77
 414.556420233 698.463035019 414.556420233 698.463035019 418.778210117 680.73151751 c 128,-1,78
 423 663 423 663 429.5 652.5 c 128,-1,79
 436 642 436 642 434 630.5 c 128,-1,80
 432 619 432 619 433.5 611.5 c 128,-1,81
 435 604 435 604 432 596 c 128,-1,82
 429 588 429 588 426.5 580 c 0,83,84
 420.06870229 559.419847328 420.06870229 559.419847328 427.534351145 550.209923664 c 128,-1,85
 435 541 435 541 441 533.5 c 128,-1,86
 447 526 447 526 450.5 518 c 0,87,88
 459.133333333 498.266666667 459.133333333 498.266666667 452.066666667 484.133333333 c 128,-1,89
 445 470 445 470 436.5 457 c 128,-1,90
 428 444 428 444 415 443 c 0,91,92
 380.25862069 440.327586207 380.25862069 440.327586207 368.129310345 431.663793103 c 128,-1,93
 356 423 356 423 348 419.5 c 0,94,95
 328.402116402 410.925925926 328.402116402 410.925925926 311 422 c 1,96,97
 283.452173913 434.52173913 283.452173913 434.52173913 287 470 c 1,98,99
 288.73480663 511.635359116 288.73480663 511.635359116 256 516 c 256,100,101
 241 518 241 518 225 507 c 128,-1,102
 209 496 209 496 200.5 477.5 c 0,103,104
 179.062893082 430.842767296 179.062893082 430.842767296 195 391 c 0,105,106
 199 381 199 381 199 366 c 2,107,-1
 199 340 l 258,108,109
 199 317 199 317 193.5 306 c 128,-1,110
 188 295 188 295 187 280.5 c 128,-1,111
 186 266 186 266 186.5 247 c 128,-1,112
 187 228 187 228 189.5 206.5 c 128,-1,113
 192 185 192 185 196.5 167 c 0,114,115
 206.955555556 125.177777778 206.955555556 125.177777778 227 127 c 1,116,117
 242.75 127 242.75 127 251.5 142 c 0,118,119
 255 148 255 148 259 154 c 128,-1,120
 263 160 263 160 271 163.5 c 128,-1,121
 279 167 279 167 282.5 175 c 128,-1,122
 286 183 286 183 286.5 194 c 0,123,124
 287.058823529 206.294117647 287.058823529 206.294117647 284 243 c 1,125,126
 276 241 276 241 268 241 c 0,0,1
EndSplineSet
EndChar

StartChar: H
Encoding: 72 72 61
Width: 468
Flags: HW
LayerCount: 2
Fore
SplineSet
123 744 m 1,0,1
 193.545757072 764.74875208 193.545757072 764.74875208 205 717.5 c 0,2,3
 209 701 209 701 207 690 c 128,-1,4
 205 679 205 679 205 665.5 c 2,5,-1
 205 636.5 l 2,6,7
 205 595 205 595 202 578.5 c 128,-1,8
 199 562 199 562 201 540 c 128,-1,9
 203 518 203 518 199.5 498 c 128,-1,10
 196 478 196 478 200 471 c 128,-1,11
 204 464 204 464 209.5 460 c 0,12,13
 217.75 454 217.75 454 231 454 c 256,14,15
 252.764705882 454 252.764705882 454 260 474.5 c 0,16,17
 263 483 263 483 260.5 504.5 c 128,-1,18
 258 526 258 526 260 547 c 128,-1,19
 262 568 262 568 259.5 585.5 c 128,-1,20
 257 603 257 603 255.5 623 c 128,-1,21
 254 643 254 643 254 663.5 c 0,22,23
 254 713.166666667 254 713.166666667 265 726 c 128,-1,24
 276 739 276 739 299.5 745.5 c 128,-1,25
 323 752 323 752 349.5 752 c 0,26,27
 413 752 413 752 433 724 c 0,28,29
 442 712 442 712 442 700 c 128,-1,30
 442 688 442 688 441 681.5 c 128,-1,31
 440 675 440 675 441 666.5 c 0,32,33
 443.84 642.36 443.84 642.36 437.92 618.18 c 128,-1,34
 432 594 432 594 429.5 571 c 128,-1,35
 427 548 427 548 425.5 521 c 0,36,37
 423 476 423 476 423 425 c 256,38,39
 423 334 423 334 415.5 310.5 c 0,40,41
 398.975609756 258.723577236 398.975609756 258.723577236 410 233 c 0,42,43
 413 226 413 226 412.5 216.5 c 128,-1,44
 412 207 412 207 411.5 196.5 c 128,-1,45
 411 186 411 186 411 176 c 128,-1,46
 411 166 411 166 415.5 153 c 0,47,48
 424.712158809 126.387096774 424.712158809 126.387096774 399 96 c 0,49,50
 390.195266272 85.7278106509 390.195266272 85.7278106509 391.097633136 61.3639053254 c 128,-1,51
 392 37 392 37 392 25.5 c 128,-1,52
 392 14 392 14 386.5 8.5 c 128,-1,53
 381 3 381 3 363.5 -3 c 128,-1,54
 346 -9 346 -9 325 -11 c 0,55,56
 271.897280967 -16.0574018127 271.897280967 -16.0574018127 258 10 c 256,57,58
 246.412191582 31.7271407837 246.412191582 31.7271407837 252.706095791 97.3635703919 c 128,-1,59
 259 163 259 163 261.5 196 c 128,-1,60
 264 229 264 229 260 242 c 128,-1,61
 256 255 256 255 247 258 c 128,-1,62
 238 261 238 261 228.5 260 c 0,63,64
 205.971428571 257.628571429 205.971428571 257.628571429 198 247 c 1,65,66
 199 224 199 224 199 183.5 c 128,-1,67
 199 143 199 143 198 102.5 c 0,68,69
 195.496815287 1.12101910828 195.496815287 1.12101910828 190.748407643 -5.43949044586 c 128,-1,70
 186 -12 186 -12 174 -15 c 128,-1,71
 162 -18 162 -18 148.5 -18.5 c 0,72,73
 115.598802395 -19.7185628743 115.598802395 -19.7185628743 105.799401198 -7.35928143713 c 128,-1,74
 96 5 96 5 90 12 c 128,-1,75
 84 19 84 19 73.5 22.5 c 128,-1,76
 63 26 63 26 61 34 c 128,-1,77
 59 42 59 42 57 53.5 c 0,78,79
 52.1 81.675 52.1 81.675 57.05 89.3375 c 128,-1,80
 62 97 62 97 62.5 110 c 128,-1,81
 63 123 63 123 59 126.5 c 128,-1,82
 55 130 55 130 51.5 155 c 128,-1,83
 48 180 48 180 46 211 c 128,-1,84
 44 242 44 242 44 270.5 c 128,-1,85
 44 299 44 299 50 313 c 0,86,87
 63.6229508197 344.786885246 63.6229508197 344.786885246 52.3114754098 374.893442623 c 128,-1,88
 41 405 41 405 39 422.5 c 128,-1,89
 37 440 37 440 36.5 454 c 0,90,91
 35.1621621622 491.459459459 35.1621621622 491.459459459 32.0810810811 501.22972973 c 128,-1,92
 29 511 29 511 28 528.5 c 128,-1,93
 27 546 27 546 27 566 c 128,-1,94
 27 586 27 586 27.5 607 c 128,-1,95
 28 628 28 628 26.5 654 c 128,-1,96
 25 680 25 680 27.5 706 c 128,-1,97
 30 732 30 732 45.5 746 c 128,-1,98
 61 760 61 760 83.5 763 c 128,-1,99
 106 766 106 766 123 744 c 1,0,1
EndSplineSet
EndChar

StartChar: I
Encoding: 73 73 62
Width: 315
Flags: HW
LayerCount: 2
Fore
SplineSet
230 155 m 1,0,1
 237.083333333 138 237.083333333 138 251 138 c 0,2,3
 264.333333333 138 264.333333333 138 267.666666667 133 c 0,4,5
 274.916666667 122.125 274.916666667 122.125 268 91 c 256,6,7
 264 73 264 73 263.5 63 c 128,-1,8
 263 53 263 53 262 46 c 0,9,10
 260.255319149 33.7872340426 260.255319149 33.7872340426 248 20 c 1,11,12
 235.272727273 8.68686868687 235.272727273 8.68686868687 219.636363636 4.34343434343 c 128,-1,13
 204 0 204 0 194 -2.5 c 128,-1,14
 184 -5 184 -5 172 -11 c 256,15,16
 154.375 -19.8125 154.375 -19.8125 141.6875 -18.90625 c 128,-1,17
 129 -18 129 -18 122.5 -17.5 c 128,-1,18
 116 -17 116 -17 107.5 -20 c 128,-1,19
 99 -23 99 -23 94 -22.5 c 128,-1,20
 89 -22 89 -22 84 -20 c 0,21,22
 69 -14 69 -14 56 -14 c 256,23,24
 37.75 -14 37.75 -14 31.5 46 c 0,25,26
 29 70 29 70 31 92 c 128,-1,27
 33 114 33 114 38 120.5 c 128,-1,28
 43 127 43 127 50 129.5 c 128,-1,29
 57 132 57 132 63 133.5 c 128,-1,30
 69 135 69 135 73.5 136.5 c 0,31,32
 79.5584415584 138.519480519 79.5584415584 138.519480519 80.2792207792 157.25974026 c 128,-1,33
 81 176 81 176 81.5 191.5 c 0,34,35
 82.9380530973 236.079646018 82.9380530973 236.079646018 89.4690265487 254.039823009 c 0,36,37
 99.3734939759 281.277108434 99.3734939759 281.277108434 86 300 c 1,38,39
 72.989010989 322.769230769 72.989010989 322.769230769 76 386 c 0,40,41
 77.8064516129 423.935483871 77.8064516129 423.935483871 75.4032258065 447.967741935 c 0,42,43
 70.6666666667 495.333333333 70.6666666667 495.333333333 72 514 c 256,44,45
 73 528 73 528 73 536 c 128,-1,46
 73 544 73 544 71.5 548.5 c 0,47,48
 69 556 69 556 54 556.5 c 128,-1,49
 39 557 39 557 26 570 c 128,-1,50
 13 583 13 583 15 611 c 0,51,52
 18 639 18 639 15 662 c 128,-1,53
 12 685 12 685 18 698 c 128,-1,54
 24 711 24 711 25 720 c 128,-1,55
 26 729 26 729 28.5 736 c 0,56,57
 34.15 751.82 34.15 751.82 55.575 753.91 c 128,-1,58
 77 756 77 756 95.5 753.5 c 128,-1,59
 114 751 114 751 130.5 747 c 0,60,61
 171.75 737 171.75 737 185 737 c 256,62,63
 195 737 195 737 207.5 739.5 c 128,-1,64
 220 742 220 742 232 744 c 0,65,66
 260.307692308 748.717948718 260.307692308 748.717948718 274.653846154 740.858974359 c 128,-1,67
 289 733 289 733 292.5 722 c 128,-1,68
 296 711 296 711 296 698.5 c 128,-1,69
 296 686 296 686 294.5 672 c 128,-1,70
 293 658 293 658 296.5 642.5 c 0,71,72
 304.711538462 606.134615385 304.711538462 606.134615385 296.855769231 583.567307692 c 128,-1,73
 289 561 289 561 282 556.5 c 128,-1,74
 275 552 275 552 268.5 551 c 128,-1,75
 262 550 262 550 255.5 549.5 c 128,-1,76
 249 549 249 549 244.5 542 c 0,77,78
 236 528.777777778 236 528.777777778 236 441.5 c 1,79,-1
 238 275 l 2,80,81
 238 211 238 211 230 155 c 1,0,1
EndSplineSet
EndChar

StartChar: J
Encoding: 74 74 63
Width: 383
Flags: HW
LayerCount: 2
Fore
SplineSet
175 461 m 1,0,1
 172 482 172 482 172 507 c 0,2,3
 172 550 172 550 165 565 c 128,-1,4
 158 580 158 580 159 589.5 c 128,-1,5
 160 599 160 599 156 606 c 0,6,7
 153 613 153 613 153.5 627 c 128,-1,8
 154 641 154 641 143.5 655 c 128,-1,9
 133 669 133 669 131 686.5 c 128,-1,10
 129 704 129 704 138 716 c 1,11,12
 147.988764045 727.415730337 147.988764045 727.415730337 157.494382022 728.207865169 c 128,-1,13
 167 729 167 729 174 729.5 c 128,-1,14
 181 730 181 730 191 736 c 256,15,16
 201 742 201 742 212 741.5 c 128,-1,17
 223 741 223 741 234.5 740.5 c 0,18,19
 265.461538462 739.153846154 265.461538462 739.153846154 280.230769231 749.076923077 c 0,20,21
 313.572787821 771.478591817 313.572787821 771.478591817 336.286393911 764.739295909 c 0,22,23
 382.158770304 751.128620557 382.158770304 751.128620557 362 654 c 0,24,25
 350 600 350 600 350.5 496.5 c 128,-1,26
 351 393 351 393 350 359 c 128,-1,27
 349 325 349 325 340 310.5 c 0,28,29
 327 289.555555556 327 289.555555556 327 250 c 2,30,-1
 328 175 l 1,31,32
 326 136 326 136 317 101 c 128,-1,33
 308 66 308 66 279 46 c 0,34,35
 263.384615385 34.8461538462 263.384615385 34.8461538462 244.692307692 9.92307692308 c 128,-1,36
 226 -15 226 -15 216.5 -23.5 c 128,-1,37
 207 -32 207 -32 193.5 -30.5 c 128,-1,38
 180 -29 180 -29 175.5 -24 c 128,-1,39
 171 -19 171 -19 167 -14 c 0,40,41
 157.40776699 -2.00970873786 157.40776699 -2.00970873786 124.703883495 -6.00485436893 c 128,-1,42
 92 -10 92 -10 72 -10 c 128,-1,43
 52 -10 52 -10 36 10 c 0,44,45
 25.3043478261 21.884057971 25.3043478261 21.884057971 22.152173913 33.4420289855 c 0,46,47
 16.75 53.25 16.75 53.25 7.375 63.125 c 128,-1,48
 -2 73 -2 73 -6 82.5 c 128,-1,49
 -10 92 -10 92 -11.5 101 c 128,-1,50
 -13 110 -13 110 -14.5 120 c 128,-1,51
 -16 130 -16 130 -24.5 149 c 128,-1,52
 -33 168 -33 168 -30.5 190.5 c 128,-1,53
 -28 213 -28 213 -19 224.5 c 0,54,55
 2.05660377358 251.405660377 2.05660377358 251.405660377 38 255 c 1,56,57
 66.7419354839 274.161290323 66.7419354839 274.161290323 83 264 c 0,58,59
 89 260 89 260 94.5 258.5 c 128,-1,60
 100 257 100 257 104 254.5 c 0,61,62
 110.752 250.28 110.752 250.28 109 224 c 1,63,64
 104 194 104 194 107.5 179.5 c 128,-1,65
 111 165 111 165 120.5 158 c 0,66,67
 139.362318841 144.101449275 139.362318841 144.101449275 160 157 c 1,68,69
 164.9 179.866666667 164.9 179.866666667 180 200 c 1,70,-1
 180 245 l 2,71,72
 180 322 180 322 177 335 c 128,-1,73
 174 348 174 348 175.5 354 c 128,-1,74
 177 360 177 360 179.5 366.5 c 0,75,76
 192.923753666 401.401759531 192.923753666 401.401759531 175.5 426 c 0,77,78
 164.948275862 440.896551724 164.948275862 440.896551724 175 461 c 1,0,1
EndSplineSet
EndChar

StartChar: K
Encoding: 75 75 64
Width: 504
Flags: HW
LayerCount: 2
Fore
SplineSet
40 573 m 1,0,-1
 41 591.5 l 2,1,2
 41 595 41 595 37.5 607.5 c 128,-1,3
 34 620 34 620 33.5 631 c 128,-1,4
 33 642 33 642 33.5 649.5 c 128,-1,5
 34 657 34 657 34.5 663.5 c 128,-1,6
 35 670 35 670 31.5 681.5 c 128,-1,7
 28 693 28 693 34 703 c 128,-1,8
 40 713 40 713 41 722.5 c 128,-1,9
 42 732 42 732 47 741.5 c 128,-1,10
 52 751 52 751 67.5 757 c 128,-1,11
 83 763 83 763 91.5 758 c 128,-1,12
 100 753 100 753 110 746 c 0,13,14
 138.453038674 726.082872928 138.453038674 726.082872928 164.726519337 728.041436464 c 128,-1,15
 191 730 191 730 201 724.5 c 128,-1,16
 211 719 211 719 216 710 c 128,-1,17
 221 701 221 701 223 691 c 128,-1,18
 225 681 225 681 228 671 c 128,-1,19
 231 661 231 661 233 645 c 128,-1,20
 235 629 235 629 225.5 612.5 c 128,-1,21
 216 596 216 596 216.5 584 c 128,-1,22
 217 572 217 572 219.5 558 c 0,23,24
 226.248366013 520.209150327 226.248366013 520.209150327 216 488 c 0,25,26
 214 484 214 484 213.5 480.5 c 128,-1,27
 213 477 213 477 211 474 c 1,28,29
 253.860103627 503.222797927 253.860103627 503.222797927 264.430051813 516.611398964 c 0,30,31
 275.842696629 531.06741573 275.842696629 531.06741573 282.921348315 551.533707865 c 128,-1,32
 290 572 290 572 293 577 c 128,-1,33
 296 582 296 582 298.5 585 c 0,34,35
 302.842105263 590.210526316 302.842105263 590.210526316 305.921052632 605.605263158 c 0,36,37
 314.428571429 648.142857143 314.428571429 648.142857143 328 659 c 1,38,39
 325 689 325 689 336 716.5 c 128,-1,40
 347 744 347 744 379 748.5 c 128,-1,41
 411 753 411 753 425 741 c 1,42,43
 450 746 450 746 462 743.5 c 128,-1,44
 474 741 474 741 486 728.5 c 0,45,46
 507.607090103 705.992614476 507.607090103 705.992614476 495 648 c 0,47,48
 492 637 492 637 491.5 624.5 c 128,-1,49
 491 612 491 612 489 600 c 0,50,51
 484.333333333 572 484.333333333 572 464.166666667 555 c 0,52,53
 426 522.826446281 426 522.826446281 426 463 c 0,54,55
 426 437 426 437 416.5 427.5 c 128,-1,56
 407 418 407 418 395 419 c 128,-1,57
 383 420 383 420 372.5 413 c 128,-1,58
 362 406 362 406 353 395.5 c 0,59,60
 331 369.833333333 331 369.833333333 330.5 355.916666667 c 128,-1,61
 330 342 330 342 339 327 c 128,-1,62
 348 312 348 312 360.5 289.5 c 2,63,-1
 383 249 l 2,64,65
 426 171.6 426 171.6 426 82 c 0,66,67
 426 66.6 426 66.6 435.5 46.3 c 128,-1,68
 445 26 445 26 435.5 7 c 128,-1,69
 426 -12 426 -12 412 -15 c 0,70,71
 359.865671642 -29.8955223881 359.865671642 -29.8955223881 343 46 c 0,72,73
 330.113163972 100.41108545 330.113163972 100.41108545 281 139 c 0,74,75
 268.418181818 150.009090909 268.418181818 150.009090909 263.209090909 166.504545455 c 2,76,-1
 255 192.5 l 2,77,78
 252 202 252 202 246.5 209.5 c 128,-1,79
 241 217 241 217 235 225.5 c 128,-1,80
 229 234 229 234 220 233 c 0,81,82
 206 231 206 231 205 203 c 1,83,-1
 205 176 l 2,84,85
 205 94.6666666667 205 94.6666666667 184 83 c 256,86,87
 175 78 175 78 170.5 64.5 c 2,88,-1
 161 36 l 2,89,90
 156 21 156 21 148.5 8.5 c 128,-1,91
 141 -4 141 -4 125 -6 c 0,92,93
 94 -10 94 -10 82.5 23 c 128,-1,94
 71 56 71 56 70 98 c 128,-1,95
 69 140 69 140 67 151 c 128,-1,96
 65 162 65 162 61.5 169.5 c 128,-1,97
 58 177 58 177 54.5 183.5 c 128,-1,98
 51 190 51 190 47 201 c 0,99,100
 37.7008547009 226.572649573 37.7008547009 226.572649573 36.3504273504 260.286324786 c 128,-1,101
 35 294 35 294 36.5 305 c 128,-1,102
 38 316 38 316 35 333 c 0,103,104
 31 350 31 350 34 363.5 c 128,-1,105
 37 377 37 377 36 388.5 c 128,-1,106
 35 400 35 400 37 410 c 128,-1,107
 39 420 39 420 41 431.5 c 0,108,109
 45.7252747253 458.67032967 45.7252747253 458.67032967 43.8626373626 481.335164835 c 128,-1,110
 42 504 42 504 42.5 513 c 128,-1,111
 43 522 43 522 43.5 528 c 128,-1,112
 44 534 44 534 44 540 c 2,113,-1
 40 573 l 1,0,-1
EndSplineSet
EndChar

StartChar: L
Encoding: 76 76 65
Width: 366
Flags: HW
LayerCount: 2
Fore
SplineSet
204 143 m 1,0,1
 216.5 148 216.5 148 230.25 148 c 128,-1,2
 244 148 244 148 252 144 c 128,-1,3
 260 140 260 140 267.5 135 c 0,4,5
 287 122 287 122 309 122.5 c 128,-1,6
 331 123 331 123 346 124.5 c 128,-1,7
 361 126 361 126 375 116 c 1,8,9
 392.350180505 100.577617329 392.350180505 100.577617329 390 66.5 c 0,10,11
 387.704663212 33.2176165803 387.704663212 33.2176165803 374.852331606 23.6088082902 c 128,-1,12
 362 14 362 14 351 14 c 128,-1,13
 340 14 340 14 329 15.5 c 128,-1,14
 318 17 318 17 308 18 c 128,-1,15
 298 19 298 19 291 13 c 0,16,17
 255.416666667 -12.4166666667 255.416666667 -12.4166666667 234.5 8.5 c 0,18,19
 224.166666667 18.8333333333 224.166666667 18.8333333333 208.083333333 17.9166666667 c 128,-1,20
 192 17 192 17 179.5 11.5 c 128,-1,21
 167 6 167 6 154.5 1.5 c 0,22,23
 94.7638190955 -20.0050251256 94.7638190955 -20.0050251256 74 34.5 c 0,24,25
 70 45 70 45 67.5 54.5 c 128,-1,26
 65 64 65 64 62 70 c 256,27,28
 55.2121212121 83.5757575758 55.2121212121 83.5757575758 57.6060606061 118.287878788 c 0,29,30
 60.8358208955 165.119402985 60.8358208955 165.119402985 56.9179104478 187.059701493 c 128,-1,31
 53 209 53 209 50 222.5 c 0,32,33
 42.5483870968 256.032258065 42.5483870968 256.032258065 44.2741935484 274.516129032 c 0,34,35
 47.3763982103 307.741610738 47.3763982103 307.741610738 41 346 c 0,36,37
 39.7647058824 357.117647059 39.7647058824 357.117647059 47.8823529412 376.058823529 c 0,38,39
 73.75 436.416666667 73.75 436.416666667 47.5 468.5 c 0,40,41
 43 474 43 474 39 479 c 128,-1,42
 35 484 35 484 35 493 c 0,43,44
 26 574 26 574 26 701 c 0,45,46
 26 712 26 712 36.5 722.5 c 0,47,48
 55.1666666667 741.166666667 55.1666666667 741.166666667 65.5833333333 738.583333333 c 0,49,50
 102.606425703 729.401606426 102.606425703 729.401606426 132.303212851 736.700803213 c 128,-1,51
 162 744 162 744 184 744.5 c 128,-1,52
 206 745 206 745 221.5 724 c 0,53,54
 258.222778473 674.246558198 258.222778473 674.246558198 240 605 c 0,55,56
 235 589 235 589 236 574.5 c 128,-1,57
 237 560 237 560 230.5 543.5 c 128,-1,58
 224 527 224 527 225 513 c 128,-1,59
 226 499 226 499 228 474 c 0,60,61
 233.16751269 409.406091371 233.16751269 409.406091371 210 373 c 0,62,63
 197.743083004 353.739130435 197.743083004 353.739130435 199.371541502 326.869565217 c 128,-1,64
 201 300 201 300 202.5 282.5 c 128,-1,65
 204 265 204 265 202.5 244.5 c 128,-1,66
 201 224 201 224 201 196.5 c 128,-1,67
 201 169 201 169 204 143 c 1,0,1
EndSplineSet
EndChar

StartChar: M
Encoding: 77 77 66
Width: 672
Flags: HW
LayerCount: 2
Fore
SplineSet
481 744 m 256,0,1
 513.285714286 744 513.285714286 744 540 727 c 1,2,3
 556 732 556 732 570.5 732 c 128,-1,4
 585 732 585 732 606.5 728 c 128,-1,5
 628 724 628 724 637.5 708 c 128,-1,6
 647 692 647 692 646 681 c 0,7,8
 644.142857143 660.571428571 644.142857143 660.571428571 639 652 c 1,9,10
 647.631578947 628.263157895 647.631578947 628.263157895 630 593 c 1,11,12
 653.724832215 535.382550336 653.724832215 535.382550336 629 420 c 0,13,14
 623 392 623 392 617 366 c 0,15,16
 603 305.333333333 603 305.333333333 603 280 c 256,17,18
 603 264 603 264 605.5 233 c 128,-1,19
 608 202 608 202 610 170 c 128,-1,20
 612 138 612 138 612 111 c 128,-1,21
 612 84 612 84 606.5 76.5 c 128,-1,22
 601 69 601 69 598.5 53.5 c 128,-1,23
 596 38 596 38 592 23 c 128,-1,24
 588 8 588 8 581 -2.5 c 128,-1,25
 574 -13 574 -13 563.5 -11.5 c 128,-1,26
 553 -10 553 -10 550.5 -7 c 128,-1,27
 548 -4 548 -4 546.5 0 c 0,28,29
 542.714285714 10.0952380952 542.714285714 10.0952380952 534 13 c 0,30,31
 520 17 520 17 519.5 31.5 c 128,-1,32
 519 46 519 46 523.5 52.5 c 128,-1,33
 528 59 528 59 528 66.5 c 128,-1,34
 528 74 528 74 525 81.5 c 0,35,36
 518.451612903 97.8709677419 518.451612903 97.8709677419 507.225806452 100.435483871 c 128,-1,37
 496 103 496 103 489 112.5 c 128,-1,38
 482 122 482 122 477 134 c 0,39,40
 464.96875 162.875 464.96875 162.875 468.484375 177.9375 c 128,-1,41
 472 193 472 193 467 213.5 c 0,42,43
 451.32166302 277.781181619 451.32166302 277.781181619 465 311 c 0,44,45
 469.56 324.68 469.56 324.68 466.28 335.34 c 0,46,47
 459.96969697 355.848484848 459.96969697 355.848484848 463 371 c 256,48,49
 469 401 469 401 469 426.5 c 128,-1,50
 469 452 469 452 456 452 c 256,51,52
 444.235294118 452 444.235294118 452 440.5 388.5 c 0,53,54
 436.268518519 316.564814815 436.268518519 316.564814815 427.634259259 303.782407407 c 128,-1,55
 419 291 419 291 413 282.5 c 128,-1,56
 407 274 407 274 402 263 c 0,57,58
 392 241 392 241 392 214.5 c 128,-1,59
 392 188 392 188 390.5 183 c 128,-1,60
 389 178 389 178 387.5 172 c 0,61,62
 383 154 383 154 383 127.5 c 0,63,64
 383 92.5 383 92.5 368 70 c 0,65,66
 366 67 366 67 364 57.5 c 128,-1,67
 362 48 362 48 358 38 c 0,68,69
 348.4 14 348.4 14 332.2 14.5 c 128,-1,70
 316 15 316 15 307.5 24.5 c 128,-1,71
 299 34 299 34 294 47 c 128,-1,72
 289 60 289 60 286 73 c 128,-1,73
 283 86 283 86 276 98 c 0,74,75
 265.931506849 115.260273973 265.931506849 115.260273973 281 168 c 256,76,77
 287 189 287 189 286 202.5 c 128,-1,78
 285 216 285 216 272 224 c 0,79,80
 266.414634146 228.18902439 266.414634146 228.18902439 259.707317073 267.594512195 c 128,-1,81
 253 307 253 307 248.5 333.5 c 128,-1,82
 244 360 244 360 239.5 382.5 c 0,83,84
 229.333333333 433.333333333 229.333333333 433.333333333 222.666666667 434.166666667 c 128,-1,85
 216 435 216 435 214.5 429.5 c 128,-1,86
 213 424 213 424 214 416 c 128,-1,87
 215 408 215 408 216.5 400 c 128,-1,88
 218 392 218 392 218.5 385 c 128,-1,89
 219 378 219 378 212.5 358.5 c 128,-1,90
 206 339 206 339 211 314 c 128,-1,91
 216 289 216 289 216 276 c 128,-1,92
 216 263 216 263 213 247.5 c 128,-1,93
 210 232 210 232 211.5 220 c 128,-1,94
 213 208 213 208 214 197.5 c 0,95,96
 216.380645161 172.503225806 216.380645161 172.503225806 203.190322581 164.751612903 c 128,-1,97
 190 157 190 157 190.5 139 c 128,-1,98
 191 121 191 121 202 109.5 c 128,-1,99
 213 98 213 98 210 88 c 128,-1,100
 207 78 207 78 203 72 c 128,-1,101
 199 66 199 66 200 62 c 128,-1,102
 201 58 201 58 200.5 52.5 c 0,103,104
 198.265957447 27.9255319149 198.265957447 27.9255319149 161.5 7.5 c 0,105,106
 133.034285714 -8.31428571429 133.034285714 -8.31428571429 114.017142857 -4.65714285714 c 128,-1,107
 95 -1 95 -1 86 9 c 128,-1,108
 77 19 77 19 79 31.5 c 128,-1,109
 81 44 81 44 79.5 54.5 c 128,-1,110
 78 65 78 65 77.5 76 c 128,-1,111
 77 87 77 87 76.5 98.5 c 0,112,113
 75.2096774194 128.177419355 75.2096774194 128.177419355 70.1048387097 138.588709677 c 128,-1,114
 65 149 65 149 64 160 c 128,-1,115
 63 171 63 171 63.5 180.5 c 128,-1,116
 64 190 64 190 65 198 c 128,-1,117
 66 206 66 206 62.5 215 c 128,-1,118
 59 224 59 224 62 238 c 128,-1,119
 65 252 65 252 63 265 c 128,-1,120
 61 278 61 278 63.5 288.5 c 128,-1,121
 66 299 66 299 67.5 309.5 c 0,122,123
 71.2173913043 335.52173913 71.2173913043 335.52173913 57 345 c 1,124,125
 41 358 41 358 35.5 372.5 c 128,-1,126
 30 387 30 387 31 410 c 256,127,128
 32 433 32 433 31 447.5 c 128,-1,129
 30 462 30 462 36.5 482.5 c 128,-1,130
 43 503 43 503 43 525 c 128,-1,131
 43 547 43 547 41.5 563 c 128,-1,132
 40 579 40 579 38 593 c 128,-1,133
 36 607 36 607 34.5 621.5 c 0,134,135
 31.25 652.916666667 31.25 652.916666667 37 674 c 1,136,137
 45 694 45 694 57.5 707.5 c 128,-1,138
 70 721 70 721 97.5 720 c 0,139,140
 151.838487973 718.024054983 151.838487973 718.024054983 163 725 c 256,141,142
 185.823529412 739.264705882 185.823529412 739.264705882 215 726.5 c 0,143,144
 223 723 223 723 229 718 c 1,145,146
 285.117647059 703.970588235 285.117647059 703.970588235 292 673 c 0,147,148
 312 589 312 589 312 561.5 c 128,-1,149
 312 534 312 534 313.5 529 c 128,-1,150
 315 524 315 524 316.5 521.5 c 128,-1,151
 318 519 318 519 318 516 c 128,-1,152
 318 513 318 513 316 500 c 256,153,154
 314 487 314 487 319 480 c 128,-1,155
 324 473 324 473 330.5 473 c 128,-1,156
 337 473 337 473 343 480 c 0,157,158
 349.765957447 487.893617021 349.765957447 487.893617021 352.382978723 511.446808511 c 128,-1,159
 355 535 355 535 355 540.5 c 0,160,161
 355 549 355 549 358.5 556.5 c 128,-1,162
 362 564 362 564 363 573 c 128,-1,163
 364 582 364 582 365.5 592 c 0,164,165
 369.470588235 618.470588235 369.470588235 618.470588235 379.235294118 628.235294118 c 128,-1,166
 389 638 389 638 400 645.5 c 128,-1,167
 411 653 411 653 414 667 c 128,-1,168
 417 681 417 681 420.5 693 c 128,-1,169
 424 705 424 705 431 716.5 c 0,170,171
 447.739130435 744 447.739130435 744 481 744 c 256,0,1
EndSplineSet
EndChar

